<svg width="60" height="60" viewBox="0 0 60 60" fill="none" xmlns="http://www.w3.org/2000/svg">
<path d="M42.5 35C43.163 35 43.7989 34.7366 44.2678 34.2678C44.7366 33.7989 45 33.163 45 32.5C45 31.837 44.7366 31.2011 44.2678 30.7322C43.7989 30.2634 43.163 30 42.5 30C41.837 30 41.2011 30.2634 40.7322 30.7322C40.2634 31.2011 40 31.837 40 32.5C40 33.163 40.2634 33.7989 40.7322 34.2678C41.2011 34.7366 41.837 35 42.5 35ZM42.5 45C43.163 45 43.7989 44.7366 44.2678 44.2678C44.7366 43.7989 45 43.163 45 42.5C45 41.837 44.7366 41.2011 44.2678 40.7322C43.7989 40.2634 43.163 40 42.5 40C41.837 40 41.2011 40.2634 40.7322 40.7322C40.2634 41.2011 40 41.837 40 42.5C40 43.163 40.2634 43.7989 40.7322 44.2678C41.2011 44.7366 41.837 45 42.5 45ZM32.5 32.5C32.5 33.163 32.2366 33.7989 31.7678 34.2678C31.2989 34.7366 30.663 35 30 35C29.337 35 28.7011 34.7366 28.2322 34.2678C27.7634 33.7989 27.5 33.163 27.5 32.5C27.5 31.837 27.7634 31.2011 28.2322 30.7322C28.7011 30.2634 29.337 30 30 30C30.663 30 31.2989 30.2634 31.7678 30.7322C32.2366 31.2011 32.5 31.837 32.5 32.5ZM32.5 42.5C32.5 43.163 32.2366 43.7989 31.7678 44.2678C31.2989 44.7366 30.663 45 30 45C29.337 45 28.7011 44.7366 28.2322 44.2678C27.7634 43.7989 27.5 43.163 27.5 42.5C27.5 41.837 27.7634 41.2011 28.2322 40.7322C28.7011 40.2634 29.337 40 30 40C30.663 40 31.2989 40.2634 31.7678 40.7322C32.2366 41.2011 32.5 41.837 32.5 42.5ZM17.5 35C18.163 35 18.7989 34.7366 19.2678 34.2678C19.7366 33.7989 20 33.163 20 32.5C20 31.837 19.7366 31.2011 19.2678 30.7322C18.7989 30.2634 18.163 30 17.5 30C16.837 30 16.2011 30.2634 15.7322 30.7322C15.2634 31.2011 15 31.837 15 32.5C15 33.163 15.2634 33.7989 15.7322 34.2678C16.2011 34.7366 16.837 35 17.5 35ZM17.5 45C18.163 45 18.7989 44.7366 19.2678 44.2678C19.7366 43.7989 20 43.163 20 42.5C20 41.837 19.7366 41.2011 19.2678 40.7322C18.7989 40.2634 18.163 40 17.5 40C16.837 40 16.2011 40.2634 15.7322 40.7322C15.2634 41.2011 15 41.837 15 42.5C15 43.163 15.2634 43.7989 15.7322 44.2678C16.2011 44.7366 16.837 45 17.5 45Z" fill="white"/>
<path fill-rule="evenodd" clip-rule="evenodd" d="M17.5 4.375C17.9973 4.375 18.4742 4.57254 18.8258 4.92417C19.1775 5.27581 19.375 5.75272 19.375 6.25V8.1575C21.03 8.125 22.8525 8.125 24.8575 8.125H35.14C37.1475 8.125 38.97 8.125 40.625 8.1575V6.25C40.625 5.75272 40.8225 5.27581 41.1742 4.92417C41.5258 4.57254 42.0027 4.375 42.5 4.375C42.9973 4.375 43.4742 4.57254 43.8258 4.92417C44.1775 5.27581 44.375 5.75272 44.375 6.25V8.3175C45.025 8.3675 45.6408 8.43083 46.2225 8.5075C49.1525 8.9025 51.525 9.7325 53.3975 11.6025C55.2675 13.475 56.0975 15.8475 56.4925 18.7775C56.875 21.6275 56.875 25.265 56.875 29.86V35.14C56.875 39.735 56.875 43.375 56.4925 46.2225C56.0975 49.1525 55.2675 51.525 53.3975 53.3975C51.525 55.2675 49.1525 56.0975 46.2225 56.4925C43.3725 56.875 39.735 56.875 35.14 56.875H24.8625C20.2675 56.875 16.6275 56.875 13.78 56.4925C10.85 56.0975 8.4775 55.2675 6.605 53.3975C4.735 51.525 3.905 49.1525 3.51 46.2225C3.1275 43.3725 3.1275 39.735 3.1275 35.14V29.86C3.1275 25.265 3.1275 21.625 3.51 18.7775C3.905 15.8475 4.735 13.475 6.605 11.6025C8.4775 9.7325 10.85 8.9025 13.78 8.5075C14.3633 8.43083 14.9792 8.3675 15.6275 8.3175V6.25C15.6275 5.75315 15.8247 5.27662 16.1758 4.92506C16.5269 4.5735 17.0032 4.37566 17.5 4.375ZM14.275 12.225C11.7625 12.5625 10.3125 13.1975 9.255 14.255C8.1975 15.3125 7.5625 16.7625 7.225 19.275C7.16834 19.7 7.12 20.1492 7.08 20.6225H52.92C52.88 20.1492 52.8317 19.6992 52.775 19.2725C52.4375 16.76 51.8025 15.31 50.745 14.2525C49.6875 13.195 48.2375 12.56 45.7225 12.2225C43.155 11.8775 39.7675 11.8725 35 11.8725H25C20.2325 11.8725 16.8475 11.88 14.275 12.225ZM6.875 30C6.875 27.865 6.875 26.0075 6.9075 24.375H53.0925C53.125 26.0075 53.125 27.865 53.125 30V35C53.125 39.7675 53.12 43.155 52.775 45.725C52.4375 48.2375 51.8025 49.6875 50.745 50.745C49.6875 51.8025 48.2375 52.4375 45.7225 52.775C43.155 53.12 39.7675 53.125 35 53.125H25C20.2325 53.125 16.8475 53.12 14.275 52.775C11.7625 52.4375 10.3125 51.8025 9.255 50.745C8.1975 49.6875 7.5625 48.2375 7.225 45.7225C6.88 43.155 6.875 39.7675 6.875 35V30Z" fill="white"/>
</svg>
