<svg width="480" height="420" viewBox="0 0 480 420" fill="none" xmlns="http://www.w3.org/2000/svg">
<g clip-path="url(#clip0_232_83)">
<rect width="480" height="420" fill="white"/>
<rect x="0.5" y="0.5" width="479" height="419" fill="white"/>
<rect x="0.5" y="0.5" width="479" height="419" stroke="white"/>
<path d="M20.1016 21.875V56H13.0703V21.875H20.1016ZM40.2109 21.875L27.1328 41.9141H18.5312L17.6406 35.6562H23.3828L31.6797 21.875H40.2109ZM32.9688 56L23.4062 40.7422L28.2812 35.7266L41.3125 56H32.9688ZM41.9219 43.5781V43.0859C41.9219 41.2266 42.1875 39.5156 42.7188 37.9531C43.25 36.375 44.0234 35.0078 45.0391 33.8516C46.0547 32.6953 47.3047 31.7969 48.7891 31.1562C50.2734 30.5 51.9766 30.1719 53.8984 30.1719C55.8203 30.1719 57.5312 30.5 59.0312 31.1562C60.5312 31.7969 61.7891 32.6953 62.8047 33.8516C63.8359 35.0078 64.6172 36.375 65.1484 37.9531C65.6797 39.5156 65.9453 41.2266 65.9453 43.0859V43.5781C65.9453 45.4219 65.6797 47.1328 65.1484 48.7109C64.6172 50.2734 63.8359 51.6406 62.8047 52.8125C61.7891 53.9688 60.5391 54.8672 59.0547 55.5078C57.5703 56.1484 55.8672 56.4688 53.9453 56.4688C52.0234 56.4688 50.3125 56.1484 48.8125 55.5078C47.3281 54.8672 46.0703 53.9688 45.0391 52.8125C44.0234 51.6406 43.25 50.2734 42.7188 48.7109C42.1875 47.1328 41.9219 45.4219 41.9219 43.5781ZM48.6719 43.0859V43.5781C48.6719 44.6406 48.7656 45.6328 48.9531 46.5547C49.1406 47.4766 49.4375 48.2891 49.8438 48.9922C50.2656 49.6797 50.8125 50.2188 51.4844 50.6094C52.1562 51 52.9766 51.1953 53.9453 51.1953C54.8828 51.1953 55.6875 51 56.3594 50.6094C57.0312 50.2188 57.5703 49.6797 57.9766 48.9922C58.3828 48.2891 58.6797 47.4766 58.8672 46.5547C59.0703 45.6328 59.1719 44.6406 59.1719 43.5781V43.0859C59.1719 42.0547 59.0703 41.0859 58.8672 40.1797C58.6797 39.2578 58.375 38.4453 57.9531 37.7422C57.5469 37.0234 57.0078 36.4609 56.3359 36.0547C55.6641 35.6484 54.8516 35.4453 53.8984 35.4453C52.9453 35.4453 52.1328 35.6484 51.4609 36.0547C50.8047 36.4609 50.2656 37.0234 49.8438 37.7422C49.4375 38.4453 49.1406 39.2578 48.9531 40.1797C48.7656 41.0859 48.6719 42.0547 48.6719 43.0859ZM87.4609 40.8828V46.1328H74.5703V40.8828H87.4609ZM76.8203 30.6406V56H70.0703V30.6406H76.8203ZM92.0312 30.6406V56H85.2578V30.6406H92.0312ZM104.477 30.6406V56H97.7266V30.6406H104.477ZM120.953 30.6406L110.031 46.5078H103.281L102.461 40.2734H106.938L112.398 30.6406H120.953ZM112.703 56L106.469 45.2891L112.352 42.0312L121.75 56H112.703ZM131.805 53.1406L138.531 30.6406H145.773L135.578 59.8203C135.359 60.4609 135.062 61.1484 134.688 61.8828C134.328 62.6172 133.836 63.3125 133.211 63.9688C132.602 64.6406 131.828 65.1875 130.891 65.6094C129.969 66.0312 128.836 66.2422 127.492 66.2422C126.852 66.2422 126.328 66.2031 125.922 66.125C125.516 66.0469 125.031 65.9375 124.469 65.7969V60.8516C124.641 60.8516 124.82 60.8516 125.008 60.8516C125.195 60.8672 125.375 60.875 125.547 60.875C126.438 60.875 127.164 60.7734 127.727 60.5703C128.289 60.3672 128.742 60.0547 129.086 59.6328C129.43 59.2266 129.703 58.6953 129.906 58.0391L131.805 53.1406ZM128.992 30.6406L134.5 49.0156L135.461 56.1641L130.867 56.6562L121.75 30.6406H128.992ZM155.219 35.5156V65.75H148.469V30.6406H154.727L155.219 35.5156ZM171.273 43.0391V43.5312C171.273 45.375 171.055 47.0859 170.617 48.6641C170.195 50.2422 169.57 51.6172 168.742 52.7891C167.914 53.9453 166.883 54.8516 165.648 55.5078C164.43 56.1484 163.023 56.4688 161.43 56.4688C159.883 56.4688 158.539 56.1562 157.398 55.5312C156.258 54.9062 155.297 54.0312 154.516 52.9062C153.75 51.7656 153.133 50.4453 152.664 48.9453C152.195 47.4453 151.836 45.8359 151.586 44.1172V42.8281C151.836 40.9844 152.195 39.2969 152.664 37.7656C153.133 36.2188 153.75 34.8828 154.516 33.7578C155.297 32.6172 156.25 31.7344 157.375 31.1094C158.516 30.4844 159.852 30.1719 161.383 30.1719C162.992 30.1719 164.406 30.4766 165.625 31.0859C166.859 31.6953 167.891 32.5703 168.719 33.7109C169.562 34.8516 170.195 36.2109 170.617 37.7891C171.055 39.3672 171.273 41.1172 171.273 43.0391ZM164.5 43.5312V43.0391C164.5 41.9609 164.406 40.9688 164.219 40.0625C164.047 39.1406 163.766 38.3359 163.375 37.6484C163 36.9609 162.5 36.4297 161.875 36.0547C161.266 35.6641 160.523 35.4688 159.648 35.4688C158.727 35.4688 157.938 35.6172 157.281 35.9141C156.641 36.2109 156.117 36.6406 155.711 37.2031C155.305 37.7656 155 38.4375 154.797 39.2188C154.594 40 154.469 40.8828 154.422 41.8672V45.125C154.5 46.2812 154.719 47.3203 155.078 48.2422C155.438 49.1484 155.992 49.8672 156.742 50.3984C157.492 50.9297 158.477 51.1953 159.695 51.1953C160.586 51.1953 161.336 51 161.945 50.6094C162.555 50.2031 163.047 49.6484 163.422 48.9453C163.812 48.2422 164.086 47.4297 164.242 46.5078C164.414 45.5859 164.5 44.5938 164.5 43.5312ZM187.141 56.4688C185.172 56.4688 183.406 56.1562 181.844 55.5312C180.281 54.8906 178.953 54.0078 177.859 52.8828C176.781 51.7578 175.953 50.4531 175.375 48.9688C174.797 47.4688 174.508 45.875 174.508 44.1875V43.25C174.508 41.3281 174.781 39.5703 175.328 37.9766C175.875 36.3828 176.656 35 177.672 33.8281C178.703 32.6562 179.953 31.7578 181.422 31.1328C182.891 30.4922 184.547 30.1719 186.391 30.1719C188.188 30.1719 189.781 30.4688 191.172 31.0625C192.562 31.6562 193.727 32.5 194.664 33.5938C195.617 34.6875 196.336 36 196.82 37.5312C197.305 39.0469 197.547 40.7344 197.547 42.5938V45.4062H177.391V40.9062H190.914V40.3906C190.914 39.4531 190.742 38.6172 190.398 37.8828C190.07 37.1328 189.57 36.5391 188.898 36.1016C188.227 35.6641 187.367 35.4453 186.32 35.4453C185.43 35.4453 184.664 35.6406 184.023 36.0312C183.383 36.4219 182.859 36.9688 182.453 37.6719C182.062 38.375 181.766 39.2031 181.562 40.1562C181.375 41.0938 181.281 42.125 181.281 43.25V44.1875C181.281 45.2031 181.422 46.1406 181.703 47C182 47.8594 182.414 48.6016 182.945 49.2266C183.492 49.8516 184.148 50.3359 184.914 50.6797C185.695 51.0234 186.578 51.1953 187.562 51.1953C188.781 51.1953 189.914 50.9609 190.961 50.4922C192.023 50.0078 192.938 49.2812 193.703 48.3125L196.984 51.875C196.453 52.6406 195.727 53.375 194.805 54.0781C193.898 54.7812 192.805 55.3594 191.523 55.8125C190.242 56.25 188.781 56.4688 187.141 56.4688ZM218.758 40.8828V46.1328H205.867V40.8828H218.758ZM208.117 30.6406V56H201.367V30.6406H208.117ZM223.328 30.6406V56H216.555V30.6406H223.328ZM241.492 30.6406V56H234.719V30.6406H241.492ZM249.648 30.6406V35.8672H226.68V30.6406H249.648ZM257.758 38.1641H265.117C267.43 38.1641 269.398 38.5469 271.023 39.3125C272.664 40.0625 273.914 41.1094 274.773 42.4531C275.648 43.7969 276.086 45.3516 276.086 47.1172C276.086 48.3984 275.836 49.5859 275.336 50.6797C274.852 51.7578 274.141 52.6953 273.203 53.4922C272.266 54.2891 271.117 54.9062 269.758 55.3438C268.398 55.7812 266.852 56 265.117 56H253.539V30.6406H260.312V50.75H265.117C266.133 50.75 266.945 50.5859 267.555 50.2578C268.18 49.9141 268.633 49.4688 268.914 48.9219C269.211 48.375 269.359 47.7812 269.359 47.1406C269.359 46.4688 269.211 45.8594 268.914 45.3125C268.633 44.75 268.18 44.2969 267.555 43.9531C266.945 43.6094 266.133 43.4375 265.117 43.4375H257.758V38.1641ZM286.914 30.6406V56H280.164V30.6406H286.914Z" fill="black"/>
<path d="M25.5742 109.422V108.941C25.5742 108.27 25.7852 107.715 26.207 107.277C26.6367 106.84 27.2188 106.621 27.9531 106.621C28.6953 106.621 29.2812 106.84 29.7109 107.277C30.1406 107.715 30.3555 108.27 30.3555 108.941V109.422C30.3555 110.086 30.1406 110.637 29.7109 111.074C29.2891 111.504 28.707 111.719 27.9648 111.719C27.2305 111.719 26.6484 111.504 26.2188 111.074C25.7891 110.637 25.5742 110.086 25.5742 109.422ZM58.5625 100.938V102.789H50.3359V118H48.0859V100.938H58.5625ZM60.7656 107.758V122.875H58.5859V105.32H60.5781L60.7656 107.758ZM69.3086 111.555V111.801C69.3086 112.723 69.1992 113.578 68.9805 114.367C68.7617 115.148 68.4414 115.828 68.0195 116.406C67.6055 116.984 67.0938 117.434 66.4844 117.754C65.875 118.074 65.1758 118.234 64.3867 118.234C63.582 118.234 62.8711 118.102 62.2539 117.836C61.6367 117.57 61.1133 117.184 60.6836 116.676C60.2539 116.168 59.9102 115.559 59.6523 114.848C59.4023 114.137 59.2305 113.336 59.1367 112.445V111.133C59.2305 110.195 59.4062 109.355 59.6641 108.613C59.9219 107.871 60.2617 107.238 60.6836 106.715C61.1133 106.184 61.6328 105.781 62.2422 105.508C62.8516 105.227 63.5547 105.086 64.3516 105.086C65.1484 105.086 65.8555 105.242 66.4727 105.555C67.0898 105.859 67.6094 106.297 68.0312 106.867C68.4531 107.438 68.7695 108.121 68.9805 108.918C69.1992 109.707 69.3086 110.586 69.3086 111.555ZM67.1289 111.801V111.555C67.1289 110.922 67.0625 110.328 66.9297 109.773C66.7969 109.211 66.5898 108.719 66.3086 108.297C66.0352 107.867 65.6836 107.531 65.2539 107.289C64.8242 107.039 64.3125 106.914 63.7188 106.914C63.1719 106.914 62.6953 107.008 62.2891 107.195C61.8906 107.383 61.5508 107.637 61.2695 107.957C60.9883 108.27 60.7578 108.629 60.5781 109.035C60.4062 109.434 60.2773 109.848 60.1914 110.277V113.312C60.3477 113.859 60.5664 114.375 60.8477 114.859C61.1289 115.336 61.5039 115.723 61.9727 116.02C62.4414 116.309 63.0312 116.453 63.7422 116.453C64.3281 116.453 64.832 116.332 65.2539 116.09C65.6836 115.84 66.0352 115.5 66.3086 115.07C66.5898 114.641 66.7969 114.148 66.9297 113.594C67.0625 113.031 67.1289 112.434 67.1289 111.801ZM71.5 111.801V111.531C71.5 110.617 71.6328 109.77 71.8984 108.988C72.1641 108.199 72.5469 107.516 73.0469 106.938C73.5469 106.352 74.1523 105.898 74.8633 105.578C75.5742 105.25 76.3711 105.086 77.2539 105.086C78.1445 105.086 78.9453 105.25 79.6562 105.578C80.375 105.898 80.9844 106.352 81.4844 106.938C81.9922 107.516 82.3789 108.199 82.6445 108.988C82.9102 109.77 83.043 110.617 83.043 111.531V111.801C83.043 112.715 82.9102 113.562 82.6445 114.344C82.3789 115.125 81.9922 115.809 81.4844 116.395C80.9844 116.973 80.3789 117.426 79.668 117.754C78.9648 118.074 78.168 118.234 77.2773 118.234C76.3867 118.234 75.5859 118.074 74.875 117.754C74.1641 117.426 73.5547 116.973 73.0469 116.395C72.5469 115.809 72.1641 115.125 71.8984 114.344C71.6328 113.562 71.5 112.715 71.5 111.801ZM73.668 111.531V111.801C73.668 112.434 73.7422 113.031 73.8906 113.594C74.0391 114.148 74.2617 114.641 74.5586 115.07C74.8633 115.5 75.2422 115.84 75.6953 116.09C76.1484 116.332 76.6758 116.453 77.2773 116.453C77.8711 116.453 78.3906 116.332 78.8359 116.09C79.2891 115.84 79.6641 115.5 79.9609 115.07C80.2578 114.641 80.4805 114.148 80.6289 113.594C80.7852 113.031 80.8633 112.434 80.8633 111.801V111.531C80.8633 110.906 80.7852 110.316 80.6289 109.762C80.4805 109.199 80.2539 108.703 79.9492 108.273C79.6523 107.836 79.2773 107.492 78.8242 107.242C78.3789 106.992 77.8555 106.867 77.2539 106.867C76.6602 106.867 76.1367 106.992 75.6836 107.242C75.2383 107.492 74.8633 107.836 74.5586 108.273C74.2617 108.703 74.0391 109.199 73.8906 109.762C73.7422 110.316 73.668 110.906 73.668 111.531ZM93.0508 115.117L97.3633 105.32H99.4492L93.8008 118H92.3008L86.6758 105.32H88.7617L93.0508 115.117ZM88.1289 105.32V118H85.9609V105.32H88.1289ZM97.9023 118V105.32H100.082V118H97.9023ZM103 111.801V111.531C103 110.617 103.133 109.77 103.398 108.988C103.664 108.199 104.047 107.516 104.547 106.938C105.047 106.352 105.652 105.898 106.363 105.578C107.074 105.25 107.871 105.086 108.754 105.086C109.645 105.086 110.445 105.25 111.156 105.578C111.875 105.898 112.484 106.352 112.984 106.938C113.492 107.516 113.879 108.199 114.145 108.988C114.41 109.77 114.543 110.617 114.543 111.531V111.801C114.543 112.715 114.41 113.562 114.145 114.344C113.879 115.125 113.492 115.809 112.984 116.395C112.484 116.973 111.879 117.426 111.168 117.754C110.465 118.074 109.668 118.234 108.777 118.234C107.887 118.234 107.086 118.074 106.375 117.754C105.664 117.426 105.055 116.973 104.547 116.395C104.047 115.809 103.664 115.125 103.398 114.344C103.133 113.562 103 112.715 103 111.801ZM105.168 111.531V111.801C105.168 112.434 105.242 113.031 105.391 113.594C105.539 114.148 105.762 114.641 106.059 115.07C106.363 115.5 106.742 115.84 107.195 116.09C107.648 116.332 108.176 116.453 108.777 116.453C109.371 116.453 109.891 116.332 110.336 116.09C110.789 115.84 111.164 115.5 111.461 115.07C111.758 114.641 111.98 114.148 112.129 113.594C112.285 113.031 112.363 112.434 112.363 111.801V111.531C112.363 110.906 112.285 110.316 112.129 109.762C111.98 109.199 111.754 108.703 111.449 108.273C111.152 107.836 110.777 107.492 110.324 107.242C109.879 106.992 109.355 106.867 108.754 106.867C108.16 106.867 107.637 106.992 107.184 107.242C106.738 107.492 106.363 107.836 106.059 108.273C105.762 108.703 105.539 109.199 105.391 109.762C105.242 110.316 105.168 110.906 105.168 111.531ZM121.996 111.941H119.664V110.605H121.82C122.422 110.605 122.898 110.531 123.25 110.383C123.602 110.227 123.852 110.012 124 109.738C124.148 109.465 124.223 109.145 124.223 108.777C124.223 108.449 124.137 108.141 123.965 107.852C123.801 107.555 123.535 107.316 123.168 107.137C122.801 106.949 122.309 106.855 121.691 106.855C121.191 106.855 120.738 106.945 120.332 107.125C119.926 107.297 119.602 107.535 119.359 107.84C119.125 108.137 119.008 108.473 119.008 108.848H116.84C116.84 108.074 117.059 107.41 117.496 106.855C117.941 106.293 118.531 105.859 119.266 105.555C120.008 105.25 120.816 105.098 121.691 105.098C122.426 105.098 123.082 105.18 123.66 105.344C124.246 105.5 124.742 105.734 125.148 106.047C125.555 106.352 125.863 106.734 126.074 107.195C126.293 107.648 126.402 108.176 126.402 108.777C126.402 109.207 126.301 109.613 126.098 109.996C125.895 110.379 125.602 110.719 125.219 111.016C124.836 111.305 124.371 111.531 123.824 111.695C123.285 111.859 122.676 111.941 121.996 111.941ZM119.664 111.121H121.996C122.754 111.121 123.422 111.195 124 111.344C124.578 111.484 125.062 111.695 125.453 111.977C125.844 112.258 126.137 112.605 126.332 113.02C126.535 113.426 126.637 113.895 126.637 114.426C126.637 115.02 126.516 115.555 126.273 116.031C126.039 116.5 125.703 116.898 125.266 117.227C124.828 117.555 124.305 117.805 123.695 117.977C123.094 118.148 122.426 118.234 121.691 118.234C120.871 118.234 120.074 118.094 119.301 117.812C118.527 117.531 117.891 117.098 117.391 116.512C116.891 115.918 116.641 115.164 116.641 114.25H118.809C118.809 114.633 118.93 114.996 119.172 115.34C119.414 115.684 119.75 115.961 120.18 116.172C120.617 116.383 121.121 116.488 121.691 116.488C122.301 116.488 122.809 116.395 123.215 116.207C123.621 116.02 123.926 115.77 124.129 115.457C124.34 115.145 124.445 114.805 124.445 114.438C124.445 113.961 124.352 113.578 124.164 113.289C123.977 113 123.688 112.789 123.297 112.656C122.914 112.516 122.422 112.445 121.82 112.445H119.664V111.121ZM131.734 105.32H133.902L133.715 110.066C133.668 111.27 133.531 112.309 133.305 113.184C133.078 114.059 132.789 114.805 132.438 115.422C132.086 116.031 131.691 116.543 131.254 116.957C130.824 117.371 130.379 117.719 129.918 118H128.84L128.898 116.23L129.344 116.219C129.602 115.914 129.852 115.602 130.094 115.281C130.336 114.953 130.559 114.566 130.762 114.121C130.965 113.668 131.133 113.117 131.266 112.469C131.406 111.812 131.496 111.012 131.535 110.066L131.734 105.32ZM132.273 105.32H139.902V118H137.734V107.324H132.273V105.32ZM128.348 116.219H141.531V121.738H139.363V118H130.516V121.738H128.336L128.348 116.219ZM146.289 105.32V118H144.121V105.32H146.289ZM154.609 105.32L148.598 112.586H145.562L145.234 110.688H147.719L151.973 105.32H154.609ZM152.277 118L147.613 112.258L149.008 110.688L155.031 118H152.277ZM159.262 114.566L165.109 105.32H167.289V118H165.109V108.754L159.262 118H157.105V105.32H159.262V114.566ZM173.113 114.566L178.961 105.32H181.141V118H178.961V108.754L173.113 118H170.957V105.32H173.113V114.566ZM177.777 100.727H179.535C179.535 101.336 179.395 101.879 179.113 102.355C178.832 102.824 178.43 103.191 177.906 103.457C177.383 103.723 176.762 103.855 176.043 103.855C174.957 103.855 174.098 103.566 173.465 102.988C172.84 102.402 172.527 101.648 172.527 100.727H174.285C174.285 101.188 174.418 101.594 174.684 101.945C174.949 102.297 175.402 102.473 176.043 102.473C176.668 102.473 177.113 102.297 177.379 101.945C177.645 101.594 177.777 101.188 177.777 100.727ZM192.859 105.32H195.027L194.84 110.066C194.793 111.27 194.656 112.309 194.43 113.184C194.203 114.059 193.914 114.805 193.562 115.422C193.211 116.031 192.816 116.543 192.379 116.957C191.949 117.371 191.504 117.719 191.043 118H189.965L190.023 116.23L190.469 116.219C190.727 115.914 190.977 115.602 191.219 115.281C191.461 114.953 191.684 114.566 191.887 114.121C192.09 113.668 192.258 113.117 192.391 112.469C192.531 111.812 192.621 111.012 192.66 110.066L192.859 105.32ZM193.398 105.32H201.027V118H198.859V107.324H193.398V105.32ZM189.473 116.219H202.656V121.738H200.488V118H191.641V121.738H189.461L189.473 116.219ZM207.402 114.566L213.25 105.32H215.43V118H213.25V108.754L207.402 118H205.246V105.32H207.402V114.566ZM223.645 111.941H221.312V110.605H223.469C224.07 110.605 224.547 110.531 224.898 110.383C225.25 110.227 225.5 110.012 225.648 109.738C225.797 109.465 225.871 109.145 225.871 108.777C225.871 108.449 225.785 108.141 225.613 107.852C225.449 107.555 225.184 107.316 224.816 107.137C224.449 106.949 223.957 106.855 223.34 106.855C222.84 106.855 222.387 106.945 221.98 107.125C221.574 107.297 221.25 107.535 221.008 107.84C220.773 108.137 220.656 108.473 220.656 108.848H218.488C218.488 108.074 218.707 107.41 219.145 106.855C219.59 106.293 220.18 105.859 220.914 105.555C221.656 105.25 222.465 105.098 223.34 105.098C224.074 105.098 224.73 105.18 225.309 105.344C225.895 105.5 226.391 105.734 226.797 106.047C227.203 106.352 227.512 106.734 227.723 107.195C227.941 107.648 228.051 108.176 228.051 108.777C228.051 109.207 227.949 109.613 227.746 109.996C227.543 110.379 227.25 110.719 226.867 111.016C226.484 111.305 226.02 111.531 225.473 111.695C224.934 111.859 224.324 111.941 223.645 111.941ZM221.312 111.121H223.645C224.402 111.121 225.07 111.195 225.648 111.344C226.227 111.484 226.711 111.695 227.102 111.977C227.492 112.258 227.785 112.605 227.98 113.02C228.184 113.426 228.285 113.895 228.285 114.426C228.285 115.02 228.164 115.555 227.922 116.031C227.688 116.5 227.352 116.898 226.914 117.227C226.477 117.555 225.953 117.805 225.344 117.977C224.742 118.148 224.074 118.234 223.34 118.234C222.52 118.234 221.723 118.094 220.949 117.812C220.176 117.531 219.539 117.098 219.039 116.512C218.539 115.918 218.289 115.164 218.289 114.25H220.457C220.457 114.633 220.578 114.996 220.82 115.34C221.062 115.684 221.398 115.961 221.828 116.172C222.266 116.383 222.77 116.488 223.34 116.488C223.949 116.488 224.457 116.395 224.863 116.207C225.27 116.02 225.574 115.77 225.777 115.457C225.988 115.145 226.094 114.805 226.094 114.438C226.094 113.961 226 113.578 225.812 113.289C225.625 113 225.336 112.789 224.945 112.656C224.562 112.516 224.07 112.445 223.469 112.445H221.312V111.121ZM238.574 115.832V109.305C238.574 108.805 238.473 108.371 238.27 108.004C238.074 107.629 237.777 107.34 237.379 107.137C236.98 106.934 236.488 106.832 235.902 106.832C235.355 106.832 234.875 106.926 234.461 107.113C234.055 107.301 233.734 107.547 233.5 107.852C233.273 108.156 233.16 108.484 233.16 108.836H230.992C230.992 108.383 231.109 107.934 231.344 107.488C231.578 107.043 231.914 106.641 232.352 106.281C232.797 105.914 233.328 105.625 233.945 105.414C234.57 105.195 235.266 105.086 236.031 105.086C236.953 105.086 237.766 105.242 238.469 105.555C239.18 105.867 239.734 106.34 240.133 106.973C240.539 107.598 240.742 108.383 240.742 109.328V115.234C240.742 115.656 240.777 116.105 240.848 116.582C240.926 117.059 241.039 117.469 241.188 117.812V118H238.926C238.816 117.75 238.73 117.418 238.668 117.004C238.605 116.582 238.574 116.191 238.574 115.832ZM238.949 110.312L238.973 111.836H236.781C236.164 111.836 235.613 111.887 235.129 111.988C234.645 112.082 234.238 112.227 233.91 112.422C233.582 112.617 233.332 112.863 233.16 113.16C232.988 113.449 232.902 113.789 232.902 114.18C232.902 114.578 232.992 114.941 233.172 115.27C233.352 115.598 233.621 115.859 233.98 116.055C234.348 116.242 234.797 116.336 235.328 116.336C235.992 116.336 236.578 116.195 237.086 115.914C237.594 115.633 237.996 115.289 238.293 114.883C238.598 114.477 238.762 114.082 238.785 113.699L239.711 114.742C239.656 115.07 239.508 115.434 239.266 115.832C239.023 116.23 238.699 116.613 238.293 116.98C237.895 117.34 237.418 117.641 236.863 117.883C236.316 118.117 235.699 118.234 235.012 118.234C234.152 118.234 233.398 118.066 232.75 117.73C232.109 117.395 231.609 116.945 231.25 116.383C230.898 115.812 230.723 115.176 230.723 114.473C230.723 113.793 230.855 113.195 231.121 112.68C231.387 112.156 231.77 111.723 232.27 111.379C232.77 111.027 233.371 110.762 234.074 110.582C234.777 110.402 235.562 110.312 236.43 110.312H238.949ZM246.496 114.566L252.344 105.32H254.523V118H252.344V108.754L246.496 118H244.34V105.32H246.496V114.566ZM251.16 100.727H252.918C252.918 101.336 252.777 101.879 252.496 102.355C252.215 102.824 251.812 103.191 251.289 103.457C250.766 103.723 250.145 103.855 249.426 103.855C248.34 103.855 247.48 103.566 246.848 102.988C246.223 102.402 245.91 101.648 245.91 100.727H247.668C247.668 101.188 247.801 101.594 248.066 101.945C248.332 102.297 248.785 102.473 249.426 102.473C250.051 102.473 250.496 102.297 250.762 101.945C251.027 101.594 251.16 101.188 251.16 100.727ZM266.605 110.816V112.574H259.902V110.816H266.605ZM260.359 105.32V118H258.191V105.32H260.359ZM268.363 105.32V118H266.184V105.32H268.363ZM25.5742 137.422V136.941C25.5742 136.27 25.7852 135.715 26.207 135.277C26.6367 134.84 27.2188 134.621 27.9531 134.621C28.6953 134.621 29.2812 134.84 29.7109 135.277C30.1406 135.715 30.3555 136.27 30.3555 136.941V137.422C30.3555 138.086 30.1406 138.637 29.7109 139.074C29.2891 139.504 28.707 139.719 27.9648 139.719C27.2305 139.719 26.6484 139.504 26.2188 139.074C25.7891 138.637 25.5742 138.086 25.5742 137.422ZM48.6953 128.938H50.8867L56.4766 142.848L62.0547 128.938H64.2578L57.3203 146H55.6094L48.6953 128.938ZM47.9805 128.938H49.9141L50.2305 139.344V146H47.9805V128.938ZM63.0273 128.938H64.9609V146H62.7109V139.344L63.0273 128.938ZM77.207 138.816V140.574H70.5039V138.816H77.207ZM70.9609 133.32V146H68.793V133.32H70.9609ZM78.9648 133.32V146H76.7852V133.32H78.9648ZM81.8828 139.801V139.531C81.8828 138.617 82.0156 137.77 82.2812 136.988C82.5469 136.199 82.9297 135.516 83.4297 134.938C83.9297 134.352 84.5352 133.898 85.2461 133.578C85.957 133.25 86.7539 133.086 87.6367 133.086C88.5273 133.086 89.3281 133.25 90.0391 133.578C90.7578 133.898 91.3672 134.352 91.8672 134.938C92.375 135.516 92.7617 136.199 93.0273 136.988C93.293 137.77 93.4258 138.617 93.4258 139.531V139.801C93.4258 140.715 93.293 141.562 93.0273 142.344C92.7617 143.125 92.375 143.809 91.8672 144.395C91.3672 144.973 90.7617 145.426 90.0508 145.754C89.3477 146.074 88.5508 146.234 87.6602 146.234C86.7695 146.234 85.9688 146.074 85.2578 145.754C84.5469 145.426 83.9375 144.973 83.4297 144.395C82.9297 143.809 82.5469 143.125 82.2812 142.344C82.0156 141.562 81.8828 140.715 81.8828 139.801ZM84.0508 139.531V139.801C84.0508 140.434 84.125 141.031 84.2734 141.594C84.4219 142.148 84.6445 142.641 84.9414 143.07C85.2461 143.5 85.625 143.84 86.0781 144.09C86.5312 144.332 87.0586 144.453 87.6602 144.453C88.2539 144.453 88.7734 144.332 89.2188 144.09C89.6719 143.84 90.0469 143.5 90.3438 143.07C90.6406 142.641 90.8633 142.148 91.0117 141.594C91.168 141.031 91.2461 140.434 91.2461 139.801V139.531C91.2461 138.906 91.168 138.316 91.0117 137.762C90.8633 137.199 90.6367 136.703 90.332 136.273C90.0352 135.836 89.6602 135.492 89.207 135.242C88.7617 134.992 88.2383 134.867 87.6367 134.867C87.043 134.867 86.5195 134.992 86.0664 135.242C85.6211 135.492 85.2461 135.836 84.9414 136.273C84.6445 136.703 84.4219 137.199 84.2734 137.762C84.125 138.316 84.0508 138.906 84.0508 139.531ZM104.336 133.32V135.113H98.4766V146H96.3086V133.32H104.336ZM105.414 139.801V139.531C105.414 138.617 105.547 137.77 105.812 136.988C106.078 136.199 106.461 135.516 106.961 134.938C107.461 134.352 108.066 133.898 108.777 133.578C109.488 133.25 110.285 133.086 111.168 133.086C112.059 133.086 112.859 133.25 113.57 133.578C114.289 133.898 114.898 134.352 115.398 134.938C115.906 135.516 116.293 136.199 116.559 136.988C116.824 137.77 116.957 138.617 116.957 139.531V139.801C116.957 140.715 116.824 141.562 116.559 142.344C116.293 143.125 115.906 143.809 115.398 144.395C114.898 144.973 114.293 145.426 113.582 145.754C112.879 146.074 112.082 146.234 111.191 146.234C110.301 146.234 109.5 146.074 108.789 145.754C108.078 145.426 107.469 144.973 106.961 144.395C106.461 143.809 106.078 143.125 105.812 142.344C105.547 141.562 105.414 140.715 105.414 139.801ZM107.582 139.531V139.801C107.582 140.434 107.656 141.031 107.805 141.594C107.953 142.148 108.176 142.641 108.473 143.07C108.777 143.5 109.156 143.84 109.609 144.09C110.062 144.332 110.59 144.453 111.191 144.453C111.785 144.453 112.305 144.332 112.75 144.09C113.203 143.84 113.578 143.5 113.875 143.07C114.172 142.641 114.395 142.148 114.543 141.594C114.699 141.031 114.777 140.434 114.777 139.801V139.531C114.777 138.906 114.699 138.316 114.543 137.762C114.395 137.199 114.168 136.703 113.863 136.273C113.566 135.836 113.191 135.492 112.738 135.242C112.293 134.992 111.77 134.867 111.168 134.867C110.574 134.867 110.051 134.992 109.598 135.242C109.152 135.492 108.777 135.836 108.473 136.273C108.176 136.703 107.953 137.199 107.805 137.762C107.656 138.316 107.582 138.906 107.582 139.531ZM134.23 138.816V140.574H127.527V138.816H134.23ZM127.984 133.32V146H125.816V133.32H127.984ZM135.988 133.32V146H133.809V133.32H135.988ZM144.742 146.234C143.859 146.234 143.059 146.086 142.34 145.789C141.629 145.484 141.016 145.059 140.5 144.512C139.992 143.965 139.602 143.316 139.328 142.566C139.055 141.816 138.918 140.996 138.918 140.105V139.613C138.918 138.582 139.07 137.664 139.375 136.859C139.68 136.047 140.094 135.359 140.617 134.797C141.141 134.234 141.734 133.809 142.398 133.52C143.062 133.23 143.75 133.086 144.461 133.086C145.367 133.086 146.148 133.242 146.805 133.555C147.469 133.867 148.012 134.305 148.434 134.867C148.855 135.422 149.168 136.078 149.371 136.836C149.574 137.586 149.676 138.406 149.676 139.297V140.27H140.207V138.5H147.508V138.336C147.477 137.773 147.359 137.227 147.156 136.695C146.961 136.164 146.648 135.727 146.219 135.383C145.789 135.039 145.203 134.867 144.461 134.867C143.969 134.867 143.516 134.973 143.102 135.184C142.688 135.387 142.332 135.691 142.035 136.098C141.738 136.504 141.508 137 141.344 137.586C141.18 138.172 141.098 138.848 141.098 139.613V140.105C141.098 140.707 141.18 141.273 141.344 141.805C141.516 142.328 141.762 142.789 142.082 143.188C142.41 143.586 142.805 143.898 143.266 144.125C143.734 144.352 144.266 144.465 144.859 144.465C145.625 144.465 146.273 144.309 146.805 143.996C147.336 143.684 147.801 143.266 148.199 142.742L149.512 143.785C149.238 144.199 148.891 144.594 148.469 144.969C148.047 145.344 147.527 145.648 146.91 145.883C146.301 146.117 145.578 146.234 144.742 146.234ZM154.551 142.566L160.398 133.32H162.578V146H160.398V136.754L154.551 146H152.395V133.32H154.551V142.566ZM171.133 144.453C171.648 144.453 172.125 144.348 172.562 144.137C173 143.926 173.359 143.637 173.641 143.27C173.922 142.895 174.082 142.469 174.121 141.992H176.184C176.145 142.742 175.891 143.441 175.422 144.09C174.961 144.73 174.355 145.25 173.605 145.648C172.855 146.039 172.031 146.234 171.133 146.234C170.18 146.234 169.348 146.066 168.637 145.73C167.934 145.395 167.348 144.934 166.879 144.348C166.418 143.762 166.07 143.09 165.836 142.332C165.609 141.566 165.496 140.758 165.496 139.906V139.414C165.496 138.562 165.609 137.758 165.836 137C166.07 136.234 166.418 135.559 166.879 134.973C167.348 134.387 167.934 133.926 168.637 133.59C169.348 133.254 170.18 133.086 171.133 133.086C172.125 133.086 172.992 133.289 173.734 133.695C174.477 134.094 175.059 134.641 175.48 135.336C175.91 136.023 176.145 136.805 176.184 137.68H174.121C174.082 137.156 173.934 136.684 173.676 136.262C173.426 135.84 173.082 135.504 172.645 135.254C172.215 134.996 171.711 134.867 171.133 134.867C170.469 134.867 169.91 135 169.457 135.266C169.012 135.523 168.656 135.875 168.391 136.32C168.133 136.758 167.945 137.246 167.828 137.785C167.719 138.316 167.664 138.859 167.664 139.414V139.906C167.664 140.461 167.719 141.008 167.828 141.547C167.938 142.086 168.121 142.574 168.379 143.012C168.645 143.449 169 143.801 169.445 144.066C169.898 144.324 170.461 144.453 171.133 144.453ZM187.07 133.32V135.113H180.66V133.32H187.07ZM180.977 133.32V146H178.809V133.32H180.977ZM188.992 133.32V146H186.812V133.32H188.992ZM191.898 139.801V139.531C191.898 138.617 192.031 137.77 192.297 136.988C192.562 136.199 192.945 135.516 193.445 134.938C193.945 134.352 194.551 133.898 195.262 133.578C195.973 133.25 196.77 133.086 197.652 133.086C198.543 133.086 199.344 133.25 200.055 133.578C200.773 133.898 201.383 134.352 201.883 134.938C202.391 135.516 202.777 136.199 203.043 136.988C203.309 137.77 203.441 138.617 203.441 139.531V139.801C203.441 140.715 203.309 141.562 203.043 142.344C202.777 143.125 202.391 143.809 201.883 144.395C201.383 144.973 200.777 145.426 200.066 145.754C199.363 146.074 198.566 146.234 197.676 146.234C196.785 146.234 195.984 146.074 195.273 145.754C194.562 145.426 193.953 144.973 193.445 144.395C192.945 143.809 192.562 143.125 192.297 142.344C192.031 141.562 191.898 140.715 191.898 139.801ZM194.066 139.531V139.801C194.066 140.434 194.141 141.031 194.289 141.594C194.438 142.148 194.66 142.641 194.957 143.07C195.262 143.5 195.641 143.84 196.094 144.09C196.547 144.332 197.074 144.453 197.676 144.453C198.27 144.453 198.789 144.332 199.234 144.09C199.688 143.84 200.062 143.5 200.359 143.07C200.656 142.641 200.879 142.148 201.027 141.594C201.184 141.031 201.262 140.434 201.262 139.801V139.531C201.262 138.906 201.184 138.316 201.027 137.762C200.879 137.199 200.652 136.703 200.348 136.273C200.051 135.836 199.676 135.492 199.223 135.242C198.777 134.992 198.254 134.867 197.652 134.867C197.059 134.867 196.535 134.992 196.082 135.242C195.637 135.492 195.262 135.836 194.957 136.273C194.66 136.703 194.438 137.199 194.289 137.762C194.141 138.316 194.066 138.906 194.066 139.531ZM214.445 133.32V135.113H208.316V133.32H214.445ZM216.355 133.32V146H214.188V133.32H216.355ZM207.789 133.32H209.969L209.641 139.438C209.586 140.383 209.496 141.219 209.371 141.945C209.254 142.664 209.09 143.281 208.879 143.797C208.676 144.312 208.418 144.734 208.105 145.062C207.801 145.383 207.434 145.621 207.004 145.777C206.574 145.926 206.078 146 205.516 146H204.836V144.09L205.305 144.055C205.641 144.031 205.926 143.953 206.16 143.82C206.402 143.688 206.605 143.492 206.77 143.234C206.934 142.969 207.066 142.629 207.168 142.215C207.277 141.801 207.359 141.309 207.414 140.738C207.477 140.168 207.523 139.504 207.555 138.746L207.789 133.32ZM221.629 137.68H225.438C226.461 137.68 227.324 137.859 228.027 138.219C228.73 138.57 229.262 139.059 229.621 139.684C229.988 140.301 230.172 141.004 230.172 141.793C230.172 142.379 230.07 142.93 229.867 143.445C229.664 143.953 229.359 144.398 228.953 144.781C228.555 145.164 228.059 145.465 227.465 145.684C226.879 145.895 226.203 146 225.438 146H220.047V133.32H222.215V144.219H225.438C226.062 144.219 226.562 144.105 226.938 143.879C227.312 143.652 227.582 143.359 227.746 143C227.91 142.641 227.992 142.266 227.992 141.875C227.992 141.492 227.91 141.117 227.746 140.75C227.582 140.383 227.312 140.078 226.938 139.836C226.562 139.586 226.062 139.461 225.438 139.461H221.629V137.68ZM237.613 139.941H235.281V138.605H237.438C238.039 138.605 238.516 138.531 238.867 138.383C239.219 138.227 239.469 138.012 239.617 137.738C239.766 137.465 239.84 137.145 239.84 136.777C239.84 136.449 239.754 136.141 239.582 135.852C239.418 135.555 239.152 135.316 238.785 135.137C238.418 134.949 237.926 134.855 237.309 134.855C236.809 134.855 236.355 134.945 235.949 135.125C235.543 135.297 235.219 135.535 234.977 135.84C234.742 136.137 234.625 136.473 234.625 136.848H232.457C232.457 136.074 232.676 135.41 233.113 134.855C233.559 134.293 234.148 133.859 234.883 133.555C235.625 133.25 236.434 133.098 237.309 133.098C238.043 133.098 238.699 133.18 239.277 133.344C239.863 133.5 240.359 133.734 240.766 134.047C241.172 134.352 241.48 134.734 241.691 135.195C241.91 135.648 242.02 136.176 242.02 136.777C242.02 137.207 241.918 137.613 241.715 137.996C241.512 138.379 241.219 138.719 240.836 139.016C240.453 139.305 239.988 139.531 239.441 139.695C238.902 139.859 238.293 139.941 237.613 139.941ZM235.281 139.121H237.613C238.371 139.121 239.039 139.195 239.617 139.344C240.195 139.484 240.68 139.695 241.07 139.977C241.461 140.258 241.754 140.605 241.949 141.02C242.152 141.426 242.254 141.895 242.254 142.426C242.254 143.02 242.133 143.555 241.891 144.031C241.656 144.5 241.32 144.898 240.883 145.227C240.445 145.555 239.922 145.805 239.312 145.977C238.711 146.148 238.043 146.234 237.309 146.234C236.488 146.234 235.691 146.094 234.918 145.812C234.145 145.531 233.508 145.098 233.008 144.512C232.508 143.918 232.258 143.164 232.258 142.25H234.426C234.426 142.633 234.547 142.996 234.789 143.34C235.031 143.684 235.367 143.961 235.797 144.172C236.234 144.383 236.738 144.488 237.309 144.488C237.918 144.488 238.426 144.395 238.832 144.207C239.238 144.02 239.543 143.77 239.746 143.457C239.957 143.145 240.062 142.805 240.062 142.438C240.062 141.961 239.969 141.578 239.781 141.289C239.594 141 239.305 140.789 238.914 140.656C238.531 140.516 238.039 140.445 237.438 140.445H235.281V139.121ZM248.629 144.688L252.156 133.32H254.477L249.391 147.957C249.273 148.27 249.117 148.605 248.922 148.965C248.734 149.332 248.492 149.68 248.195 150.008C247.898 150.336 247.539 150.602 247.117 150.805C246.703 151.016 246.207 151.121 245.629 151.121C245.457 151.121 245.238 151.098 244.973 151.051C244.707 151.004 244.52 150.965 244.41 150.934L244.398 149.176C244.461 149.184 244.559 149.191 244.691 149.199C244.832 149.215 244.93 149.223 244.984 149.223C245.477 149.223 245.895 149.156 246.238 149.023C246.582 148.898 246.871 148.684 247.105 148.379C247.348 148.082 247.555 147.672 247.727 147.148L248.629 144.688ZM246.039 133.32L249.332 143.164L249.895 145.449L248.336 146.246L243.672 133.32H246.039ZM261.531 146.234C260.648 146.234 259.848 146.086 259.129 145.789C258.418 145.484 257.805 145.059 257.289 144.512C256.781 143.965 256.391 143.316 256.117 142.566C255.844 141.816 255.707 140.996 255.707 140.105V139.613C255.707 138.582 255.859 137.664 256.164 136.859C256.469 136.047 256.883 135.359 257.406 134.797C257.93 134.234 258.523 133.809 259.188 133.52C259.852 133.23 260.539 133.086 261.25 133.086C262.156 133.086 262.938 133.242 263.594 133.555C264.258 133.867 264.801 134.305 265.223 134.867C265.645 135.422 265.957 136.078 266.16 136.836C266.363 137.586 266.465 138.406 266.465 139.297V140.27H256.996V138.5H264.297V138.336C264.266 137.773 264.148 137.227 263.945 136.695C263.75 136.164 263.438 135.727 263.008 135.383C262.578 135.039 261.992 134.867 261.25 134.867C260.758 134.867 260.305 134.973 259.891 135.184C259.477 135.387 259.121 135.691 258.824 136.098C258.527 136.504 258.297 137 258.133 137.586C257.969 138.172 257.887 138.848 257.887 139.613V140.105C257.887 140.707 257.969 141.273 258.133 141.805C258.305 142.328 258.551 142.789 258.871 143.188C259.199 143.586 259.594 143.898 260.055 144.125C260.523 144.352 261.055 144.465 261.648 144.465C262.414 144.465 263.062 144.309 263.594 143.996C264.125 143.684 264.59 143.266 264.988 142.742L266.301 143.785C266.027 144.199 265.68 144.594 265.258 144.969C264.836 145.344 264.316 145.648 263.699 145.883C263.09 146.117 262.367 146.234 261.531 146.234ZM276.285 143.117L280.598 133.32H282.684L277.035 146H275.535L269.91 133.32H271.996L276.285 143.117ZM271.363 133.32V146H269.195V133.32H271.363ZM281.137 146V133.32H283.316V146H281.137ZM288.59 137.68H292.398C293.422 137.68 294.285 137.859 294.988 138.219C295.691 138.57 296.223 139.059 296.582 139.684C296.949 140.301 297.133 141.004 297.133 141.793C297.133 142.379 297.031 142.93 296.828 143.445C296.625 143.953 296.32 144.398 295.914 144.781C295.516 145.164 295.02 145.465 294.426 145.684C293.84 145.895 293.164 146 292.398 146H287.008V133.32H289.176V144.219H292.398C293.023 144.219 293.523 144.105 293.898 143.879C294.273 143.652 294.543 143.359 294.707 143C294.871 142.641 294.953 142.266 294.953 141.875C294.953 141.492 294.871 141.117 294.707 140.75C294.543 140.383 294.273 140.078 293.898 139.836C293.523 139.586 293.023 139.461 292.398 139.461H288.59V137.68ZM301.645 133.32V146H299.477V133.32H301.645ZM306.906 133.32L309.684 137.938L312.496 133.32H315.039L310.891 139.578L315.168 146H312.66L309.73 141.242L306.801 146H304.281L308.547 139.578L304.41 133.32H306.906ZM62.2305 167.883V168.129C62.2305 169.02 62.1328 169.84 61.9375 170.59C61.7422 171.332 61.4492 171.977 61.0586 172.523C60.6758 173.07 60.1992 173.496 59.6289 173.801C59.0586 174.098 58.3984 174.246 57.6484 174.246C57.0312 174.246 56.4883 174.164 56.0195 174C55.5508 173.828 55.1523 173.582 54.8242 173.262C54.5039 172.941 54.2461 172.559 54.0508 172.113C53.8633 171.66 53.7344 171.152 53.6641 170.59V164.965C53.7344 164.363 53.8633 163.824 54.0508 163.348C54.2461 162.871 54.5039 162.465 54.8242 162.129C55.1523 161.793 55.5469 161.535 56.0078 161.355C56.4688 161.176 57.0078 161.086 57.625 161.086C58.2344 161.086 58.7812 161.195 59.2656 161.414C59.7578 161.625 60.1875 161.93 60.5547 162.328C60.9297 162.727 61.2383 163.207 61.4805 163.77C61.7305 164.324 61.918 164.949 62.043 165.645C62.168 166.34 62.2305 167.086 62.2305 167.883ZM60.0625 168.129V167.883C60.0625 167.336 60.0234 166.816 59.9453 166.324C59.875 165.824 59.7617 165.367 59.6055 164.953C59.457 164.531 59.2617 164.164 59.0195 163.852C58.7773 163.539 58.4844 163.297 58.1406 163.125C57.8047 162.953 57.418 162.867 56.9805 162.867C56.5117 162.867 56.1211 162.926 55.8086 163.043C55.5039 163.16 55.2656 163.316 55.0938 163.512C54.9219 163.699 54.7969 163.898 54.7188 164.109V171.457C54.8125 171.629 54.9492 171.793 55.1289 171.949C55.3086 172.098 55.5508 172.223 55.8555 172.324C56.1602 172.418 56.543 172.465 57.0039 172.465C57.5508 172.465 58.0156 172.355 58.3984 172.137C58.7891 171.91 59.1055 171.598 59.3477 171.199C59.5977 170.801 59.7773 170.34 59.8867 169.816C60.0039 169.293 60.0625 168.73 60.0625 168.129ZM47.1719 168.129V167.883C47.1719 167.086 47.2344 166.34 47.3594 165.645C47.4844 164.949 47.6719 164.324 47.9219 163.77C48.1719 163.207 48.4805 162.727 48.8477 162.328C49.2227 161.93 49.6523 161.625 50.1367 161.414C50.6289 161.195 51.1797 161.086 51.7891 161.086C52.3906 161.086 52.9141 161.176 53.3594 161.355C53.8125 161.535 54.1953 161.793 54.5078 162.129C54.8203 162.465 55.0703 162.871 55.2578 163.348C55.4453 163.824 55.5781 164.363 55.6562 164.965V170.367C55.5859 170.961 55.457 171.496 55.2695 171.973C55.082 172.449 54.832 172.859 54.5195 173.203C54.207 173.539 53.8203 173.797 53.3594 173.977C52.9062 174.156 52.375 174.246 51.7656 174.246C51.0156 174.246 50.3555 174.098 49.7852 173.801C49.2148 173.496 48.7344 173.07 48.3438 172.523C47.9609 171.977 47.668 171.332 47.4648 170.59C47.2695 169.84 47.1719 169.02 47.1719 168.129ZM49.3516 167.883V168.129C49.3516 168.73 49.4023 169.293 49.5039 169.816C49.6133 170.34 49.7812 170.801 50.0078 171.199C50.2422 171.598 50.5469 171.91 50.9219 172.137C51.2969 172.355 51.7578 172.465 52.3047 172.465C52.7734 172.465 53.1602 172.406 53.4648 172.289C53.7695 172.172 54.0117 172.02 54.1914 171.832C54.3711 171.645 54.5078 171.449 54.6016 171.246V164.109C54.5234 163.898 54.3945 163.699 54.2148 163.512C54.043 163.316 53.8047 163.16 53.5 163.043C53.1953 162.926 52.8047 162.867 52.3281 162.867C51.7812 162.867 51.3164 163 50.9336 163.266C50.5508 163.531 50.2422 163.895 50.0078 164.355C49.7812 164.816 49.6133 165.352 49.5039 165.961C49.4023 166.562 49.3516 167.203 49.3516 167.883ZM53.5234 178.875V156H55.7031V178.875H53.5234ZM68.4883 172.688L72.0156 161.32H74.3359L69.25 175.957C69.1328 176.27 68.9766 176.605 68.7812 176.965C68.5938 177.332 68.3516 177.68 68.0547 178.008C67.7578 178.336 67.3984 178.602 66.9766 178.805C66.5625 179.016 66.0664 179.121 65.4883 179.121C65.3164 179.121 65.0977 179.098 64.832 179.051C64.5664 179.004 64.3789 178.965 64.2695 178.934L64.2578 177.176C64.3203 177.184 64.418 177.191 64.5508 177.199C64.6914 177.215 64.7891 177.223 64.8438 177.223C65.3359 177.223 65.7539 177.156 66.0977 177.023C66.4414 176.898 66.7305 176.684 66.9648 176.379C67.207 176.082 67.4141 175.672 67.5859 175.148L68.4883 172.688ZM65.8984 161.32L69.1914 171.164L69.7539 173.449L68.1953 174.246L63.5312 161.32H65.8984ZM84.8945 166.816V168.574H78.1914V166.816H84.8945ZM78.6484 161.32V174H76.4805V161.32H78.6484ZM86.6523 161.32V174H84.4727V161.32H86.6523ZM92.5 161.32V174H90.332V161.32H92.5ZM100.82 161.32L94.8086 168.586H91.7734L91.4453 166.688H93.9297L98.1836 161.32H100.82ZM98.4883 174L93.8242 168.258L95.2188 166.688L101.242 174H98.4883ZM103.316 174V161.32H105.484V172.219H111.32V161.32H113.5V174H103.316ZM115 172.219L114.789 177.762H112.855V174H111.203V172.219H115ZM119.699 170.566L125.547 161.32H127.727V174H125.547V164.754L119.699 174H117.543V161.32H119.699V170.566ZM133.551 170.566L139.398 161.32H141.578V174H139.398V164.754L133.551 174H131.395V161.32H133.551V170.566ZM138.215 156.727H139.973C139.973 157.336 139.832 157.879 139.551 158.355C139.27 158.824 138.867 159.191 138.344 159.457C137.82 159.723 137.199 159.855 136.48 159.855C135.395 159.855 134.535 159.566 133.902 158.988C133.277 158.402 132.965 157.648 132.965 156.727H134.723C134.723 157.188 134.855 157.594 135.121 157.945C135.387 158.297 135.84 158.473 136.48 158.473C137.105 158.473 137.551 158.297 137.816 157.945C138.082 157.594 138.215 157.188 138.215 156.727ZM25.5742 193.422V192.941C25.5742 192.27 25.7852 191.715 26.207 191.277C26.6367 190.84 27.2188 190.621 27.9531 190.621C28.6953 190.621 29.2812 190.84 29.7109 191.277C30.1406 191.715 30.3555 192.27 30.3555 192.941V193.422C30.3555 194.086 30.1406 194.637 29.7109 195.074C29.2891 195.504 28.707 195.719 27.9648 195.719C27.2305 195.719 26.6484 195.504 26.2188 195.074C25.7891 194.637 25.5742 194.086 25.5742 193.422ZM59.125 192.273V194.113H49.8906V192.273H59.125ZM50.2422 184.938V202H47.9805V184.938H50.2422ZM61.0938 184.938V202H58.8438V184.938H61.0938ZM70.0469 202.234C69.1641 202.234 68.3633 202.086 67.6445 201.789C66.9336 201.484 66.3203 201.059 65.8047 200.512C65.2969 199.965 64.9062 199.316 64.6328 198.566C64.3594 197.816 64.2227 196.996 64.2227 196.105V195.613C64.2227 194.582 64.375 193.664 64.6797 192.859C64.9844 192.047 65.3984 191.359 65.9219 190.797C66.4453 190.234 67.0391 189.809 67.7031 189.52C68.3672 189.23 69.0547 189.086 69.7656 189.086C70.6719 189.086 71.4531 189.242 72.1094 189.555C72.7734 189.867 73.3164 190.305 73.7383 190.867C74.1602 191.422 74.4727 192.078 74.6758 192.836C74.8789 193.586 74.9805 194.406 74.9805 195.297V196.27H65.5117V194.5H72.8125V194.336C72.7812 193.773 72.6641 193.227 72.4609 192.695C72.2656 192.164 71.9531 191.727 71.5234 191.383C71.0938 191.039 70.5078 190.867 69.7656 190.867C69.2734 190.867 68.8203 190.973 68.4062 191.184C67.9922 191.387 67.6367 191.691 67.3398 192.098C67.043 192.504 66.8125 193 66.6484 193.586C66.4844 194.172 66.4023 194.848 66.4023 195.613V196.105C66.4023 196.707 66.4844 197.273 66.6484 197.805C66.8203 198.328 67.0664 198.789 67.3867 199.188C67.7148 199.586 68.1094 199.898 68.5703 200.125C69.0391 200.352 69.5703 200.465 70.1641 200.465C70.9297 200.465 71.5781 200.309 72.1094 199.996C72.6406 199.684 73.1055 199.266 73.5039 198.742L74.8164 199.785C74.543 200.199 74.1953 200.594 73.7734 200.969C73.3516 201.344 72.832 201.648 72.2148 201.883C71.6055 202.117 70.8828 202.234 70.0469 202.234ZM86.1133 194.816V196.574H79.4102V194.816H86.1133ZM79.8672 189.32V202H77.6992V189.32H79.8672ZM87.8711 189.32V202H85.6914V189.32H87.8711ZM94.9258 200.688L98.4531 189.32H100.773L95.6875 203.957C95.5703 204.27 95.4141 204.605 95.2188 204.965C95.0312 205.332 94.7891 205.68 94.4922 206.008C94.1953 206.336 93.8359 206.602 93.4141 206.805C93 207.016 92.5039 207.121 91.9258 207.121C91.7539 207.121 91.5352 207.098 91.2695 207.051C91.0039 207.004 90.8164 206.965 90.707 206.934L90.6953 205.176C90.7578 205.184 90.8555 205.191 90.9883 205.199C91.1289 205.215 91.2266 205.223 91.2812 205.223C91.7734 205.223 92.1914 205.156 92.5352 205.023C92.8789 204.898 93.168 204.684 93.4023 204.379C93.6445 204.082 93.8516 203.672 94.0234 203.148L94.9258 200.688ZM92.3359 189.32L95.6289 199.164L96.1914 201.449L94.6328 202.246L89.9688 189.32H92.3359ZM106.574 196.48L101.77 189.32H104.383L107.664 194.57H110.195L109.879 196.48H106.574ZM107.758 196.258L104.078 202H101.336L106.387 194.688L107.758 196.258ZM111.309 189.32V202H109.141V189.32H111.309ZM118.703 189.32L113.898 196.48H110.594L110.254 194.57H112.797L116.078 189.32H118.703ZM116.383 202L112.691 196.258L114.086 194.688L119.125 202H116.383ZM129.73 194.816V196.574H123.027V194.816H129.73ZM123.484 189.32V202H121.316V189.32H123.484ZM131.488 189.32V202H129.309V189.32H131.488ZM136.762 193.68H140.57C141.594 193.68 142.457 193.859 143.16 194.219C143.863 194.57 144.395 195.059 144.754 195.684C145.121 196.301 145.305 197.004 145.305 197.793C145.305 198.379 145.203 198.93 145 199.445C144.797 199.953 144.492 200.398 144.086 200.781C143.688 201.164 143.191 201.465 142.598 201.684C142.012 201.895 141.336 202 140.57 202H135.18V189.32H137.348V200.219H140.57C141.195 200.219 141.695 200.105 142.07 199.879C142.445 199.652 142.715 199.359 142.879 199C143.043 198.641 143.125 198.266 143.125 197.875C143.125 197.492 143.043 197.117 142.879 196.75C142.715 196.383 142.445 196.078 142.07 195.836C141.695 195.586 141.195 195.461 140.57 195.461H136.762V193.68ZM149.816 189.32V202H147.648V189.32H149.816ZM158.875 202.234C157.992 202.234 157.191 202.086 156.473 201.789C155.762 201.484 155.148 201.059 154.633 200.512C154.125 199.965 153.734 199.316 153.461 198.566C153.188 197.816 153.051 196.996 153.051 196.105V195.613C153.051 194.582 153.203 193.664 153.508 192.859C153.812 192.047 154.227 191.359 154.75 190.797C155.273 190.234 155.867 189.809 156.531 189.52C157.195 189.23 157.883 189.086 158.594 189.086C159.5 189.086 160.281 189.242 160.938 189.555C161.602 189.867 162.145 190.305 162.566 190.867C162.988 191.422 163.301 192.078 163.504 192.836C163.707 193.586 163.809 194.406 163.809 195.297V196.27H154.34V194.5H161.641V194.336C161.609 193.773 161.492 193.227 161.289 192.695C161.094 192.164 160.781 191.727 160.352 191.383C159.922 191.039 159.336 190.867 158.594 190.867C158.102 190.867 157.648 190.973 157.234 191.184C156.82 191.387 156.465 191.691 156.168 192.098C155.871 192.504 155.641 193 155.477 193.586C155.312 194.172 155.23 194.848 155.23 195.613V196.105C155.23 196.707 155.312 197.273 155.477 197.805C155.648 198.328 155.895 198.789 156.215 199.188C156.543 199.586 156.938 199.898 157.398 200.125C157.867 200.352 158.398 200.465 158.992 200.465C159.758 200.465 160.406 200.309 160.938 199.996C161.469 199.684 161.934 199.266 162.332 198.742L163.645 199.785C163.371 200.199 163.023 200.594 162.602 200.969C162.18 201.344 161.66 201.648 161.043 201.883C160.434 202.117 159.711 202.234 158.875 202.234ZM177.367 200.453C177.883 200.453 178.359 200.348 178.797 200.137C179.234 199.926 179.594 199.637 179.875 199.27C180.156 198.895 180.316 198.469 180.355 197.992H182.418C182.379 198.742 182.125 199.441 181.656 200.09C181.195 200.73 180.59 201.25 179.84 201.648C179.09 202.039 178.266 202.234 177.367 202.234C176.414 202.234 175.582 202.066 174.871 201.73C174.168 201.395 173.582 200.934 173.113 200.348C172.652 199.762 172.305 199.09 172.07 198.332C171.844 197.566 171.73 196.758 171.73 195.906V195.414C171.73 194.562 171.844 193.758 172.07 193C172.305 192.234 172.652 191.559 173.113 190.973C173.582 190.387 174.168 189.926 174.871 189.59C175.582 189.254 176.414 189.086 177.367 189.086C178.359 189.086 179.227 189.289 179.969 189.695C180.711 190.094 181.293 190.641 181.715 191.336C182.145 192.023 182.379 192.805 182.418 193.68H180.355C180.316 193.156 180.168 192.684 179.91 192.262C179.66 191.84 179.316 191.504 178.879 191.254C178.449 190.996 177.945 190.867 177.367 190.867C176.703 190.867 176.145 191 175.691 191.266C175.246 191.523 174.891 191.875 174.625 192.32C174.367 192.758 174.18 193.246 174.062 193.785C173.953 194.316 173.898 194.859 173.898 195.414V195.906C173.898 196.461 173.953 197.008 174.062 197.547C174.172 198.086 174.355 198.574 174.613 199.012C174.879 199.449 175.234 199.801 175.68 200.066C176.133 200.324 176.695 200.453 177.367 200.453ZM190.023 189.32V202H187.844V189.32H190.023ZM194.277 189.32V191.078H183.672V189.32H194.277ZM203.699 199.832V193.305C203.699 192.805 203.598 192.371 203.395 192.004C203.199 191.629 202.902 191.34 202.504 191.137C202.105 190.934 201.613 190.832 201.027 190.832C200.48 190.832 200 190.926 199.586 191.113C199.18 191.301 198.859 191.547 198.625 191.852C198.398 192.156 198.285 192.484 198.285 192.836H196.117C196.117 192.383 196.234 191.934 196.469 191.488C196.703 191.043 197.039 190.641 197.477 190.281C197.922 189.914 198.453 189.625 199.07 189.414C199.695 189.195 200.391 189.086 201.156 189.086C202.078 189.086 202.891 189.242 203.594 189.555C204.305 189.867 204.859 190.34 205.258 190.973C205.664 191.598 205.867 192.383 205.867 193.328V199.234C205.867 199.656 205.902 200.105 205.973 200.582C206.051 201.059 206.164 201.469 206.312 201.812V202H204.051C203.941 201.75 203.855 201.418 203.793 201.004C203.73 200.582 203.699 200.191 203.699 199.832ZM204.074 194.312L204.098 195.836H201.906C201.289 195.836 200.738 195.887 200.254 195.988C199.77 196.082 199.363 196.227 199.035 196.422C198.707 196.617 198.457 196.863 198.285 197.16C198.113 197.449 198.027 197.789 198.027 198.18C198.027 198.578 198.117 198.941 198.297 199.27C198.477 199.598 198.746 199.859 199.105 200.055C199.473 200.242 199.922 200.336 200.453 200.336C201.117 200.336 201.703 200.195 202.211 199.914C202.719 199.633 203.121 199.289 203.418 198.883C203.723 198.477 203.887 198.082 203.91 197.699L204.836 198.742C204.781 199.07 204.633 199.434 204.391 199.832C204.148 200.23 203.824 200.613 203.418 200.98C203.02 201.34 202.543 201.641 201.988 201.883C201.441 202.117 200.824 202.234 200.137 202.234C199.277 202.234 198.523 202.066 197.875 201.73C197.234 201.395 196.734 200.945 196.375 200.383C196.023 199.812 195.848 199.176 195.848 198.473C195.848 197.793 195.98 197.195 196.246 196.68C196.512 196.156 196.895 195.723 197.395 195.379C197.895 195.027 198.496 194.762 199.199 194.582C199.902 194.402 200.688 194.312 201.555 194.312H204.074ZM214.258 189.32V202H212.078V189.32H214.258ZM218.512 189.32V191.078H207.906V189.32H218.512ZM222.988 198.566L228.836 189.32H231.016V202H228.836V192.754L222.988 202H220.832V189.32H222.988V198.566ZM239.57 200.453C240.086 200.453 240.562 200.348 241 200.137C241.438 199.926 241.797 199.637 242.078 199.27C242.359 198.895 242.52 198.469 242.559 197.992H244.621C244.582 198.742 244.328 199.441 243.859 200.09C243.398 200.73 242.793 201.25 242.043 201.648C241.293 202.039 240.469 202.234 239.57 202.234C238.617 202.234 237.785 202.066 237.074 201.73C236.371 201.395 235.785 200.934 235.316 200.348C234.855 199.762 234.508 199.09 234.273 198.332C234.047 197.566 233.934 196.758 233.934 195.906V195.414C233.934 194.562 234.047 193.758 234.273 193C234.508 192.234 234.855 191.559 235.316 190.973C235.785 190.387 236.371 189.926 237.074 189.59C237.785 189.254 238.617 189.086 239.57 189.086C240.562 189.086 241.43 189.289 242.172 189.695C242.914 190.094 243.496 190.641 243.918 191.336C244.348 192.023 244.582 192.805 244.621 193.68H242.559C242.52 193.156 242.371 192.684 242.113 192.262C241.863 191.84 241.52 191.504 241.082 191.254C240.652 190.996 240.148 190.867 239.57 190.867C238.906 190.867 238.348 191 237.895 191.266C237.449 191.523 237.094 191.875 236.828 192.32C236.57 192.758 236.383 193.246 236.266 193.785C236.156 194.316 236.102 194.859 236.102 195.414V195.906C236.102 196.461 236.156 197.008 236.266 197.547C236.375 198.086 236.559 198.574 236.816 199.012C237.082 199.449 237.438 199.801 237.883 200.066C238.336 200.324 238.898 200.453 239.57 200.453ZM252.227 189.32V202H250.047V189.32H252.227ZM256.48 189.32V191.078H245.875V189.32H256.48ZM260.957 198.566L266.805 189.32H268.984V202H266.805V192.754L260.957 202H258.801V189.32H260.957V198.566ZM274.82 189.32V202H272.652V189.32H274.82ZM283.141 189.32L277.129 196.586H274.094L273.766 194.688H276.25L280.504 189.32H283.141ZM280.809 202L276.145 196.258L277.539 194.688L283.562 202H280.809ZM287.793 198.566L293.641 189.32H295.82V202H293.641V192.754L287.793 202H285.637V189.32H287.793V198.566ZM301.27 199.422V201.168C301.27 201.879 301.09 202.629 300.73 203.418C300.371 204.215 299.867 204.879 299.219 205.41L297.988 204.555C298.238 204.211 298.449 203.859 298.621 203.5C298.793 203.148 298.922 202.781 299.008 202.398C299.102 202.023 299.148 201.625 299.148 201.203V199.422H301.27ZM52.3867 223.941H50.0547V222.605H52.2109C52.8125 222.605 53.2891 222.531 53.6406 222.383C53.9922 222.227 54.2422 222.012 54.3906 221.738C54.5391 221.465 54.6133 221.145 54.6133 220.777C54.6133 220.449 54.5273 220.141 54.3555 219.852C54.1914 219.555 53.9258 219.316 53.5586 219.137C53.1914 218.949 52.6992 218.855 52.082 218.855C51.582 218.855 51.1289 218.945 50.7227 219.125C50.3164 219.297 49.9922 219.535 49.75 219.84C49.5156 220.137 49.3984 220.473 49.3984 220.848H47.2305C47.2305 220.074 47.4492 219.41 47.8867 218.855C48.332 218.293 48.9219 217.859 49.6562 217.555C50.3984 217.25 51.207 217.098 52.082 217.098C52.8164 217.098 53.4727 217.18 54.0508 217.344C54.6367 217.5 55.1328 217.734 55.5391 218.047C55.9453 218.352 56.2539 218.734 56.4648 219.195C56.6836 219.648 56.793 220.176 56.793 220.777C56.793 221.207 56.6914 221.613 56.4883 221.996C56.2852 222.379 55.9922 222.719 55.6094 223.016C55.2266 223.305 54.7617 223.531 54.2148 223.695C53.6758 223.859 53.0664 223.941 52.3867 223.941ZM50.0547 223.121H52.3867C53.1445 223.121 53.8125 223.195 54.3906 223.344C54.9688 223.484 55.4531 223.695 55.8438 223.977C56.2344 224.258 56.5273 224.605 56.7227 225.02C56.9258 225.426 57.0273 225.895 57.0273 226.426C57.0273 227.02 56.9062 227.555 56.6641 228.031C56.4297 228.5 56.0938 228.898 55.6562 229.227C55.2188 229.555 54.6953 229.805 54.0859 229.977C53.4844 230.148 52.8164 230.234 52.082 230.234C51.2617 230.234 50.4648 230.094 49.6914 229.812C48.918 229.531 48.2812 229.098 47.7812 228.512C47.2812 227.918 47.0312 227.164 47.0312 226.25H49.1992C49.1992 226.633 49.3203 226.996 49.5625 227.34C49.8047 227.684 50.1406 227.961 50.5703 228.172C51.0078 228.383 51.5117 228.488 52.082 228.488C52.6914 228.488 53.1992 228.395 53.6055 228.207C54.0117 228.02 54.3164 227.77 54.5195 227.457C54.7305 227.145 54.8359 226.805 54.8359 226.438C54.8359 225.961 54.7422 225.578 54.5547 225.289C54.3672 225 54.0781 224.789 53.6875 224.656C53.3047 224.516 52.8125 224.445 52.2109 224.445H50.0547V223.121ZM67.3164 227.832V221.305C67.3164 220.805 67.2148 220.371 67.0117 220.004C66.8164 219.629 66.5195 219.34 66.1211 219.137C65.7227 218.934 65.2305 218.832 64.6445 218.832C64.0977 218.832 63.6172 218.926 63.2031 219.113C62.7969 219.301 62.4766 219.547 62.2422 219.852C62.0156 220.156 61.9023 220.484 61.9023 220.836H59.7344C59.7344 220.383 59.8516 219.934 60.0859 219.488C60.3203 219.043 60.6562 218.641 61.0938 218.281C61.5391 217.914 62.0703 217.625 62.6875 217.414C63.3125 217.195 64.0078 217.086 64.7734 217.086C65.6953 217.086 66.5078 217.242 67.2109 217.555C67.9219 217.867 68.4766 218.34 68.875 218.973C69.2812 219.598 69.4844 220.383 69.4844 221.328V227.234C69.4844 227.656 69.5195 228.105 69.5898 228.582C69.668 229.059 69.7812 229.469 69.9297 229.812V230H67.668C67.5586 229.75 67.4727 229.418 67.4102 229.004C67.3477 228.582 67.3164 228.191 67.3164 227.832ZM67.6914 222.312L67.7148 223.836H65.5234C64.9062 223.836 64.3555 223.887 63.8711 223.988C63.3867 224.082 62.9805 224.227 62.6523 224.422C62.3242 224.617 62.0742 224.863 61.9023 225.16C61.7305 225.449 61.6445 225.789 61.6445 226.18C61.6445 226.578 61.7344 226.941 61.9141 227.27C62.0938 227.598 62.3633 227.859 62.7227 228.055C63.0898 228.242 63.5391 228.336 64.0703 228.336C64.7344 228.336 65.3203 228.195 65.8281 227.914C66.3359 227.633 66.7383 227.289 67.0352 226.883C67.3398 226.477 67.5039 226.082 67.5273 225.699L68.4531 226.742C68.3984 227.07 68.25 227.434 68.0078 227.832C67.7656 228.23 67.4414 228.613 67.0352 228.98C66.6367 229.34 66.1602 229.641 65.6055 229.883C65.0586 230.117 64.4414 230.234 63.7539 230.234C62.8945 230.234 62.1406 230.066 61.4922 229.73C60.8516 229.395 60.3516 228.945 59.9922 228.383C59.6406 227.812 59.4648 227.176 59.4648 226.473C59.4648 225.793 59.5977 225.195 59.8633 224.68C60.1289 224.156 60.5117 223.723 61.0117 223.379C61.5117 223.027 62.1133 222.762 62.8164 222.582C63.5195 222.402 64.3047 222.312 65.1719 222.312H67.6914ZM81.4961 222.816V224.574H74.793V222.816H81.4961ZM75.25 217.32V230H73.082V217.32H75.25ZM83.2539 217.32V230H81.0742V217.32H83.2539ZM89.0898 226.566L94.9375 217.32H97.1172V230H94.9375V220.754L89.0898 230H86.9336V217.32H89.0898V226.566ZM107.887 227.117L112.199 217.32H114.285L108.637 230H107.137L101.512 217.32H103.598L107.887 227.117ZM102.965 217.32V230H100.797V217.32H102.965ZM112.738 230V217.32H114.918V230H112.738ZM125.887 227.832V221.305C125.887 220.805 125.785 220.371 125.582 220.004C125.387 219.629 125.09 219.34 124.691 219.137C124.293 218.934 123.801 218.832 123.215 218.832C122.668 218.832 122.188 218.926 121.773 219.113C121.367 219.301 121.047 219.547 120.812 219.852C120.586 220.156 120.473 220.484 120.473 220.836H118.305C118.305 220.383 118.422 219.934 118.656 219.488C118.891 219.043 119.227 218.641 119.664 218.281C120.109 217.914 120.641 217.625 121.258 217.414C121.883 217.195 122.578 217.086 123.344 217.086C124.266 217.086 125.078 217.242 125.781 217.555C126.492 217.867 127.047 218.34 127.445 218.973C127.852 219.598 128.055 220.383 128.055 221.328V227.234C128.055 227.656 128.09 228.105 128.16 228.582C128.238 229.059 128.352 229.469 128.5 229.812V230H126.238C126.129 229.75 126.043 229.418 125.98 229.004C125.918 228.582 125.887 228.191 125.887 227.832ZM126.262 222.312L126.285 223.836H124.094C123.477 223.836 122.926 223.887 122.441 223.988C121.957 224.082 121.551 224.227 121.223 224.422C120.895 224.617 120.645 224.863 120.473 225.16C120.301 225.449 120.215 225.789 120.215 226.18C120.215 226.578 120.305 226.941 120.484 227.27C120.664 227.598 120.934 227.859 121.293 228.055C121.66 228.242 122.109 228.336 122.641 228.336C123.305 228.336 123.891 228.195 124.398 227.914C124.906 227.633 125.309 227.289 125.605 226.883C125.91 226.477 126.074 226.082 126.098 225.699L127.023 226.742C126.969 227.07 126.82 227.434 126.578 227.832C126.336 228.23 126.012 228.613 125.605 228.98C125.207 229.34 124.73 229.641 124.176 229.883C123.629 230.117 123.012 230.234 122.324 230.234C121.465 230.234 120.711 230.066 120.062 229.73C119.422 229.395 118.922 228.945 118.562 228.383C118.211 227.812 118.035 227.176 118.035 226.473C118.035 225.793 118.168 225.195 118.434 224.68C118.699 224.156 119.082 223.723 119.582 223.379C120.082 223.027 120.684 222.762 121.387 222.582C122.09 222.402 122.875 222.312 123.742 222.312H126.262ZM138.684 222.699V224.469H131.945V222.699H138.684ZM133.832 217.32V230H131.664V217.32H133.832ZM136.832 223.801V223.531C136.832 222.617 136.965 221.77 137.23 220.988C137.496 220.199 137.879 219.516 138.379 218.938C138.887 218.352 139.492 217.898 140.195 217.578C140.906 217.25 141.703 217.086 142.586 217.086C143.484 217.086 144.289 217.25 145 217.578C145.711 217.898 146.316 218.352 146.816 218.938C147.324 219.516 147.711 220.199 147.977 220.988C148.242 221.77 148.375 222.617 148.375 223.531V223.801C148.375 224.715 148.242 225.562 147.977 226.344C147.711 227.125 147.328 227.809 146.828 228.395C146.328 228.973 145.723 229.426 145.012 229.754C144.301 230.074 143.5 230.234 142.609 230.234C141.719 230.234 140.918 230.074 140.207 229.754C139.496 229.426 138.887 228.973 138.379 228.395C137.879 227.809 137.496 227.125 137.23 226.344C136.965 225.562 136.832 224.715 136.832 223.801ZM139.012 223.531V223.801C139.012 224.434 139.086 225.031 139.234 225.594C139.383 226.148 139.605 226.641 139.902 227.07C140.207 227.5 140.582 227.84 141.027 228.09C141.48 228.332 142.008 228.453 142.609 228.453C143.211 228.453 143.734 228.332 144.18 228.09C144.633 227.84 145.008 227.5 145.305 227.07C145.602 226.641 145.824 226.148 145.973 225.594C146.129 225.031 146.207 224.434 146.207 223.801V223.531C146.207 222.906 146.129 222.316 145.973 221.762C145.824 221.199 145.598 220.703 145.293 220.273C144.996 219.836 144.621 219.492 144.168 219.242C143.715 218.992 143.188 218.867 142.586 218.867C141.992 218.867 141.473 218.992 141.027 219.242C140.582 219.492 140.207 219.836 139.902 220.273C139.605 220.703 139.383 221.199 139.234 221.762C139.086 222.316 139.012 222.906 139.012 223.531ZM168.684 228.219L168.473 233.762H166.539V230H164.887V228.219H168.684ZM151.117 217.32H153.285V228.219H157.926V217.32H160.105V228.219H164.734V217.32H166.902V230H151.117V217.32ZM173.277 226.566L179.125 217.32H181.305V230H179.125V220.754L173.277 230H171.121V217.32H173.277V226.566ZM190.047 230.234C189.164 230.234 188.363 230.086 187.645 229.789C186.934 229.484 186.32 229.059 185.805 228.512C185.297 227.965 184.906 227.316 184.633 226.566C184.359 225.816 184.223 224.996 184.223 224.105V223.613C184.223 222.582 184.375 221.664 184.68 220.859C184.984 220.047 185.398 219.359 185.922 218.797C186.445 218.234 187.039 217.809 187.703 217.52C188.367 217.23 189.055 217.086 189.766 217.086C190.672 217.086 191.453 217.242 192.109 217.555C192.773 217.867 193.316 218.305 193.738 218.867C194.16 219.422 194.473 220.078 194.676 220.836C194.879 221.586 194.98 222.406 194.98 223.297V224.27H185.512V222.5H192.812V222.336C192.781 221.773 192.664 221.227 192.461 220.695C192.266 220.164 191.953 219.727 191.523 219.383C191.094 219.039 190.508 218.867 189.766 218.867C189.273 218.867 188.82 218.973 188.406 219.184C187.992 219.387 187.637 219.691 187.34 220.098C187.043 220.504 186.812 221 186.648 221.586C186.484 222.172 186.402 222.848 186.402 223.613V224.105C186.402 224.707 186.484 225.273 186.648 225.805C186.82 226.328 187.066 226.789 187.387 227.188C187.715 227.586 188.109 227.898 188.57 228.125C189.039 228.352 189.57 228.465 190.164 228.465C190.93 228.465 191.578 228.309 192.109 227.996C192.641 227.684 193.105 227.266 193.504 226.742L194.816 227.785C194.543 228.199 194.195 228.594 193.773 228.969C193.352 229.344 192.832 229.648 192.215 229.883C191.605 230.117 190.883 230.234 190.047 230.234ZM210.754 227.117L215.066 217.32H217.152L211.504 230H210.004L204.379 217.32H206.465L210.754 227.117ZM205.832 217.32V230H203.664V217.32H205.832ZM215.605 230V217.32H217.785V230H215.605ZM226.539 230.234C225.656 230.234 224.855 230.086 224.137 229.789C223.426 229.484 222.812 229.059 222.297 228.512C221.789 227.965 221.398 227.316 221.125 226.566C220.852 225.816 220.715 224.996 220.715 224.105V223.613C220.715 222.582 220.867 221.664 221.172 220.859C221.477 220.047 221.891 219.359 222.414 218.797C222.938 218.234 223.531 217.809 224.195 217.52C224.859 217.23 225.547 217.086 226.258 217.086C227.164 217.086 227.945 217.242 228.602 217.555C229.266 217.867 229.809 218.305 230.23 218.867C230.652 219.422 230.965 220.078 231.168 220.836C231.371 221.586 231.473 222.406 231.473 223.297V224.27H222.004V222.5H229.305V222.336C229.273 221.773 229.156 221.227 228.953 220.695C228.758 220.164 228.445 219.727 228.016 219.383C227.586 219.039 227 218.867 226.258 218.867C225.766 218.867 225.312 218.973 224.898 219.184C224.484 219.387 224.129 219.691 223.832 220.098C223.535 220.504 223.305 221 223.141 221.586C222.977 222.172 222.895 222.848 222.895 223.613V224.105C222.895 224.707 222.977 225.273 223.141 225.805C223.312 226.328 223.559 226.789 223.879 227.188C224.207 227.586 224.602 227.898 225.062 228.125C225.531 228.352 226.062 228.465 226.656 228.465C227.422 228.465 228.07 228.309 228.602 227.996C229.133 227.684 229.598 227.266 229.996 226.742L231.309 227.785C231.035 228.199 230.688 228.594 230.266 228.969C229.844 229.344 229.324 229.648 228.707 229.883C228.098 230.117 227.375 230.234 226.539 230.234ZM239.078 228.453C239.594 228.453 240.07 228.348 240.508 228.137C240.945 227.926 241.305 227.637 241.586 227.27C241.867 226.895 242.027 226.469 242.066 225.992H244.129C244.09 226.742 243.836 227.441 243.367 228.09C242.906 228.73 242.301 229.25 241.551 229.648C240.801 230.039 239.977 230.234 239.078 230.234C238.125 230.234 237.293 230.066 236.582 229.73C235.879 229.395 235.293 228.934 234.824 228.348C234.363 227.762 234.016 227.09 233.781 226.332C233.555 225.566 233.441 224.758 233.441 223.906V223.414C233.441 222.562 233.555 221.758 233.781 221C234.016 220.234 234.363 219.559 234.824 218.973C235.293 218.387 235.879 217.926 236.582 217.59C237.293 217.254 238.125 217.086 239.078 217.086C240.07 217.086 240.938 217.289 241.68 217.695C242.422 218.094 243.004 218.641 243.426 219.336C243.855 220.023 244.09 220.805 244.129 221.68H242.066C242.027 221.156 241.879 220.684 241.621 220.262C241.371 219.84 241.027 219.504 240.59 219.254C240.16 218.996 239.656 218.867 239.078 218.867C238.414 218.867 237.855 219 237.402 219.266C236.957 219.523 236.602 219.875 236.336 220.32C236.078 220.758 235.891 221.246 235.773 221.785C235.664 222.316 235.609 222.859 235.609 223.414V223.906C235.609 224.461 235.664 225.008 235.773 225.547C235.883 226.086 236.066 226.574 236.324 227.012C236.59 227.449 236.945 227.801 237.391 228.066C237.844 228.324 238.406 228.453 239.078 228.453ZM251.734 217.32V230H249.555V217.32H251.734ZM255.988 217.32V219.078H245.383V217.32H255.988ZM257.055 223.801V223.531C257.055 222.617 257.188 221.77 257.453 220.988C257.719 220.199 258.102 219.516 258.602 218.938C259.102 218.352 259.707 217.898 260.418 217.578C261.129 217.25 261.926 217.086 262.809 217.086C263.699 217.086 264.5 217.25 265.211 217.578C265.93 217.898 266.539 218.352 267.039 218.938C267.547 219.516 267.934 220.199 268.199 220.988C268.465 221.77 268.598 222.617 268.598 223.531V223.801C268.598 224.715 268.465 225.562 268.199 226.344C267.934 227.125 267.547 227.809 267.039 228.395C266.539 228.973 265.934 229.426 265.223 229.754C264.52 230.074 263.723 230.234 262.832 230.234C261.941 230.234 261.141 230.074 260.43 229.754C259.719 229.426 259.109 228.973 258.602 228.395C258.102 227.809 257.719 227.125 257.453 226.344C257.188 225.562 257.055 224.715 257.055 223.801ZM259.223 223.531V223.801C259.223 224.434 259.297 225.031 259.445 225.594C259.594 226.148 259.816 226.641 260.113 227.07C260.418 227.5 260.797 227.84 261.25 228.09C261.703 228.332 262.23 228.453 262.832 228.453C263.426 228.453 263.945 228.332 264.391 228.09C264.844 227.84 265.219 227.5 265.516 227.07C265.812 226.641 266.035 226.148 266.184 225.594C266.34 225.031 266.418 224.434 266.418 223.801V223.531C266.418 222.906 266.34 222.316 266.184 221.762C266.035 221.199 265.809 220.703 265.504 220.273C265.207 219.836 264.832 219.492 264.379 219.242C263.934 218.992 263.41 218.867 262.809 218.867C262.215 218.867 261.691 218.992 261.238 219.242C260.793 219.492 260.418 219.836 260.113 220.273C259.816 220.703 259.594 221.199 259.445 221.762C259.297 222.316 259.223 222.906 259.223 223.531ZM25.5742 249.422V248.941C25.5742 248.27 25.7852 247.715 26.207 247.277C26.6367 246.84 27.2188 246.621 27.9531 246.621C28.6953 246.621 29.2812 246.84 29.7109 247.277C30.1406 247.715 30.3555 248.27 30.3555 248.941V249.422C30.3555 250.086 30.1406 250.637 29.7109 251.074C29.2891 251.504 28.707 251.719 27.9648 251.719C27.2305 251.719 26.6484 251.504 26.2188 251.074C25.7891 250.637 25.5742 250.086 25.5742 249.422ZM61.1172 248.93V250.008C61.1172 251.289 60.957 252.438 60.6367 253.453C60.3164 254.469 59.8555 255.332 59.2539 256.043C58.6523 256.754 57.9297 257.297 57.0859 257.672C56.25 258.047 55.3125 258.234 54.2734 258.234C53.2656 258.234 52.3398 258.047 51.4961 257.672C50.6602 257.297 49.9336 256.754 49.3164 256.043C48.707 255.332 48.2344 254.469 47.8984 253.453C47.5625 252.438 47.3945 251.289 47.3945 250.008V248.93C47.3945 247.648 47.5586 246.504 47.8867 245.496C48.2227 244.48 48.6953 243.617 49.3047 242.906C49.9141 242.188 50.6367 241.641 51.4727 241.266C52.3164 240.891 53.2422 240.703 54.25 240.703C55.2891 240.703 56.2266 240.891 57.0625 241.266C57.9062 241.641 58.6289 242.188 59.2305 242.906C59.8398 243.617 60.3047 244.48 60.625 245.496C60.9531 246.504 61.1172 247.648 61.1172 248.93ZM58.8789 250.008V248.906C58.8789 247.891 58.7734 246.992 58.5625 246.211C58.3594 245.43 58.0586 244.773 57.6602 244.242C57.2617 243.711 56.7734 243.309 56.1953 243.035C55.625 242.762 54.9766 242.625 54.25 242.625C53.5469 242.625 52.9102 242.762 52.3398 243.035C51.7773 243.309 51.293 243.711 50.8867 244.242C50.4883 244.773 50.1797 245.43 49.9609 246.211C49.7422 246.992 49.6328 247.891 49.6328 248.906V250.008C49.6328 251.031 49.7422 251.938 49.9609 252.727C50.1797 253.508 50.4922 254.168 50.8984 254.707C51.3125 255.238 51.8008 255.641 52.3633 255.914C52.9336 256.188 53.5703 256.324 54.2734 256.324C55.0078 256.324 55.6602 256.188 56.2305 255.914C56.8008 255.641 57.2812 255.238 57.6719 254.707C58.0703 254.168 58.3711 253.508 58.5742 252.727C58.7773 251.938 58.8789 251.031 58.8789 250.008ZM66.3438 247.758V262.875H64.1641V245.32H66.1562L66.3438 247.758ZM74.8867 251.555V251.801C74.8867 252.723 74.7773 253.578 74.5586 254.367C74.3398 255.148 74.0195 255.828 73.5977 256.406C73.1836 256.984 72.6719 257.434 72.0625 257.754C71.4531 258.074 70.7539 258.234 69.9648 258.234C69.1602 258.234 68.4492 258.102 67.832 257.836C67.2148 257.57 66.6914 257.184 66.2617 256.676C65.832 256.168 65.4883 255.559 65.2305 254.848C64.9805 254.137 64.8086 253.336 64.7148 252.445V251.133C64.8086 250.195 64.9844 249.355 65.2422 248.613C65.5 247.871 65.8398 247.238 66.2617 246.715C66.6914 246.184 67.2109 245.781 67.8203 245.508C68.4297 245.227 69.1328 245.086 69.9297 245.086C70.7266 245.086 71.4336 245.242 72.0508 245.555C72.668 245.859 73.1875 246.297 73.6094 246.867C74.0312 247.438 74.3477 248.121 74.5586 248.918C74.7773 249.707 74.8867 250.586 74.8867 251.555ZM72.707 251.801V251.555C72.707 250.922 72.6406 250.328 72.5078 249.773C72.375 249.211 72.168 248.719 71.8867 248.297C71.6133 247.867 71.2617 247.531 70.832 247.289C70.4023 247.039 69.8906 246.914 69.2969 246.914C68.75 246.914 68.2734 247.008 67.8672 247.195C67.4688 247.383 67.1289 247.637 66.8477 247.957C66.5664 248.27 66.3359 248.629 66.1562 249.035C65.9844 249.434 65.8555 249.848 65.7695 250.277V253.312C65.9258 253.859 66.1445 254.375 66.4258 254.859C66.707 255.336 67.082 255.723 67.5508 256.02C68.0195 256.309 68.6094 256.453 69.3203 256.453C69.9062 256.453 70.4102 256.332 70.832 256.09C71.2617 255.84 71.6133 255.5 71.8867 255.07C72.168 254.641 72.375 254.148 72.5078 253.594C72.6406 253.031 72.707 252.434 72.707 251.801ZM79.9961 254.566L85.8438 245.32H88.0234V258H85.8438V248.754L79.9961 258H77.8398V245.32H79.9961V254.566ZM96.7656 258.234C95.8828 258.234 95.082 258.086 94.3633 257.789C93.6523 257.484 93.0391 257.059 92.5234 256.512C92.0156 255.965 91.625 255.316 91.3516 254.566C91.0781 253.816 90.9414 252.996 90.9414 252.105V251.613C90.9414 250.582 91.0938 249.664 91.3984 248.859C91.7031 248.047 92.1172 247.359 92.6406 246.797C93.1641 246.234 93.7578 245.809 94.4219 245.52C95.0859 245.23 95.7734 245.086 96.4844 245.086C97.3906 245.086 98.1719 245.242 98.8281 245.555C99.4922 245.867 100.035 246.305 100.457 246.867C100.879 247.422 101.191 248.078 101.395 248.836C101.598 249.586 101.699 250.406 101.699 251.297V252.27H92.2305V250.5H99.5312V250.336C99.5 249.773 99.3828 249.227 99.1797 248.695C98.9844 248.164 98.6719 247.727 98.2422 247.383C97.8125 247.039 97.2266 246.867 96.4844 246.867C95.9922 246.867 95.5391 246.973 95.125 247.184C94.7109 247.387 94.3555 247.691 94.0586 248.098C93.7617 248.504 93.5312 249 93.3672 249.586C93.2031 250.172 93.1211 250.848 93.1211 251.613V252.105C93.1211 252.707 93.2031 253.273 93.3672 253.805C93.5391 254.328 93.7852 254.789 94.1055 255.188C94.4336 255.586 94.8281 255.898 95.2891 256.125C95.7578 256.352 96.2891 256.465 96.8828 256.465C97.6484 256.465 98.2969 256.309 98.8281 255.996C99.3594 255.684 99.8242 255.266 100.223 254.742L101.535 255.785C101.262 256.199 100.914 256.594 100.492 256.969C100.07 257.344 99.5508 257.648 98.9336 257.883C98.3242 258.117 97.6016 258.234 96.7656 258.234ZM112.832 250.816V252.574H106.129V250.816H112.832ZM106.586 245.32V258H104.418V245.32H106.586ZM114.59 245.32V258H112.41V245.32H114.59ZM123.25 245.32V258H121.07V245.32H123.25ZM127.504 245.32V247.078H116.898V245.32H127.504ZM131.98 254.566L137.828 245.32H140.008V258H137.828V248.754L131.98 258H129.824V245.32H131.98V254.566ZM145.656 247.758V262.875H143.477V245.32H145.469L145.656 247.758ZM154.199 251.555V251.801C154.199 252.723 154.09 253.578 153.871 254.367C153.652 255.148 153.332 255.828 152.91 256.406C152.496 256.984 151.984 257.434 151.375 257.754C150.766 258.074 150.066 258.234 149.277 258.234C148.473 258.234 147.762 258.102 147.145 257.836C146.527 257.57 146.004 257.184 145.574 256.676C145.145 256.168 144.801 255.559 144.543 254.848C144.293 254.137 144.121 253.336 144.027 252.445V251.133C144.121 250.195 144.297 249.355 144.555 248.613C144.812 247.871 145.152 247.238 145.574 246.715C146.004 246.184 146.523 245.781 147.133 245.508C147.742 245.227 148.445 245.086 149.242 245.086C150.039 245.086 150.746 245.242 151.363 245.555C151.98 245.859 152.5 246.297 152.922 246.867C153.344 247.438 153.66 248.121 153.871 248.918C154.09 249.707 154.199 250.586 154.199 251.555ZM152.02 251.801V251.555C152.02 250.922 151.953 250.328 151.82 249.773C151.688 249.211 151.48 248.719 151.199 248.297C150.926 247.867 150.574 247.531 150.145 247.289C149.715 247.039 149.203 246.914 148.609 246.914C148.062 246.914 147.586 247.008 147.18 247.195C146.781 247.383 146.441 247.637 146.16 247.957C145.879 248.27 145.648 248.629 145.469 249.035C145.297 249.434 145.168 249.848 145.082 250.277V253.312C145.238 253.859 145.457 254.375 145.738 254.859C146.02 255.336 146.395 255.723 146.863 256.02C147.332 256.309 147.922 256.453 148.633 256.453C149.219 256.453 149.723 256.332 150.145 256.09C150.574 255.84 150.926 255.5 151.199 255.07C151.48 254.641 151.688 254.148 151.82 253.594C151.953 253.031 152.02 252.434 152.02 251.801ZM171.52 250.816V252.574H164.816V250.816H171.52ZM165.273 245.32V258H163.105V245.32H165.273ZM173.277 245.32V258H171.098V245.32H173.277ZM184.246 255.832V249.305C184.246 248.805 184.145 248.371 183.941 248.004C183.746 247.629 183.449 247.34 183.051 247.137C182.652 246.934 182.16 246.832 181.574 246.832C181.027 246.832 180.547 246.926 180.133 247.113C179.727 247.301 179.406 247.547 179.172 247.852C178.945 248.156 178.832 248.484 178.832 248.836H176.664C176.664 248.383 176.781 247.934 177.016 247.488C177.25 247.043 177.586 246.641 178.023 246.281C178.469 245.914 179 245.625 179.617 245.414C180.242 245.195 180.938 245.086 181.703 245.086C182.625 245.086 183.438 245.242 184.141 245.555C184.852 245.867 185.406 246.34 185.805 246.973C186.211 247.598 186.414 248.383 186.414 249.328V255.234C186.414 255.656 186.449 256.105 186.52 256.582C186.598 257.059 186.711 257.469 186.859 257.812V258H184.598C184.488 257.75 184.402 257.418 184.34 257.004C184.277 256.582 184.246 256.191 184.246 255.832ZM184.621 250.312L184.645 251.836H182.453C181.836 251.836 181.285 251.887 180.801 251.988C180.316 252.082 179.91 252.227 179.582 252.422C179.254 252.617 179.004 252.863 178.832 253.16C178.66 253.449 178.574 253.789 178.574 254.18C178.574 254.578 178.664 254.941 178.844 255.27C179.023 255.598 179.293 255.859 179.652 256.055C180.02 256.242 180.469 256.336 181 256.336C181.664 256.336 182.25 256.195 182.758 255.914C183.266 255.633 183.668 255.289 183.965 254.883C184.27 254.477 184.434 254.082 184.457 253.699L185.383 254.742C185.328 255.07 185.18 255.434 184.938 255.832C184.695 256.23 184.371 256.613 183.965 256.98C183.566 257.34 183.09 257.641 182.535 257.883C181.988 258.117 181.371 258.234 180.684 258.234C179.824 258.234 179.07 258.066 178.422 257.73C177.781 257.395 177.281 256.945 176.922 256.383C176.57 255.812 176.395 255.176 176.395 254.473C176.395 253.793 176.527 253.195 176.793 252.68C177.059 252.156 177.441 251.723 177.941 251.379C178.441 251.027 179.043 250.762 179.746 250.582C180.449 250.402 181.234 250.312 182.102 250.312H184.621ZM198.133 245.32V258H195.965V245.32H198.133ZM206.453 245.32L200.441 252.586H197.406L197.078 250.688H199.562L203.816 245.32H206.453ZM204.121 258L199.457 252.258L200.852 250.688L206.875 258H204.121ZM207.93 251.801V251.531C207.93 250.617 208.062 249.77 208.328 248.988C208.594 248.199 208.977 247.516 209.477 246.938C209.977 246.352 210.582 245.898 211.293 245.578C212.004 245.25 212.801 245.086 213.684 245.086C214.574 245.086 215.375 245.25 216.086 245.578C216.805 245.898 217.414 246.352 217.914 246.938C218.422 247.516 218.809 248.199 219.074 248.988C219.34 249.77 219.473 250.617 219.473 251.531V251.801C219.473 252.715 219.34 253.562 219.074 254.344C218.809 255.125 218.422 255.809 217.914 256.395C217.414 256.973 216.809 257.426 216.098 257.754C215.395 258.074 214.598 258.234 213.707 258.234C212.816 258.234 212.016 258.074 211.305 257.754C210.594 257.426 209.984 256.973 209.477 256.395C208.977 255.809 208.594 255.125 208.328 254.344C208.062 253.562 207.93 252.715 207.93 251.801ZM210.098 251.531V251.801C210.098 252.434 210.172 253.031 210.32 253.594C210.469 254.148 210.691 254.641 210.988 255.07C211.293 255.5 211.672 255.84 212.125 256.09C212.578 256.332 213.105 256.453 213.707 256.453C214.301 256.453 214.82 256.332 215.266 256.09C215.719 255.84 216.094 255.5 216.391 255.07C216.688 254.641 216.91 254.148 217.059 253.594C217.215 253.031 217.293 252.434 217.293 251.801V251.531C217.293 250.906 217.215 250.316 217.059 249.762C216.91 249.199 216.684 248.703 216.379 248.273C216.082 247.836 215.707 247.492 215.254 247.242C214.809 246.992 214.285 246.867 213.684 246.867C213.09 246.867 212.566 246.992 212.113 247.242C211.668 247.492 211.293 247.836 210.988 248.273C210.691 248.703 210.469 249.199 210.32 249.762C210.172 250.316 210.098 250.906 210.098 251.531ZM229.48 255.117L233.793 245.32H235.879L230.23 258H228.73L223.105 245.32H225.191L229.48 255.117ZM224.559 245.32V258H222.391V245.32H224.559ZM234.332 258V245.32H236.512V258H234.332ZM247.48 255.832V249.305C247.48 248.805 247.379 248.371 247.176 248.004C246.98 247.629 246.684 247.34 246.285 247.137C245.887 246.934 245.395 246.832 244.809 246.832C244.262 246.832 243.781 246.926 243.367 247.113C242.961 247.301 242.641 247.547 242.406 247.852C242.18 248.156 242.066 248.484 242.066 248.836H239.898C239.898 248.383 240.016 247.934 240.25 247.488C240.484 247.043 240.82 246.641 241.258 246.281C241.703 245.914 242.234 245.625 242.852 245.414C243.477 245.195 244.172 245.086 244.938 245.086C245.859 245.086 246.672 245.242 247.375 245.555C248.086 245.867 248.641 246.34 249.039 246.973C249.445 247.598 249.648 248.383 249.648 249.328V255.234C249.648 255.656 249.684 256.105 249.754 256.582C249.832 257.059 249.945 257.469 250.094 257.812V258H247.832C247.723 257.75 247.637 257.418 247.574 257.004C247.512 256.582 247.48 256.191 247.48 255.832ZM247.855 250.312L247.879 251.836H245.688C245.07 251.836 244.52 251.887 244.035 251.988C243.551 252.082 243.145 252.227 242.816 252.422C242.488 252.617 242.238 252.863 242.066 253.16C241.895 253.449 241.809 253.789 241.809 254.18C241.809 254.578 241.898 254.941 242.078 255.27C242.258 255.598 242.527 255.859 242.887 256.055C243.254 256.242 243.703 256.336 244.234 256.336C244.898 256.336 245.484 256.195 245.992 255.914C246.5 255.633 246.902 255.289 247.199 254.883C247.504 254.477 247.668 254.082 247.691 253.699L248.617 254.742C248.562 255.07 248.414 255.434 248.172 255.832C247.93 256.23 247.605 256.613 247.199 256.98C246.801 257.34 246.324 257.641 245.77 257.883C245.223 258.117 244.605 258.234 243.918 258.234C243.059 258.234 242.305 258.066 241.656 257.73C241.016 257.395 240.516 256.945 240.156 256.383C239.805 255.812 239.629 255.176 239.629 254.473C239.629 253.793 239.762 253.195 240.027 252.68C240.293 252.156 240.676 251.723 241.176 251.379C241.676 251.027 242.277 250.762 242.98 250.582C243.684 250.402 244.469 250.312 245.336 250.312H247.855ZM261.66 250.816V252.574H254.957V250.816H261.66ZM255.414 245.32V258H253.246V245.32H255.414ZM263.418 245.32V258H261.238V245.32H263.418ZM269.195 245.32H271.363L271.176 250.066C271.129 251.27 270.992 252.309 270.766 253.184C270.539 254.059 270.25 254.805 269.898 255.422C269.547 256.031 269.152 256.543 268.715 256.957C268.285 257.371 267.84 257.719 267.379 258H266.301L266.359 256.23L266.805 256.219C267.062 255.914 267.312 255.602 267.555 255.281C267.797 254.953 268.02 254.566 268.223 254.121C268.426 253.668 268.594 253.117 268.727 252.469C268.867 251.812 268.957 251.012 268.996 250.066L269.195 245.32ZM269.734 245.32H277.363V258H275.195V247.324H269.734V245.32ZM265.809 256.219H278.992V261.738H276.824V258H267.977V261.738H265.797L265.809 256.219ZM289.996 250.816V252.574H283.293V250.816H289.996ZM283.75 245.32V258H281.582V245.32H283.75ZM291.754 245.32V258H289.574V245.32H291.754ZM294.672 251.801V251.531C294.672 250.617 294.805 249.77 295.07 248.988C295.336 248.199 295.719 247.516 296.219 246.938C296.719 246.352 297.324 245.898 298.035 245.578C298.746 245.25 299.543 245.086 300.426 245.086C301.316 245.086 302.117 245.25 302.828 245.578C303.547 245.898 304.156 246.352 304.656 246.938C305.164 247.516 305.551 248.199 305.816 248.988C306.082 249.77 306.215 250.617 306.215 251.531V251.801C306.215 252.715 306.082 253.562 305.816 254.344C305.551 255.125 305.164 255.809 304.656 256.395C304.156 256.973 303.551 257.426 302.84 257.754C302.137 258.074 301.34 258.234 300.449 258.234C299.559 258.234 298.758 258.074 298.047 257.754C297.336 257.426 296.727 256.973 296.219 256.395C295.719 255.809 295.336 255.125 295.07 254.344C294.805 253.562 294.672 252.715 294.672 251.801ZM296.84 251.531V251.801C296.84 252.434 296.914 253.031 297.062 253.594C297.211 254.148 297.434 254.641 297.73 255.07C298.035 255.5 298.414 255.84 298.867 256.09C299.32 256.332 299.848 256.453 300.449 256.453C301.043 256.453 301.562 256.332 302.008 256.09C302.461 255.84 302.836 255.5 303.133 255.07C303.43 254.641 303.652 254.148 303.801 253.594C303.957 253.031 304.035 252.434 304.035 251.801V251.531C304.035 250.906 303.957 250.316 303.801 249.762C303.652 249.199 303.426 248.703 303.121 248.273C302.824 247.836 302.449 247.492 301.996 247.242C301.551 246.992 301.027 246.867 300.426 246.867C299.832 246.867 299.309 246.992 298.855 247.242C298.41 247.492 298.035 247.836 297.73 248.273C297.434 248.703 297.211 249.199 297.062 249.762C296.914 250.316 296.84 250.906 296.84 251.531ZM314.195 258.234C313.312 258.234 312.512 258.086 311.793 257.789C311.082 257.484 310.469 257.059 309.953 256.512C309.445 255.965 309.055 255.316 308.781 254.566C308.508 253.816 308.371 252.996 308.371 252.105V251.613C308.371 250.582 308.523 249.664 308.828 248.859C309.133 248.047 309.547 247.359 310.07 246.797C310.594 246.234 311.188 245.809 311.852 245.52C312.516 245.23 313.203 245.086 313.914 245.086C314.82 245.086 315.602 245.242 316.258 245.555C316.922 245.867 317.465 246.305 317.887 246.867C318.309 247.422 318.621 248.078 318.824 248.836C319.027 249.586 319.129 250.406 319.129 251.297V252.27H309.66V250.5H316.961V250.336C316.93 249.773 316.812 249.227 316.609 248.695C316.414 248.164 316.102 247.727 315.672 247.383C315.242 247.039 314.656 246.867 313.914 246.867C313.422 246.867 312.969 246.973 312.555 247.184C312.141 247.387 311.785 247.691 311.488 248.098C311.191 248.504 310.961 249 310.797 249.586C310.633 250.172 310.551 250.848 310.551 251.613V252.105C310.551 252.707 310.633 253.273 310.797 253.805C310.969 254.328 311.215 254.789 311.535 255.188C311.863 255.586 312.258 255.898 312.719 256.125C313.188 256.352 313.719 256.465 314.312 256.465C315.078 256.465 315.727 256.309 316.258 255.996C316.789 255.684 317.254 255.266 317.652 254.742L318.965 255.785C318.691 256.199 318.344 256.594 317.922 256.969C317.5 257.344 316.98 257.648 316.363 257.883C315.754 258.117 315.031 258.234 314.195 258.234ZM56.1016 273.32V275.113H49.6914V273.32H56.1016ZM50.0078 273.32V286H47.8398V273.32H50.0078ZM58.0234 273.32V286H55.8438V273.32H58.0234ZM69.9766 273.32V275.113H63.8477V273.32H69.9766ZM71.8867 273.32V286H69.7188V273.32H71.8867ZM63.3203 273.32H65.5L65.1719 279.438C65.1172 280.383 65.0273 281.219 64.9023 281.945C64.7852 282.664 64.6211 283.281 64.4102 283.797C64.207 284.312 63.9492 284.734 63.6367 285.062C63.332 285.383 62.9648 285.621 62.5352 285.777C62.1055 285.926 61.6094 286 61.0469 286H60.3672V284.09L60.8359 284.055C61.1719 284.031 61.457 283.953 61.6914 283.82C61.9336 283.688 62.1367 283.492 62.3008 283.234C62.4648 282.969 62.5977 282.629 62.6992 282.215C62.8086 281.801 62.8906 281.309 62.9453 280.738C63.0078 280.168 63.0547 279.504 63.0859 278.746L63.3203 273.32ZM82.8555 283.832V277.305C82.8555 276.805 82.7539 276.371 82.5508 276.004C82.3555 275.629 82.0586 275.34 81.6602 275.137C81.2617 274.934 80.7695 274.832 80.1836 274.832C79.6367 274.832 79.1562 274.926 78.7422 275.113C78.3359 275.301 78.0156 275.547 77.7812 275.852C77.5547 276.156 77.4414 276.484 77.4414 276.836H75.2734C75.2734 276.383 75.3906 275.934 75.625 275.488C75.8594 275.043 76.1953 274.641 76.6328 274.281C77.0781 273.914 77.6094 273.625 78.2266 273.414C78.8516 273.195 79.5469 273.086 80.3125 273.086C81.2344 273.086 82.0469 273.242 82.75 273.555C83.4609 273.867 84.0156 274.34 84.4141 274.973C84.8203 275.598 85.0234 276.383 85.0234 277.328V283.234C85.0234 283.656 85.0586 284.105 85.1289 284.582C85.207 285.059 85.3203 285.469 85.4688 285.812V286H83.207C83.0977 285.75 83.0117 285.418 82.9492 285.004C82.8867 284.582 82.8555 284.191 82.8555 283.832ZM83.2305 278.312L83.2539 279.836H81.0625C80.4453 279.836 79.8945 279.887 79.4102 279.988C78.9258 280.082 78.5195 280.227 78.1914 280.422C77.8633 280.617 77.6133 280.863 77.4414 281.16C77.2695 281.449 77.1836 281.789 77.1836 282.18C77.1836 282.578 77.2734 282.941 77.4531 283.27C77.6328 283.598 77.9023 283.859 78.2617 284.055C78.6289 284.242 79.0781 284.336 79.6094 284.336C80.2734 284.336 80.8594 284.195 81.3672 283.914C81.875 283.633 82.2773 283.289 82.5742 282.883C82.8789 282.477 83.043 282.082 83.0664 281.699L83.9922 282.742C83.9375 283.07 83.7891 283.434 83.5469 283.832C83.3047 284.23 82.9805 284.613 82.5742 284.98C82.1758 285.34 81.6992 285.641 81.1445 285.883C80.5977 286.117 79.9805 286.234 79.293 286.234C78.4336 286.234 77.6797 286.066 77.0312 285.73C76.3906 285.395 75.8906 284.945 75.5312 284.383C75.1797 283.812 75.0039 283.176 75.0039 282.473C75.0039 281.793 75.1367 281.195 75.4023 280.68C75.668 280.156 76.0508 279.723 76.5508 279.379C77.0508 279.027 77.6523 278.762 78.3555 278.582C79.0586 278.402 79.8438 278.312 80.7109 278.312H83.2305ZM97.0352 278.816V280.574H90.332V278.816H97.0352ZM90.7891 273.32V286H88.6211V273.32H90.7891ZM98.793 273.32V286H96.6133V273.32H98.793ZM104.629 282.566L110.477 273.32H112.656V286H110.477V276.754L104.629 286H102.473V273.32H104.629V282.566ZM118.305 275.758V290.875H116.125V273.32H118.117L118.305 275.758ZM126.848 279.555V279.801C126.848 280.723 126.738 281.578 126.52 282.367C126.301 283.148 125.98 283.828 125.559 284.406C125.145 284.984 124.633 285.434 124.023 285.754C123.414 286.074 122.715 286.234 121.926 286.234C121.121 286.234 120.41 286.102 119.793 285.836C119.176 285.57 118.652 285.184 118.223 284.676C117.793 284.168 117.449 283.559 117.191 282.848C116.941 282.137 116.77 281.336 116.676 280.445V279.133C116.77 278.195 116.945 277.355 117.203 276.613C117.461 275.871 117.801 275.238 118.223 274.715C118.652 274.184 119.172 273.781 119.781 273.508C120.391 273.227 121.094 273.086 121.891 273.086C122.688 273.086 123.395 273.242 124.012 273.555C124.629 273.859 125.148 274.297 125.57 274.867C125.992 275.438 126.309 276.121 126.52 276.918C126.738 277.707 126.848 278.586 126.848 279.555ZM124.668 279.801V279.555C124.668 278.922 124.602 278.328 124.469 277.773C124.336 277.211 124.129 276.719 123.848 276.297C123.574 275.867 123.223 275.531 122.793 275.289C122.363 275.039 121.852 274.914 121.258 274.914C120.711 274.914 120.234 275.008 119.828 275.195C119.43 275.383 119.09 275.637 118.809 275.957C118.527 276.27 118.297 276.629 118.117 277.035C117.945 277.434 117.816 277.848 117.73 278.277V281.312C117.887 281.859 118.105 282.375 118.387 282.859C118.668 283.336 119.043 283.723 119.512 284.02C119.98 284.309 120.57 284.453 121.281 284.453C121.867 284.453 122.371 284.332 122.793 284.09C123.223 283.84 123.574 283.5 123.848 283.07C124.129 282.641 124.336 282.148 124.469 281.594C124.602 281.031 124.668 280.434 124.668 279.801ZM129.039 279.801V279.531C129.039 278.617 129.172 277.77 129.438 276.988C129.703 276.199 130.086 275.516 130.586 274.938C131.086 274.352 131.691 273.898 132.402 273.578C133.113 273.25 133.91 273.086 134.793 273.086C135.684 273.086 136.484 273.25 137.195 273.578C137.914 273.898 138.523 274.352 139.023 274.938C139.531 275.516 139.918 276.199 140.184 276.988C140.449 277.77 140.582 278.617 140.582 279.531V279.801C140.582 280.715 140.449 281.562 140.184 282.344C139.918 283.125 139.531 283.809 139.023 284.395C138.523 284.973 137.918 285.426 137.207 285.754C136.504 286.074 135.707 286.234 134.816 286.234C133.926 286.234 133.125 286.074 132.414 285.754C131.703 285.426 131.094 284.973 130.586 284.395C130.086 283.809 129.703 283.125 129.438 282.344C129.172 281.562 129.039 280.715 129.039 279.801ZM131.207 279.531V279.801C131.207 280.434 131.281 281.031 131.43 281.594C131.578 282.148 131.801 282.641 132.098 283.07C132.402 283.5 132.781 283.84 133.234 284.09C133.688 284.332 134.215 284.453 134.816 284.453C135.41 284.453 135.93 284.332 136.375 284.09C136.828 283.84 137.203 283.5 137.5 283.07C137.797 282.641 138.02 282.148 138.168 281.594C138.324 281.031 138.402 280.434 138.402 279.801V279.531C138.402 278.906 138.324 278.316 138.168 277.762C138.02 277.199 137.793 276.703 137.488 276.273C137.191 275.836 136.816 275.492 136.363 275.242C135.918 274.992 135.395 274.867 134.793 274.867C134.199 274.867 133.676 274.992 133.223 275.242C132.777 275.492 132.402 275.836 132.098 276.273C131.801 276.703 131.578 277.199 131.43 277.762C131.281 278.316 131.207 278.906 131.207 279.531ZM149.254 280.422H145.094L145.07 278.688H148.469C149.141 278.688 149.699 278.621 150.145 278.488C150.598 278.355 150.938 278.156 151.164 277.891C151.391 277.625 151.504 277.297 151.504 276.906C151.504 276.602 151.438 276.336 151.305 276.109C151.18 275.875 150.988 275.684 150.73 275.535C150.473 275.379 150.152 275.266 149.77 275.195C149.395 275.117 148.953 275.078 148.445 275.078H145.668V286H143.5V273.32H148.445C149.25 273.32 149.973 273.391 150.613 273.531C151.262 273.672 151.812 273.887 152.266 274.176C152.727 274.457 153.078 274.816 153.32 275.254C153.562 275.691 153.684 276.207 153.684 276.801C153.684 277.184 153.605 277.547 153.449 277.891C153.293 278.234 153.062 278.539 152.758 278.805C152.453 279.07 152.078 279.289 151.633 279.461C151.188 279.625 150.676 279.73 150.098 279.777L149.254 280.422ZM149.254 286H144.309L145.387 284.242H149.254C149.855 284.242 150.355 284.168 150.754 284.02C151.152 283.863 151.449 283.645 151.645 283.363C151.848 283.074 151.949 282.73 151.949 282.332C151.949 281.934 151.848 281.594 151.645 281.312C151.449 281.023 151.152 280.805 150.754 280.656C150.355 280.5 149.855 280.422 149.254 280.422H145.961L145.984 278.688H150.098L150.883 279.344C151.578 279.398 152.168 279.57 152.652 279.859C153.137 280.148 153.504 280.516 153.754 280.961C154.004 281.398 154.129 281.875 154.129 282.391C154.129 282.984 154.016 283.508 153.789 283.961C153.57 284.414 153.25 284.793 152.828 285.098C152.406 285.395 151.895 285.621 151.293 285.777C150.691 285.926 150.012 286 149.254 286ZM164.512 283.832V277.305C164.512 276.805 164.41 276.371 164.207 276.004C164.012 275.629 163.715 275.34 163.316 275.137C162.918 274.934 162.426 274.832 161.84 274.832C161.293 274.832 160.812 274.926 160.398 275.113C159.992 275.301 159.672 275.547 159.438 275.852C159.211 276.156 159.098 276.484 159.098 276.836H156.93C156.93 276.383 157.047 275.934 157.281 275.488C157.516 275.043 157.852 274.641 158.289 274.281C158.734 273.914 159.266 273.625 159.883 273.414C160.508 273.195 161.203 273.086 161.969 273.086C162.891 273.086 163.703 273.242 164.406 273.555C165.117 273.867 165.672 274.34 166.07 274.973C166.477 275.598 166.68 276.383 166.68 277.328V283.234C166.68 283.656 166.715 284.105 166.785 284.582C166.863 285.059 166.977 285.469 167.125 285.812V286H164.863C164.754 285.75 164.668 285.418 164.605 285.004C164.543 284.582 164.512 284.191 164.512 283.832ZM164.887 278.312L164.91 279.836H162.719C162.102 279.836 161.551 279.887 161.066 279.988C160.582 280.082 160.176 280.227 159.848 280.422C159.52 280.617 159.27 280.863 159.098 281.16C158.926 281.449 158.84 281.789 158.84 282.18C158.84 282.578 158.93 282.941 159.109 283.27C159.289 283.598 159.559 283.859 159.918 284.055C160.285 284.242 160.734 284.336 161.266 284.336C161.93 284.336 162.516 284.195 163.023 283.914C163.531 283.633 163.934 283.289 164.23 282.883C164.535 282.477 164.699 282.082 164.723 281.699L165.648 282.742C165.594 283.07 165.445 283.434 165.203 283.832C164.961 284.23 164.637 284.613 164.23 284.98C163.832 285.34 163.355 285.641 162.801 285.883C162.254 286.117 161.637 286.234 160.949 286.234C160.09 286.234 159.336 286.066 158.688 285.73C158.047 285.395 157.547 284.945 157.188 284.383C156.836 283.812 156.66 283.176 156.66 282.473C156.66 281.793 156.793 281.195 157.059 280.68C157.324 280.156 157.707 279.723 158.207 279.379C158.707 279.027 159.309 278.762 160.012 278.582C160.715 278.402 161.5 278.312 162.367 278.312H164.887ZM178.691 278.816V280.574H171.988V278.816H178.691ZM172.445 273.32V286H170.277V273.32H172.445ZM180.449 273.32V286H178.27V273.32H180.449ZM186.285 282.566L192.133 273.32H194.312V286H192.133V276.754L186.285 286H184.129V273.32H186.285V282.566ZM203.055 286.234C202.172 286.234 201.371 286.086 200.652 285.789C199.941 285.484 199.328 285.059 198.812 284.512C198.305 283.965 197.914 283.316 197.641 282.566C197.367 281.816 197.23 280.996 197.23 280.105V279.613C197.23 278.582 197.383 277.664 197.688 276.859C197.992 276.047 198.406 275.359 198.93 274.797C199.453 274.234 200.047 273.809 200.711 273.52C201.375 273.23 202.062 273.086 202.773 273.086C203.68 273.086 204.461 273.242 205.117 273.555C205.781 273.867 206.324 274.305 206.746 274.867C207.168 275.422 207.48 276.078 207.684 276.836C207.887 277.586 207.988 278.406 207.988 279.297V280.27H198.52V278.5H205.82V278.336C205.789 277.773 205.672 277.227 205.469 276.695C205.273 276.164 204.961 275.727 204.531 275.383C204.102 275.039 203.516 274.867 202.773 274.867C202.281 274.867 201.828 274.973 201.414 275.184C201 275.387 200.645 275.691 200.348 276.098C200.051 276.504 199.82 277 199.656 277.586C199.492 278.172 199.41 278.848 199.41 279.613V280.105C199.41 280.707 199.492 281.273 199.656 281.805C199.828 282.328 200.074 282.789 200.395 283.188C200.723 283.586 201.117 283.898 201.578 284.125C202.047 284.352 202.578 284.465 203.172 284.465C203.938 284.465 204.586 284.309 205.117 283.996C205.648 283.684 206.113 283.266 206.512 282.742L207.824 283.785C207.551 284.199 207.203 284.594 206.781 284.969C206.359 285.344 205.84 285.648 205.223 285.883C204.613 286.117 203.891 286.234 203.055 286.234Z" fill="black"/>
</g>
<defs>
<clipPath id="clip0_232_83">
<rect width="480" height="420" fill="white"/>
</clipPath>
</defs>
</svg>
