<svg width="60" height="60" viewBox="0 0 60 60" fill="none" xmlns="http://www.w3.org/2000/svg">
<path d="M55 55H5M5 27.5L25.315 11.25C26.6448 10.1862 28.2971 9.60669 30 9.60669C31.7029 9.60669 33.3552 10.1862 34.685 11.25L55 27.5M38.75 13.75V8.75C38.75 8.41848 38.8817 8.10054 39.1161 7.86612C39.3505 7.6317 39.6685 7.5 40 7.5H46.25C46.5815 7.5 46.8995 7.6317 47.1339 7.86612C47.3683 8.10054 47.5 8.41848 47.5 8.75V21.25M10 55V23.75M50 55V23.75" stroke="white" stroke-width="1.875" stroke-linecap="round"/>
<path d="M37.5 55V42.5C37.5 38.965 37.5 37.1975 36.4 36.1C35.305 35 33.5375 35 30 35C26.4625 35 24.6975 35 23.6 36.1C22.5 37.195 22.5 38.9625 22.5 42.5V55M35 23.75C35 25.0761 34.4732 26.3479 33.5355 27.2855C32.5979 28.2232 31.3261 28.75 30 28.75C28.6739 28.75 27.4021 28.2232 26.4645 27.2855C25.5268 26.3479 25 25.0761 25 23.75C25 22.4239 25.5268 21.1521 26.4645 20.2145C27.4021 19.2768 28.6739 18.75 30 18.75C31.3261 18.75 32.5979 19.2768 33.5355 20.2145C34.4732 21.1521 35 22.4239 35 23.75Z" stroke="white" stroke-width="1.875"/>
</svg>
