<svg width="480" height="420" viewBox="0 0 480 420" fill="none" xmlns="http://www.w3.org/2000/svg">
<g clip-path="url(#clip0_233_106)">
<rect width="480" height="420" fill="white"/>
<rect x="0.5" y="0.5" width="479" height="419" fill="white"/>
<rect x="0.5" y="0.5" width="479" height="419" stroke="white"/>
<path d="M19.2578 42.0078H22.8672C24.0234 42.0078 24.9766 41.8125 25.7266 41.4219C26.4766 41.0156 27.0312 40.4531 27.3906 39.7344C27.7656 39 27.9531 38.1484 27.9531 37.1797C27.9531 36.3047 27.7812 35.5312 27.4375 34.8594C27.1094 34.1719 26.6016 33.6406 25.9141 33.2656C25.2266 32.875 24.3594 32.6797 23.3125 32.6797C22.4844 32.6797 21.7188 32.8438 21.0156 33.1719C20.3125 33.5 19.75 33.9609 19.3281 34.5547C18.9062 35.1484 18.6953 35.8672 18.6953 36.7109H11.9219C11.9219 34.8359 12.4219 33.2031 13.4219 31.8125C14.4375 30.4219 15.7969 29.3359 17.5 28.5547C19.2031 27.7734 21.0781 27.3828 23.125 27.3828C25.4375 27.3828 27.4609 27.7578 29.1953 28.5078C30.9297 29.2422 32.2812 30.3281 33.25 31.7656C34.2188 33.2031 34.7031 34.9844 34.7031 37.1094C34.7031 38.1875 34.4531 39.2344 33.9531 40.25C33.4531 41.25 32.7344 42.1562 31.7969 42.9688C30.875 43.7656 29.75 44.4062 28.4219 44.8906C27.0938 45.3594 25.6016 45.5938 23.9453 45.5938H19.2578V42.0078ZM19.2578 47.1406V43.6484H23.9453C25.8047 43.6484 27.4375 43.8594 28.8438 44.2812C30.25 44.7031 31.4297 45.3125 32.3828 46.1094C33.3359 46.8906 34.0547 47.8203 34.5391 48.8984C35.0234 49.9609 35.2656 51.1406 35.2656 52.4375C35.2656 54.0312 34.9609 55.4531 34.3516 56.7031C33.7422 57.9375 32.8828 58.9844 31.7734 59.8438C30.6797 60.7031 29.3984 61.3594 27.9297 61.8125C26.4609 62.25 24.8594 62.4688 23.125 62.4688C21.6875 62.4688 20.2734 62.2734 18.8828 61.8828C17.5078 61.4766 16.2578 60.875 15.1328 60.0781C14.0234 59.2656 13.1328 58.25 12.4609 57.0312C11.8047 55.7969 11.4766 54.3359 11.4766 52.6484H18.25C18.25 53.5234 18.4688 54.3047 18.9062 54.9922C19.3438 55.6797 19.9453 56.2188 20.7109 56.6094C21.4922 57 22.3594 57.1953 23.3125 57.1953C24.3906 57.1953 25.3125 57 26.0781 56.6094C26.8594 56.2031 27.4531 55.6406 27.8594 54.9219C28.2812 54.1875 28.4922 53.3359 28.4922 52.3672C28.4922 51.1172 28.2656 50.1172 27.8125 49.3672C27.3594 48.6016 26.7109 48.0391 25.8672 47.6797C25.0234 47.3203 24.0234 47.1406 22.8672 47.1406H19.2578ZM46.8203 42.0078H50.4297C51.5859 42.0078 52.5391 41.8125 53.2891 41.4219C54.0391 41.0156 54.5938 40.4531 54.9531 39.7344C55.3281 39 55.5156 38.1484 55.5156 37.1797C55.5156 36.3047 55.3438 35.5312 55 34.8594C54.6719 34.1719 54.1641 33.6406 53.4766 33.2656C52.7891 32.875 51.9219 32.6797 50.875 32.6797C50.0469 32.6797 49.2812 32.8438 48.5781 33.1719C47.875 33.5 47.3125 33.9609 46.8906 34.5547C46.4688 35.1484 46.2578 35.8672 46.2578 36.7109H39.4844C39.4844 34.8359 39.9844 33.2031 40.9844 31.8125C42 30.4219 43.3594 29.3359 45.0625 28.5547C46.7656 27.7734 48.6406 27.3828 50.6875 27.3828C53 27.3828 55.0234 27.7578 56.7578 28.5078C58.4922 29.2422 59.8438 30.3281 60.8125 31.7656C61.7812 33.2031 62.2656 34.9844 62.2656 37.1094C62.2656 38.1875 62.0156 39.2344 61.5156 40.25C61.0156 41.25 60.2969 42.1562 59.3594 42.9688C58.4375 43.7656 57.3125 44.4062 55.9844 44.8906C54.6562 45.3594 53.1641 45.5938 51.5078 45.5938H46.8203V42.0078ZM46.8203 47.1406V43.6484H51.5078C53.3672 43.6484 55 43.8594 56.4062 44.2812C57.8125 44.7031 58.9922 45.3125 59.9453 46.1094C60.8984 46.8906 61.6172 47.8203 62.1016 48.8984C62.5859 49.9609 62.8281 51.1406 62.8281 52.4375C62.8281 54.0312 62.5234 55.4531 61.9141 56.7031C61.3047 57.9375 60.4453 58.9844 59.3359 59.8438C58.2422 60.7031 56.9609 61.3594 55.4922 61.8125C54.0234 62.25 52.4219 62.4688 50.6875 62.4688C49.25 62.4688 47.8359 62.2734 46.4453 61.8828C45.0703 61.4766 43.8203 60.875 42.6953 60.0781C41.5859 59.2656 40.6953 58.25 40.0234 57.0312C39.3672 55.7969 39.0391 54.3359 39.0391 52.6484H45.8125C45.8125 53.5234 46.0312 54.3047 46.4688 54.9922C46.9062 55.6797 47.5078 56.2188 48.2734 56.6094C49.0547 57 49.9219 57.1953 50.875 57.1953C51.9531 57.1953 52.875 57 53.6406 56.6094C54.4219 56.2031 55.0156 55.6406 55.4219 54.9219C55.8438 54.1875 56.0547 53.3359 56.0547 52.3672C56.0547 51.1172 55.8281 50.1172 55.375 49.3672C54.9219 48.6016 54.2734 48.0391 53.4297 47.6797C52.5859 47.3203 51.5859 47.1406 50.4297 47.1406H46.8203ZM90.4375 41.9375V47.8438C90.4375 50.4062 90.1641 52.6172 89.6172 54.4766C89.0703 56.3203 88.2812 57.8359 87.25 59.0234C86.2344 60.1953 85.0234 61.0625 83.6172 61.625C82.2109 62.1875 80.6484 62.4688 78.9297 62.4688C77.5547 62.4688 76.2734 62.2969 75.0859 61.9531C73.8984 61.5938 72.8281 61.0391 71.875 60.2891C70.9375 59.5391 70.125 58.5938 69.4375 57.4531C68.7656 56.2969 68.25 54.9219 67.8906 53.3281C67.5312 51.7344 67.3516 49.9062 67.3516 47.8438V41.9375C67.3516 39.375 67.625 37.1797 68.1719 35.3516C68.7344 33.5078 69.5234 32 70.5391 30.8281C71.5703 29.6562 72.7891 28.7969 74.1953 28.25C75.6016 27.6875 77.1641 27.4062 78.8828 27.4062C80.2578 27.4062 81.5312 27.5859 82.7031 27.9453C83.8906 28.2891 84.9609 28.8281 85.9141 29.5625C86.8672 30.2969 87.6797 31.2422 88.3516 32.3984C89.0234 33.5391 89.5391 34.9062 89.8984 36.5C90.2578 38.0781 90.4375 39.8906 90.4375 41.9375ZM83.6641 48.7344V41.0234C83.6641 39.7891 83.5938 38.7109 83.4531 37.7891C83.3281 36.8672 83.1328 36.0859 82.8672 35.4453C82.6016 34.7891 82.2734 34.2578 81.8828 33.8516C81.4922 33.4453 81.0469 33.1484 80.5469 32.9609C80.0469 32.7734 79.4922 32.6797 78.8828 32.6797C78.1172 32.6797 77.4375 32.8281 76.8438 33.125C76.2656 33.4219 75.7734 33.8984 75.3672 34.5547C74.9609 35.1953 74.6484 36.0547 74.4297 37.1328C74.2266 38.1953 74.125 39.4922 74.125 41.0234V48.7344C74.125 49.9688 74.1875 51.0547 74.3125 51.9922C74.4531 52.9297 74.6562 53.7344 74.9219 54.4062C75.2031 55.0625 75.5312 55.6016 75.9062 56.0234C76.2969 56.4297 76.7422 56.7266 77.2422 56.9141C77.7578 57.1016 78.3203 57.1953 78.9297 57.1953C79.6797 57.1953 80.3438 57.0469 80.9219 56.75C81.5156 56.4375 82.0156 55.9531 82.4219 55.2969C82.8438 54.625 83.1562 53.75 83.3594 52.6719C83.5625 51.5938 83.6641 50.2812 83.6641 48.7344ZM121.68 27.875V62H114.672V27.875H121.68ZM132.18 27.875V33.3828H104.336V27.875H132.18ZM130.609 49.5781V49.0859C130.609 47.2266 130.875 45.5156 131.406 43.9531C131.938 42.375 132.711 41.0078 133.727 39.8516C134.742 38.6953 135.992 37.7969 137.477 37.1562C138.961 36.5 140.664 36.1719 142.586 36.1719C144.508 36.1719 146.219 36.5 147.719 37.1562C149.219 37.7969 150.477 38.6953 151.492 39.8516C152.523 41.0078 153.305 42.375 153.836 43.9531C154.367 45.5156 154.633 47.2266 154.633 49.0859V49.5781C154.633 51.4219 154.367 53.1328 153.836 54.7109C153.305 56.2734 152.523 57.6406 151.492 58.8125C150.477 59.9688 149.227 60.8672 147.742 61.5078C146.258 62.1484 144.555 62.4688 142.633 62.4688C140.711 62.4688 139 62.1484 137.5 61.5078C136.016 60.8672 134.758 59.9688 133.727 58.8125C132.711 57.6406 131.938 56.2734 131.406 54.7109C130.875 53.1328 130.609 51.4219 130.609 49.5781ZM137.359 49.0859V49.5781C137.359 50.6406 137.453 51.6328 137.641 52.5547C137.828 53.4766 138.125 54.2891 138.531 54.9922C138.953 55.6797 139.5 56.2188 140.172 56.6094C140.844 57 141.664 57.1953 142.633 57.1953C143.57 57.1953 144.375 57 145.047 56.6094C145.719 56.2188 146.258 55.6797 146.664 54.9922C147.07 54.2891 147.367 53.4766 147.555 52.5547C147.758 51.6328 147.859 50.6406 147.859 49.5781V49.0859C147.859 48.0547 147.758 47.0859 147.555 46.1797C147.367 45.2578 147.062 44.4453 146.641 43.7422C146.234 43.0234 145.695 42.4609 145.023 42.0547C144.352 41.6484 143.539 41.4453 142.586 41.4453C141.633 41.4453 140.82 41.6484 140.148 42.0547C139.492 42.4609 138.953 43.0234 138.531 43.7422C138.125 44.4453 137.828 45.2578 137.641 46.1797C137.453 47.0859 137.359 48.0547 137.359 49.0859ZM172.094 44.7031V50H158.852V44.7031H172.094ZM188.617 62H181.188L181.234 56.5156H188.617C190.461 56.5156 192.016 56.1016 193.281 55.2734C194.547 54.4297 195.5 53.2031 196.141 51.5938C196.797 49.9844 197.125 48.0391 197.125 45.7578V44.0938C197.125 42.3438 196.938 40.8047 196.562 39.4766C196.203 38.1484 195.664 37.0312 194.945 36.125C194.227 35.2188 193.344 34.5391 192.297 34.0859C191.25 33.6172 190.047 33.3828 188.688 33.3828H181.047V27.875H188.688C190.969 27.875 193.055 28.2656 194.945 29.0469C196.852 29.8125 198.5 30.9141 199.891 32.3516C201.281 33.7891 202.352 35.5078 203.102 37.5078C203.867 39.4922 204.25 41.7031 204.25 44.1406V45.7578C204.25 48.1797 203.867 50.3906 203.102 52.3906C202.352 54.3906 201.281 56.1094 199.891 57.5469C198.516 58.9688 196.867 60.0703 194.945 60.8516C193.039 61.6172 190.93 62 188.617 62ZM185.172 27.875V62H178.141V27.875H185.172ZM207.859 49.5781V49.0859C207.859 47.2266 208.125 45.5156 208.656 43.9531C209.188 42.375 209.961 41.0078 210.977 39.8516C211.992 38.6953 213.242 37.7969 214.727 37.1562C216.211 36.5 217.914 36.1719 219.836 36.1719C221.758 36.1719 223.469 36.5 224.969 37.1562C226.469 37.7969 227.727 38.6953 228.742 39.8516C229.773 41.0078 230.555 42.375 231.086 43.9531C231.617 45.5156 231.883 47.2266 231.883 49.0859V49.5781C231.883 51.4219 231.617 53.1328 231.086 54.7109C230.555 56.2734 229.773 57.6406 228.742 58.8125C227.727 59.9688 226.477 60.8672 224.992 61.5078C223.508 62.1484 221.805 62.4688 219.883 62.4688C217.961 62.4688 216.25 62.1484 214.75 61.5078C213.266 60.8672 212.008 59.9688 210.977 58.8125C209.961 57.6406 209.188 56.2734 208.656 54.7109C208.125 53.1328 207.859 51.4219 207.859 49.5781ZM214.609 49.0859V49.5781C214.609 50.6406 214.703 51.6328 214.891 52.5547C215.078 53.4766 215.375 54.2891 215.781 54.9922C216.203 55.6797 216.75 56.2188 217.422 56.6094C218.094 57 218.914 57.1953 219.883 57.1953C220.82 57.1953 221.625 57 222.297 56.6094C222.969 56.2188 223.508 55.6797 223.914 54.9922C224.32 54.2891 224.617 53.4766 224.805 52.5547C225.008 51.6328 225.109 50.6406 225.109 49.5781V49.0859C225.109 48.0547 225.008 47.0859 224.805 46.1797C224.617 45.2578 224.312 44.4453 223.891 43.7422C223.484 43.0234 222.945 42.4609 222.273 42.0547C221.602 41.6484 220.789 41.4453 219.836 41.4453C218.883 41.4453 218.07 41.6484 217.398 42.0547C216.742 42.4609 216.203 43.0234 215.781 43.7422C215.375 44.4453 215.078 45.2578 214.891 46.1797C214.703 47.0859 214.609 48.0547 214.609 49.0859Z" fill="black"/>
<path d="M25.5742 90.4219V89.9414C25.5742 89.2695 25.7852 88.7148 26.207 88.2773C26.6367 87.8398 27.2188 87.6211 27.9531 87.6211C28.6953 87.6211 29.2812 87.8398 29.7109 88.2773C30.1406 88.7148 30.3555 89.2695 30.3555 89.9414V90.4219C30.3555 91.0859 30.1406 91.6367 29.7109 92.0742C29.2891 92.5039 28.707 92.7188 27.9648 92.7188C27.2305 92.7188 26.6484 92.5039 26.2188 92.0742C25.7891 91.6367 25.5742 91.0859 25.5742 90.4219ZM58.5625 81.9375V83.7891H50.3359V99H48.0859V81.9375H58.5625ZM60.7656 88.7578V103.875H58.5859V86.3203H60.5781L60.7656 88.7578ZM69.3086 92.5547V92.8008C69.3086 93.7227 69.1992 94.5781 68.9805 95.3672C68.7617 96.1484 68.4414 96.8281 68.0195 97.4062C67.6055 97.9844 67.0938 98.4336 66.4844 98.7539C65.875 99.0742 65.1758 99.2344 64.3867 99.2344C63.582 99.2344 62.8711 99.1016 62.2539 98.8359C61.6367 98.5703 61.1133 98.1836 60.6836 97.6758C60.2539 97.168 59.9102 96.5586 59.6523 95.8477C59.4023 95.1367 59.2305 94.3359 59.1367 93.4453V92.1328C59.2305 91.1953 59.4062 90.3555 59.6641 89.6133C59.9219 88.8711 60.2617 88.2383 60.6836 87.7148C61.1133 87.1836 61.6328 86.7812 62.2422 86.5078C62.8516 86.2266 63.5547 86.0859 64.3516 86.0859C65.1484 86.0859 65.8555 86.2422 66.4727 86.5547C67.0898 86.8594 67.6094 87.2969 68.0312 87.8672C68.4531 88.4375 68.7695 89.1211 68.9805 89.918C69.1992 90.707 69.3086 91.5859 69.3086 92.5547ZM67.1289 92.8008V92.5547C67.1289 91.9219 67.0625 91.3281 66.9297 90.7734C66.7969 90.2109 66.5898 89.7188 66.3086 89.2969C66.0352 88.8672 65.6836 88.5312 65.2539 88.2891C64.8242 88.0391 64.3125 87.9141 63.7188 87.9141C63.1719 87.9141 62.6953 88.0078 62.2891 88.1953C61.8906 88.3828 61.5508 88.6367 61.2695 88.957C60.9883 89.2695 60.7578 89.6289 60.5781 90.0352C60.4062 90.4336 60.2773 90.8477 60.1914 91.2773V94.3125C60.3477 94.8594 60.5664 95.375 60.8477 95.8594C61.1289 96.3359 61.5039 96.7227 61.9727 97.0195C62.4414 97.3086 63.0312 97.4531 63.7422 97.4531C64.3281 97.4531 64.832 97.332 65.2539 97.0898C65.6836 96.8398 66.0352 96.5 66.3086 96.0703C66.5898 95.6406 66.7969 95.1484 66.9297 94.5938C67.0625 94.0312 67.1289 93.4336 67.1289 92.8008ZM71.5 92.8008V92.5312C71.5 91.6172 71.6328 90.7695 71.8984 89.9883C72.1641 89.1992 72.5469 88.5156 73.0469 87.9375C73.5469 87.3516 74.1523 86.8984 74.8633 86.5781C75.5742 86.25 76.3711 86.0859 77.2539 86.0859C78.1445 86.0859 78.9453 86.25 79.6562 86.5781C80.375 86.8984 80.9844 87.3516 81.4844 87.9375C81.9922 88.5156 82.3789 89.1992 82.6445 89.9883C82.9102 90.7695 83.043 91.6172 83.043 92.5312V92.8008C83.043 93.7148 82.9102 94.5625 82.6445 95.3438C82.3789 96.125 81.9922 96.8086 81.4844 97.3945C80.9844 97.9727 80.3789 98.4258 79.668 98.7539C78.9648 99.0742 78.168 99.2344 77.2773 99.2344C76.3867 99.2344 75.5859 99.0742 74.875 98.7539C74.1641 98.4258 73.5547 97.9727 73.0469 97.3945C72.5469 96.8086 72.1641 96.125 71.8984 95.3438C71.6328 94.5625 71.5 93.7148 71.5 92.8008ZM73.668 92.5312V92.8008C73.668 93.4336 73.7422 94.0312 73.8906 94.5938C74.0391 95.1484 74.2617 95.6406 74.5586 96.0703C74.8633 96.5 75.2422 96.8398 75.6953 97.0898C76.1484 97.332 76.6758 97.4531 77.2773 97.4531C77.8711 97.4531 78.3906 97.332 78.8359 97.0898C79.2891 96.8398 79.6641 96.5 79.9609 96.0703C80.2578 95.6406 80.4805 95.1484 80.6289 94.5938C80.7852 94.0312 80.8633 93.4336 80.8633 92.8008V92.5312C80.8633 91.9062 80.7852 91.3164 80.6289 90.7617C80.4805 90.1992 80.2539 89.7031 79.9492 89.2734C79.6523 88.8359 79.2773 88.4922 78.8242 88.2422C78.3789 87.9922 77.8555 87.8672 77.2539 87.8672C76.6602 87.8672 76.1367 87.9922 75.6836 88.2422C75.2383 88.4922 74.8633 88.8359 74.5586 89.2734C74.2617 89.7031 74.0391 90.1992 73.8906 90.7617C73.7422 91.3164 73.668 91.9062 73.668 92.5312ZM93.0508 96.1172L97.3633 86.3203H99.4492L93.8008 99H92.3008L86.6758 86.3203H88.7617L93.0508 96.1172ZM88.1289 86.3203V99H85.9609V86.3203H88.1289ZM97.9023 99V86.3203H100.082V99H97.9023ZM103 92.8008V92.5312C103 91.6172 103.133 90.7695 103.398 89.9883C103.664 89.1992 104.047 88.5156 104.547 87.9375C105.047 87.3516 105.652 86.8984 106.363 86.5781C107.074 86.25 107.871 86.0859 108.754 86.0859C109.645 86.0859 110.445 86.25 111.156 86.5781C111.875 86.8984 112.484 87.3516 112.984 87.9375C113.492 88.5156 113.879 89.1992 114.145 89.9883C114.41 90.7695 114.543 91.6172 114.543 92.5312V92.8008C114.543 93.7148 114.41 94.5625 114.145 95.3438C113.879 96.125 113.492 96.8086 112.984 97.3945C112.484 97.9727 111.879 98.4258 111.168 98.7539C110.465 99.0742 109.668 99.2344 108.777 99.2344C107.887 99.2344 107.086 99.0742 106.375 98.7539C105.664 98.4258 105.055 97.9727 104.547 97.3945C104.047 96.8086 103.664 96.125 103.398 95.3438C103.133 94.5625 103 93.7148 103 92.8008ZM105.168 92.5312V92.8008C105.168 93.4336 105.242 94.0312 105.391 94.5938C105.539 95.1484 105.762 95.6406 106.059 96.0703C106.363 96.5 106.742 96.8398 107.195 97.0898C107.648 97.332 108.176 97.4531 108.777 97.4531C109.371 97.4531 109.891 97.332 110.336 97.0898C110.789 96.8398 111.164 96.5 111.461 96.0703C111.758 95.6406 111.98 95.1484 112.129 94.5938C112.285 94.0312 112.363 93.4336 112.363 92.8008V92.5312C112.363 91.9062 112.285 91.3164 112.129 90.7617C111.98 90.1992 111.754 89.7031 111.449 89.2734C111.152 88.8359 110.777 88.4922 110.324 88.2422C109.879 87.9922 109.355 87.8672 108.754 87.8672C108.16 87.8672 107.637 87.9922 107.184 88.2422C106.738 88.4922 106.363 88.8359 106.059 89.2734C105.762 89.7031 105.539 90.1992 105.391 90.7617C105.242 91.3164 105.168 91.9062 105.168 92.5312ZM121.996 92.9414H119.664V91.6055H121.82C122.422 91.6055 122.898 91.5312 123.25 91.3828C123.602 91.2266 123.852 91.0117 124 90.7383C124.148 90.4648 124.223 90.1445 124.223 89.7773C124.223 89.4492 124.137 89.1406 123.965 88.8516C123.801 88.5547 123.535 88.3164 123.168 88.1367C122.801 87.9492 122.309 87.8555 121.691 87.8555C121.191 87.8555 120.738 87.9453 120.332 88.125C119.926 88.2969 119.602 88.5352 119.359 88.8398C119.125 89.1367 119.008 89.4727 119.008 89.8477H116.84C116.84 89.0742 117.059 88.4102 117.496 87.8555C117.941 87.293 118.531 86.8594 119.266 86.5547C120.008 86.25 120.816 86.0977 121.691 86.0977C122.426 86.0977 123.082 86.1797 123.66 86.3438C124.246 86.5 124.742 86.7344 125.148 87.0469C125.555 87.3516 125.863 87.7344 126.074 88.1953C126.293 88.6484 126.402 89.1758 126.402 89.7773C126.402 90.207 126.301 90.6133 126.098 90.9961C125.895 91.3789 125.602 91.7188 125.219 92.0156C124.836 92.3047 124.371 92.5312 123.824 92.6953C123.285 92.8594 122.676 92.9414 121.996 92.9414ZM119.664 92.1211H121.996C122.754 92.1211 123.422 92.1953 124 92.3438C124.578 92.4844 125.062 92.6953 125.453 92.9766C125.844 93.2578 126.137 93.6055 126.332 94.0195C126.535 94.4258 126.637 94.8945 126.637 95.4258C126.637 96.0195 126.516 96.5547 126.273 97.0312C126.039 97.5 125.703 97.8984 125.266 98.2266C124.828 98.5547 124.305 98.8047 123.695 98.9766C123.094 99.1484 122.426 99.2344 121.691 99.2344C120.871 99.2344 120.074 99.0938 119.301 98.8125C118.527 98.5312 117.891 98.0977 117.391 97.5117C116.891 96.918 116.641 96.1641 116.641 95.25H118.809C118.809 95.6328 118.93 95.9961 119.172 96.3398C119.414 96.6836 119.75 96.9609 120.18 97.1719C120.617 97.3828 121.121 97.4883 121.691 97.4883C122.301 97.4883 122.809 97.3945 123.215 97.207C123.621 97.0195 123.926 96.7695 124.129 96.457C124.34 96.1445 124.445 95.8047 124.445 95.4375C124.445 94.9609 124.352 94.5781 124.164 94.2891C123.977 94 123.688 93.7891 123.297 93.6562C122.914 93.5156 122.422 93.4453 121.82 93.4453H119.664V92.1211ZM131.734 86.3203H133.902L133.715 91.0664C133.668 92.2695 133.531 93.3086 133.305 94.1836C133.078 95.0586 132.789 95.8047 132.438 96.4219C132.086 97.0312 131.691 97.543 131.254 97.957C130.824 98.3711 130.379 98.7188 129.918 99H128.84L128.898 97.2305L129.344 97.2188C129.602 96.9141 129.852 96.6016 130.094 96.2812C130.336 95.9531 130.559 95.5664 130.762 95.1211C130.965 94.668 131.133 94.1172 131.266 93.4688C131.406 92.8125 131.496 92.0117 131.535 91.0664L131.734 86.3203ZM132.273 86.3203H139.902V99H137.734V88.3242H132.273V86.3203ZM128.348 97.2188H141.531V102.738H139.363V99H130.516V102.738H128.336L128.348 97.2188ZM146.289 86.3203V99H144.121V86.3203H146.289ZM154.609 86.3203L148.598 93.5859H145.562L145.234 91.6875H147.719L151.973 86.3203H154.609ZM152.277 99L147.613 93.2578L149.008 91.6875L155.031 99H152.277ZM159.262 95.5664L165.109 86.3203H167.289V99H165.109V89.7539L159.262 99H157.105V86.3203H159.262V95.5664ZM173.113 95.5664L178.961 86.3203H181.141V99H178.961V89.7539L173.113 99H170.957V86.3203H173.113V95.5664ZM177.777 81.7266H179.535C179.535 82.3359 179.395 82.8789 179.113 83.3555C178.832 83.8242 178.43 84.1914 177.906 84.457C177.383 84.7227 176.762 84.8555 176.043 84.8555C174.957 84.8555 174.098 84.5664 173.465 83.9883C172.84 83.4023 172.527 82.6484 172.527 81.7266H174.285C174.285 82.1875 174.418 82.5938 174.684 82.9453C174.949 83.2969 175.402 83.4727 176.043 83.4727C176.668 83.4727 177.113 83.2969 177.379 82.9453C177.645 82.5938 177.777 82.1875 177.777 81.7266ZM192.859 86.3203H195.027L194.84 91.0664C194.793 92.2695 194.656 93.3086 194.43 94.1836C194.203 95.0586 193.914 95.8047 193.562 96.4219C193.211 97.0312 192.816 97.543 192.379 97.957C191.949 98.3711 191.504 98.7188 191.043 99H189.965L190.023 97.2305L190.469 97.2188C190.727 96.9141 190.977 96.6016 191.219 96.2812C191.461 95.9531 191.684 95.5664 191.887 95.1211C192.09 94.668 192.258 94.1172 192.391 93.4688C192.531 92.8125 192.621 92.0117 192.66 91.0664L192.859 86.3203ZM193.398 86.3203H201.027V99H198.859V88.3242H193.398V86.3203ZM189.473 97.2188H202.656V102.738H200.488V99H191.641V102.738H189.461L189.473 97.2188ZM207.402 95.5664L213.25 86.3203H215.43V99H213.25V89.7539L207.402 99H205.246V86.3203H207.402V95.5664ZM223.645 92.9414H221.312V91.6055H223.469C224.07 91.6055 224.547 91.5312 224.898 91.3828C225.25 91.2266 225.5 91.0117 225.648 90.7383C225.797 90.4648 225.871 90.1445 225.871 89.7773C225.871 89.4492 225.785 89.1406 225.613 88.8516C225.449 88.5547 225.184 88.3164 224.816 88.1367C224.449 87.9492 223.957 87.8555 223.34 87.8555C222.84 87.8555 222.387 87.9453 221.98 88.125C221.574 88.2969 221.25 88.5352 221.008 88.8398C220.773 89.1367 220.656 89.4727 220.656 89.8477H218.488C218.488 89.0742 218.707 88.4102 219.145 87.8555C219.59 87.293 220.18 86.8594 220.914 86.5547C221.656 86.25 222.465 86.0977 223.34 86.0977C224.074 86.0977 224.73 86.1797 225.309 86.3438C225.895 86.5 226.391 86.7344 226.797 87.0469C227.203 87.3516 227.512 87.7344 227.723 88.1953C227.941 88.6484 228.051 89.1758 228.051 89.7773C228.051 90.207 227.949 90.6133 227.746 90.9961C227.543 91.3789 227.25 91.7188 226.867 92.0156C226.484 92.3047 226.02 92.5312 225.473 92.6953C224.934 92.8594 224.324 92.9414 223.645 92.9414ZM221.312 92.1211H223.645C224.402 92.1211 225.07 92.1953 225.648 92.3438C226.227 92.4844 226.711 92.6953 227.102 92.9766C227.492 93.2578 227.785 93.6055 227.98 94.0195C228.184 94.4258 228.285 94.8945 228.285 95.4258C228.285 96.0195 228.164 96.5547 227.922 97.0312C227.688 97.5 227.352 97.8984 226.914 98.2266C226.477 98.5547 225.953 98.8047 225.344 98.9766C224.742 99.1484 224.074 99.2344 223.34 99.2344C222.52 99.2344 221.723 99.0938 220.949 98.8125C220.176 98.5312 219.539 98.0977 219.039 97.5117C218.539 96.918 218.289 96.1641 218.289 95.25H220.457C220.457 95.6328 220.578 95.9961 220.82 96.3398C221.062 96.6836 221.398 96.9609 221.828 97.1719C222.266 97.3828 222.77 97.4883 223.34 97.4883C223.949 97.4883 224.457 97.3945 224.863 97.207C225.27 97.0195 225.574 96.7695 225.777 96.457C225.988 96.1445 226.094 95.8047 226.094 95.4375C226.094 94.9609 226 94.5781 225.812 94.2891C225.625 94 225.336 93.7891 224.945 93.6562C224.562 93.5156 224.07 93.4453 223.469 93.4453H221.312V92.1211ZM238.574 96.832V90.3047C238.574 89.8047 238.473 89.3711 238.27 89.0039C238.074 88.6289 237.777 88.3398 237.379 88.1367C236.98 87.9336 236.488 87.832 235.902 87.832C235.355 87.832 234.875 87.9258 234.461 88.1133C234.055 88.3008 233.734 88.5469 233.5 88.8516C233.273 89.1562 233.16 89.4844 233.16 89.8359H230.992C230.992 89.3828 231.109 88.9336 231.344 88.4883C231.578 88.043 231.914 87.6406 232.352 87.2812C232.797 86.9141 233.328 86.625 233.945 86.4141C234.57 86.1953 235.266 86.0859 236.031 86.0859C236.953 86.0859 237.766 86.2422 238.469 86.5547C239.18 86.8672 239.734 87.3398 240.133 87.9727C240.539 88.5977 240.742 89.3828 240.742 90.3281V96.2344C240.742 96.6562 240.777 97.1055 240.848 97.582C240.926 98.0586 241.039 98.4688 241.188 98.8125V99H238.926C238.816 98.75 238.73 98.418 238.668 98.0039C238.605 97.582 238.574 97.1914 238.574 96.832ZM238.949 91.3125L238.973 92.8359H236.781C236.164 92.8359 235.613 92.8867 235.129 92.9883C234.645 93.082 234.238 93.2266 233.91 93.4219C233.582 93.6172 233.332 93.8633 233.16 94.1602C232.988 94.4492 232.902 94.7891 232.902 95.1797C232.902 95.5781 232.992 95.9414 233.172 96.2695C233.352 96.5977 233.621 96.8594 233.98 97.0547C234.348 97.2422 234.797 97.3359 235.328 97.3359C235.992 97.3359 236.578 97.1953 237.086 96.9141C237.594 96.6328 237.996 96.2891 238.293 95.8828C238.598 95.4766 238.762 95.082 238.785 94.6992L239.711 95.7422C239.656 96.0703 239.508 96.4336 239.266 96.832C239.023 97.2305 238.699 97.6133 238.293 97.9805C237.895 98.3398 237.418 98.6406 236.863 98.8828C236.316 99.1172 235.699 99.2344 235.012 99.2344C234.152 99.2344 233.398 99.0664 232.75 98.7305C232.109 98.3945 231.609 97.9453 231.25 97.3828C230.898 96.8125 230.723 96.1758 230.723 95.4727C230.723 94.793 230.855 94.1953 231.121 93.6797C231.387 93.1562 231.77 92.7227 232.27 92.3789C232.77 92.0273 233.371 91.7617 234.074 91.582C234.777 91.4023 235.562 91.3125 236.43 91.3125H238.949ZM246.496 95.5664L252.344 86.3203H254.523V99H252.344V89.7539L246.496 99H244.34V86.3203H246.496V95.5664ZM251.16 81.7266H252.918C252.918 82.3359 252.777 82.8789 252.496 83.3555C252.215 83.8242 251.812 84.1914 251.289 84.457C250.766 84.7227 250.145 84.8555 249.426 84.8555C248.34 84.8555 247.48 84.5664 246.848 83.9883C246.223 83.4023 245.91 82.6484 245.91 81.7266H247.668C247.668 82.1875 247.801 82.5938 248.066 82.9453C248.332 83.2969 248.785 83.4727 249.426 83.4727C250.051 83.4727 250.496 83.2969 250.762 82.9453C251.027 82.5938 251.16 82.1875 251.16 81.7266ZM266.605 91.8164V93.5742H259.902V91.8164H266.605ZM260.359 86.3203V99H258.191V86.3203H260.359ZM268.363 86.3203V99H266.184V86.3203H268.363ZM25.5742 118.422V117.941C25.5742 117.27 25.7852 116.715 26.207 116.277C26.6367 115.84 27.2188 115.621 27.9531 115.621C28.6953 115.621 29.2812 115.84 29.7109 116.277C30.1406 116.715 30.3555 117.27 30.3555 117.941V118.422C30.3555 119.086 30.1406 119.637 29.7109 120.074C29.2891 120.504 28.707 120.719 27.9648 120.719C27.2305 120.719 26.6484 120.504 26.2188 120.074C25.7891 119.637 25.5742 119.086 25.5742 118.422ZM48.6953 109.938H50.8867L56.4766 123.848L62.0547 109.938H64.2578L57.3203 127H55.6094L48.6953 109.938ZM47.9805 109.938H49.9141L50.2305 120.344V127H47.9805V109.938ZM63.0273 109.938H64.9609V127H62.7109V120.344L63.0273 109.938ZM77.207 119.816V121.574H70.5039V119.816H77.207ZM70.9609 114.32V127H68.793V114.32H70.9609ZM78.9648 114.32V127H76.7852V114.32H78.9648ZM81.8828 120.801V120.531C81.8828 119.617 82.0156 118.77 82.2812 117.988C82.5469 117.199 82.9297 116.516 83.4297 115.938C83.9297 115.352 84.5352 114.898 85.2461 114.578C85.957 114.25 86.7539 114.086 87.6367 114.086C88.5273 114.086 89.3281 114.25 90.0391 114.578C90.7578 114.898 91.3672 115.352 91.8672 115.938C92.375 116.516 92.7617 117.199 93.0273 117.988C93.293 118.77 93.4258 119.617 93.4258 120.531V120.801C93.4258 121.715 93.293 122.562 93.0273 123.344C92.7617 124.125 92.375 124.809 91.8672 125.395C91.3672 125.973 90.7617 126.426 90.0508 126.754C89.3477 127.074 88.5508 127.234 87.6602 127.234C86.7695 127.234 85.9688 127.074 85.2578 126.754C84.5469 126.426 83.9375 125.973 83.4297 125.395C82.9297 124.809 82.5469 124.125 82.2812 123.344C82.0156 122.562 81.8828 121.715 81.8828 120.801ZM84.0508 120.531V120.801C84.0508 121.434 84.125 122.031 84.2734 122.594C84.4219 123.148 84.6445 123.641 84.9414 124.07C85.2461 124.5 85.625 124.84 86.0781 125.09C86.5312 125.332 87.0586 125.453 87.6602 125.453C88.2539 125.453 88.7734 125.332 89.2188 125.09C89.6719 124.84 90.0469 124.5 90.3438 124.07C90.6406 123.641 90.8633 123.148 91.0117 122.594C91.168 122.031 91.2461 121.434 91.2461 120.801V120.531C91.2461 119.906 91.168 119.316 91.0117 118.762C90.8633 118.199 90.6367 117.703 90.332 117.273C90.0352 116.836 89.6602 116.492 89.207 116.242C88.7617 115.992 88.2383 115.867 87.6367 115.867C87.043 115.867 86.5195 115.992 86.0664 116.242C85.6211 116.492 85.2461 116.836 84.9414 117.273C84.6445 117.703 84.4219 118.199 84.2734 118.762C84.125 119.316 84.0508 119.906 84.0508 120.531ZM104.336 114.32V116.113H98.4766V127H96.3086V114.32H104.336ZM105.414 120.801V120.531C105.414 119.617 105.547 118.77 105.812 117.988C106.078 117.199 106.461 116.516 106.961 115.938C107.461 115.352 108.066 114.898 108.777 114.578C109.488 114.25 110.285 114.086 111.168 114.086C112.059 114.086 112.859 114.25 113.57 114.578C114.289 114.898 114.898 115.352 115.398 115.938C115.906 116.516 116.293 117.199 116.559 117.988C116.824 118.77 116.957 119.617 116.957 120.531V120.801C116.957 121.715 116.824 122.562 116.559 123.344C116.293 124.125 115.906 124.809 115.398 125.395C114.898 125.973 114.293 126.426 113.582 126.754C112.879 127.074 112.082 127.234 111.191 127.234C110.301 127.234 109.5 127.074 108.789 126.754C108.078 126.426 107.469 125.973 106.961 125.395C106.461 124.809 106.078 124.125 105.812 123.344C105.547 122.562 105.414 121.715 105.414 120.801ZM107.582 120.531V120.801C107.582 121.434 107.656 122.031 107.805 122.594C107.953 123.148 108.176 123.641 108.473 124.07C108.777 124.5 109.156 124.84 109.609 125.09C110.062 125.332 110.59 125.453 111.191 125.453C111.785 125.453 112.305 125.332 112.75 125.09C113.203 124.84 113.578 124.5 113.875 124.07C114.172 123.641 114.395 123.148 114.543 122.594C114.699 122.031 114.777 121.434 114.777 120.801V120.531C114.777 119.906 114.699 119.316 114.543 118.762C114.395 118.199 114.168 117.703 113.863 117.273C113.566 116.836 113.191 116.492 112.738 116.242C112.293 115.992 111.77 115.867 111.168 115.867C110.574 115.867 110.051 115.992 109.598 116.242C109.152 116.492 108.777 116.836 108.473 117.273C108.176 117.703 107.953 118.199 107.805 118.762C107.656 119.316 107.582 119.906 107.582 120.531ZM134.23 119.816V121.574H127.527V119.816H134.23ZM127.984 114.32V127H125.816V114.32H127.984ZM135.988 114.32V127H133.809V114.32H135.988ZM144.742 127.234C143.859 127.234 143.059 127.086 142.34 126.789C141.629 126.484 141.016 126.059 140.5 125.512C139.992 124.965 139.602 124.316 139.328 123.566C139.055 122.816 138.918 121.996 138.918 121.105V120.613C138.918 119.582 139.07 118.664 139.375 117.859C139.68 117.047 140.094 116.359 140.617 115.797C141.141 115.234 141.734 114.809 142.398 114.52C143.062 114.23 143.75 114.086 144.461 114.086C145.367 114.086 146.148 114.242 146.805 114.555C147.469 114.867 148.012 115.305 148.434 115.867C148.855 116.422 149.168 117.078 149.371 117.836C149.574 118.586 149.676 119.406 149.676 120.297V121.27H140.207V119.5H147.508V119.336C147.477 118.773 147.359 118.227 147.156 117.695C146.961 117.164 146.648 116.727 146.219 116.383C145.789 116.039 145.203 115.867 144.461 115.867C143.969 115.867 143.516 115.973 143.102 116.184C142.688 116.387 142.332 116.691 142.035 117.098C141.738 117.504 141.508 118 141.344 118.586C141.18 119.172 141.098 119.848 141.098 120.613V121.105C141.098 121.707 141.18 122.273 141.344 122.805C141.516 123.328 141.762 123.789 142.082 124.188C142.41 124.586 142.805 124.898 143.266 125.125C143.734 125.352 144.266 125.465 144.859 125.465C145.625 125.465 146.273 125.309 146.805 124.996C147.336 124.684 147.801 124.266 148.199 123.742L149.512 124.785C149.238 125.199 148.891 125.594 148.469 125.969C148.047 126.344 147.527 126.648 146.91 126.883C146.301 127.117 145.578 127.234 144.742 127.234ZM154.551 123.566L160.398 114.32H162.578V127H160.398V117.754L154.551 127H152.395V114.32H154.551V123.566ZM171.133 125.453C171.648 125.453 172.125 125.348 172.562 125.137C173 124.926 173.359 124.637 173.641 124.27C173.922 123.895 174.082 123.469 174.121 122.992H176.184C176.145 123.742 175.891 124.441 175.422 125.09C174.961 125.73 174.355 126.25 173.605 126.648C172.855 127.039 172.031 127.234 171.133 127.234C170.18 127.234 169.348 127.066 168.637 126.73C167.934 126.395 167.348 125.934 166.879 125.348C166.418 124.762 166.07 124.09 165.836 123.332C165.609 122.566 165.496 121.758 165.496 120.906V120.414C165.496 119.562 165.609 118.758 165.836 118C166.07 117.234 166.418 116.559 166.879 115.973C167.348 115.387 167.934 114.926 168.637 114.59C169.348 114.254 170.18 114.086 171.133 114.086C172.125 114.086 172.992 114.289 173.734 114.695C174.477 115.094 175.059 115.641 175.48 116.336C175.91 117.023 176.145 117.805 176.184 118.68H174.121C174.082 118.156 173.934 117.684 173.676 117.262C173.426 116.84 173.082 116.504 172.645 116.254C172.215 115.996 171.711 115.867 171.133 115.867C170.469 115.867 169.91 116 169.457 116.266C169.012 116.523 168.656 116.875 168.391 117.32C168.133 117.758 167.945 118.246 167.828 118.785C167.719 119.316 167.664 119.859 167.664 120.414V120.906C167.664 121.461 167.719 122.008 167.828 122.547C167.938 123.086 168.121 123.574 168.379 124.012C168.645 124.449 169 124.801 169.445 125.066C169.898 125.324 170.461 125.453 171.133 125.453ZM187.07 114.32V116.113H180.66V114.32H187.07ZM180.977 114.32V127H178.809V114.32H180.977ZM188.992 114.32V127H186.812V114.32H188.992ZM191.898 120.801V120.531C191.898 119.617 192.031 118.77 192.297 117.988C192.562 117.199 192.945 116.516 193.445 115.938C193.945 115.352 194.551 114.898 195.262 114.578C195.973 114.25 196.77 114.086 197.652 114.086C198.543 114.086 199.344 114.25 200.055 114.578C200.773 114.898 201.383 115.352 201.883 115.938C202.391 116.516 202.777 117.199 203.043 117.988C203.309 118.77 203.441 119.617 203.441 120.531V120.801C203.441 121.715 203.309 122.562 203.043 123.344C202.777 124.125 202.391 124.809 201.883 125.395C201.383 125.973 200.777 126.426 200.066 126.754C199.363 127.074 198.566 127.234 197.676 127.234C196.785 127.234 195.984 127.074 195.273 126.754C194.562 126.426 193.953 125.973 193.445 125.395C192.945 124.809 192.562 124.125 192.297 123.344C192.031 122.562 191.898 121.715 191.898 120.801ZM194.066 120.531V120.801C194.066 121.434 194.141 122.031 194.289 122.594C194.438 123.148 194.66 123.641 194.957 124.07C195.262 124.5 195.641 124.84 196.094 125.09C196.547 125.332 197.074 125.453 197.676 125.453C198.27 125.453 198.789 125.332 199.234 125.09C199.688 124.84 200.062 124.5 200.359 124.07C200.656 123.641 200.879 123.148 201.027 122.594C201.184 122.031 201.262 121.434 201.262 120.801V120.531C201.262 119.906 201.184 119.316 201.027 118.762C200.879 118.199 200.652 117.703 200.348 117.273C200.051 116.836 199.676 116.492 199.223 116.242C198.777 115.992 198.254 115.867 197.652 115.867C197.059 115.867 196.535 115.992 196.082 116.242C195.637 116.492 195.262 116.836 194.957 117.273C194.66 117.703 194.438 118.199 194.289 118.762C194.141 119.316 194.066 119.906 194.066 120.531ZM214.445 114.32V116.113H208.316V114.32H214.445ZM216.355 114.32V127H214.188V114.32H216.355ZM207.789 114.32H209.969L209.641 120.438C209.586 121.383 209.496 122.219 209.371 122.945C209.254 123.664 209.09 124.281 208.879 124.797C208.676 125.312 208.418 125.734 208.105 126.062C207.801 126.383 207.434 126.621 207.004 126.777C206.574 126.926 206.078 127 205.516 127H204.836V125.09L205.305 125.055C205.641 125.031 205.926 124.953 206.16 124.82C206.402 124.688 206.605 124.492 206.77 124.234C206.934 123.969 207.066 123.629 207.168 123.215C207.277 122.801 207.359 122.309 207.414 121.738C207.477 121.168 207.523 120.504 207.555 119.746L207.789 114.32ZM221.629 118.68H225.438C226.461 118.68 227.324 118.859 228.027 119.219C228.73 119.57 229.262 120.059 229.621 120.684C229.988 121.301 230.172 122.004 230.172 122.793C230.172 123.379 230.07 123.93 229.867 124.445C229.664 124.953 229.359 125.398 228.953 125.781C228.555 126.164 228.059 126.465 227.465 126.684C226.879 126.895 226.203 127 225.438 127H220.047V114.32H222.215V125.219H225.438C226.062 125.219 226.562 125.105 226.938 124.879C227.312 124.652 227.582 124.359 227.746 124C227.91 123.641 227.992 123.266 227.992 122.875C227.992 122.492 227.91 122.117 227.746 121.75C227.582 121.383 227.312 121.078 226.938 120.836C226.562 120.586 226.062 120.461 225.438 120.461H221.629V118.68ZM237.613 120.941H235.281V119.605H237.438C238.039 119.605 238.516 119.531 238.867 119.383C239.219 119.227 239.469 119.012 239.617 118.738C239.766 118.465 239.84 118.145 239.84 117.777C239.84 117.449 239.754 117.141 239.582 116.852C239.418 116.555 239.152 116.316 238.785 116.137C238.418 115.949 237.926 115.855 237.309 115.855C236.809 115.855 236.355 115.945 235.949 116.125C235.543 116.297 235.219 116.535 234.977 116.84C234.742 117.137 234.625 117.473 234.625 117.848H232.457C232.457 117.074 232.676 116.41 233.113 115.855C233.559 115.293 234.148 114.859 234.883 114.555C235.625 114.25 236.434 114.098 237.309 114.098C238.043 114.098 238.699 114.18 239.277 114.344C239.863 114.5 240.359 114.734 240.766 115.047C241.172 115.352 241.48 115.734 241.691 116.195C241.91 116.648 242.02 117.176 242.02 117.777C242.02 118.207 241.918 118.613 241.715 118.996C241.512 119.379 241.219 119.719 240.836 120.016C240.453 120.305 239.988 120.531 239.441 120.695C238.902 120.859 238.293 120.941 237.613 120.941ZM235.281 120.121H237.613C238.371 120.121 239.039 120.195 239.617 120.344C240.195 120.484 240.68 120.695 241.07 120.977C241.461 121.258 241.754 121.605 241.949 122.02C242.152 122.426 242.254 122.895 242.254 123.426C242.254 124.02 242.133 124.555 241.891 125.031C241.656 125.5 241.32 125.898 240.883 126.227C240.445 126.555 239.922 126.805 239.312 126.977C238.711 127.148 238.043 127.234 237.309 127.234C236.488 127.234 235.691 127.094 234.918 126.812C234.145 126.531 233.508 126.098 233.008 125.512C232.508 124.918 232.258 124.164 232.258 123.25H234.426C234.426 123.633 234.547 123.996 234.789 124.34C235.031 124.684 235.367 124.961 235.797 125.172C236.234 125.383 236.738 125.488 237.309 125.488C237.918 125.488 238.426 125.395 238.832 125.207C239.238 125.02 239.543 124.77 239.746 124.457C239.957 124.145 240.062 123.805 240.062 123.438C240.062 122.961 239.969 122.578 239.781 122.289C239.594 122 239.305 121.789 238.914 121.656C238.531 121.516 238.039 121.445 237.438 121.445H235.281V120.121ZM248.629 125.688L252.156 114.32H254.477L249.391 128.957C249.273 129.27 249.117 129.605 248.922 129.965C248.734 130.332 248.492 130.68 248.195 131.008C247.898 131.336 247.539 131.602 247.117 131.805C246.703 132.016 246.207 132.121 245.629 132.121C245.457 132.121 245.238 132.098 244.973 132.051C244.707 132.004 244.52 131.965 244.41 131.934L244.398 130.176C244.461 130.184 244.559 130.191 244.691 130.199C244.832 130.215 244.93 130.223 244.984 130.223C245.477 130.223 245.895 130.156 246.238 130.023C246.582 129.898 246.871 129.684 247.105 129.379C247.348 129.082 247.555 128.672 247.727 128.148L248.629 125.688ZM246.039 114.32L249.332 124.164L249.895 126.449L248.336 127.246L243.672 114.32H246.039ZM261.531 127.234C260.648 127.234 259.848 127.086 259.129 126.789C258.418 126.484 257.805 126.059 257.289 125.512C256.781 124.965 256.391 124.316 256.117 123.566C255.844 122.816 255.707 121.996 255.707 121.105V120.613C255.707 119.582 255.859 118.664 256.164 117.859C256.469 117.047 256.883 116.359 257.406 115.797C257.93 115.234 258.523 114.809 259.188 114.52C259.852 114.23 260.539 114.086 261.25 114.086C262.156 114.086 262.938 114.242 263.594 114.555C264.258 114.867 264.801 115.305 265.223 115.867C265.645 116.422 265.957 117.078 266.16 117.836C266.363 118.586 266.465 119.406 266.465 120.297V121.27H256.996V119.5H264.297V119.336C264.266 118.773 264.148 118.227 263.945 117.695C263.75 117.164 263.438 116.727 263.008 116.383C262.578 116.039 261.992 115.867 261.25 115.867C260.758 115.867 260.305 115.973 259.891 116.184C259.477 116.387 259.121 116.691 258.824 117.098C258.527 117.504 258.297 118 258.133 118.586C257.969 119.172 257.887 119.848 257.887 120.613V121.105C257.887 121.707 257.969 122.273 258.133 122.805C258.305 123.328 258.551 123.789 258.871 124.188C259.199 124.586 259.594 124.898 260.055 125.125C260.523 125.352 261.055 125.465 261.648 125.465C262.414 125.465 263.062 125.309 263.594 124.996C264.125 124.684 264.59 124.266 264.988 123.742L266.301 124.785C266.027 125.199 265.68 125.594 265.258 125.969C264.836 126.344 264.316 126.648 263.699 126.883C263.09 127.117 262.367 127.234 261.531 127.234ZM276.285 124.117L280.598 114.32H282.684L277.035 127H275.535L269.91 114.32H271.996L276.285 124.117ZM271.363 114.32V127H269.195V114.32H271.363ZM281.137 127V114.32H283.316V127H281.137ZM288.59 118.68H292.398C293.422 118.68 294.285 118.859 294.988 119.219C295.691 119.57 296.223 120.059 296.582 120.684C296.949 121.301 297.133 122.004 297.133 122.793C297.133 123.379 297.031 123.93 296.828 124.445C296.625 124.953 296.32 125.398 295.914 125.781C295.516 126.164 295.02 126.465 294.426 126.684C293.84 126.895 293.164 127 292.398 127H287.008V114.32H289.176V125.219H292.398C293.023 125.219 293.523 125.105 293.898 124.879C294.273 124.652 294.543 124.359 294.707 124C294.871 123.641 294.953 123.266 294.953 122.875C294.953 122.492 294.871 122.117 294.707 121.75C294.543 121.383 294.273 121.078 293.898 120.836C293.523 120.586 293.023 120.461 292.398 120.461H288.59V118.68ZM301.645 114.32V127H299.477V114.32H301.645ZM306.906 114.32L309.684 118.938L312.496 114.32H315.039L310.891 120.578L315.168 127H312.66L309.73 122.242L306.801 127H304.281L308.547 120.578L304.41 114.32H306.906ZM62.2305 148.883V149.129C62.2305 150.02 62.1328 150.84 61.9375 151.59C61.7422 152.332 61.4492 152.977 61.0586 153.523C60.6758 154.07 60.1992 154.496 59.6289 154.801C59.0586 155.098 58.3984 155.246 57.6484 155.246C57.0312 155.246 56.4883 155.164 56.0195 155C55.5508 154.828 55.1523 154.582 54.8242 154.262C54.5039 153.941 54.2461 153.559 54.0508 153.113C53.8633 152.66 53.7344 152.152 53.6641 151.59V145.965C53.7344 145.363 53.8633 144.824 54.0508 144.348C54.2461 143.871 54.5039 143.465 54.8242 143.129C55.1523 142.793 55.5469 142.535 56.0078 142.355C56.4688 142.176 57.0078 142.086 57.625 142.086C58.2344 142.086 58.7812 142.195 59.2656 142.414C59.7578 142.625 60.1875 142.93 60.5547 143.328C60.9297 143.727 61.2383 144.207 61.4805 144.77C61.7305 145.324 61.918 145.949 62.043 146.645C62.168 147.34 62.2305 148.086 62.2305 148.883ZM60.0625 149.129V148.883C60.0625 148.336 60.0234 147.816 59.9453 147.324C59.875 146.824 59.7617 146.367 59.6055 145.953C59.457 145.531 59.2617 145.164 59.0195 144.852C58.7773 144.539 58.4844 144.297 58.1406 144.125C57.8047 143.953 57.418 143.867 56.9805 143.867C56.5117 143.867 56.1211 143.926 55.8086 144.043C55.5039 144.16 55.2656 144.316 55.0938 144.512C54.9219 144.699 54.7969 144.898 54.7188 145.109V152.457C54.8125 152.629 54.9492 152.793 55.1289 152.949C55.3086 153.098 55.5508 153.223 55.8555 153.324C56.1602 153.418 56.543 153.465 57.0039 153.465C57.5508 153.465 58.0156 153.355 58.3984 153.137C58.7891 152.91 59.1055 152.598 59.3477 152.199C59.5977 151.801 59.7773 151.34 59.8867 150.816C60.0039 150.293 60.0625 149.73 60.0625 149.129ZM47.1719 149.129V148.883C47.1719 148.086 47.2344 147.34 47.3594 146.645C47.4844 145.949 47.6719 145.324 47.9219 144.77C48.1719 144.207 48.4805 143.727 48.8477 143.328C49.2227 142.93 49.6523 142.625 50.1367 142.414C50.6289 142.195 51.1797 142.086 51.7891 142.086C52.3906 142.086 52.9141 142.176 53.3594 142.355C53.8125 142.535 54.1953 142.793 54.5078 143.129C54.8203 143.465 55.0703 143.871 55.2578 144.348C55.4453 144.824 55.5781 145.363 55.6562 145.965V151.367C55.5859 151.961 55.457 152.496 55.2695 152.973C55.082 153.449 54.832 153.859 54.5195 154.203C54.207 154.539 53.8203 154.797 53.3594 154.977C52.9062 155.156 52.375 155.246 51.7656 155.246C51.0156 155.246 50.3555 155.098 49.7852 154.801C49.2148 154.496 48.7344 154.07 48.3438 153.523C47.9609 152.977 47.668 152.332 47.4648 151.59C47.2695 150.84 47.1719 150.02 47.1719 149.129ZM49.3516 148.883V149.129C49.3516 149.73 49.4023 150.293 49.5039 150.816C49.6133 151.34 49.7812 151.801 50.0078 152.199C50.2422 152.598 50.5469 152.91 50.9219 153.137C51.2969 153.355 51.7578 153.465 52.3047 153.465C52.7734 153.465 53.1602 153.406 53.4648 153.289C53.7695 153.172 54.0117 153.02 54.1914 152.832C54.3711 152.645 54.5078 152.449 54.6016 152.246V145.109C54.5234 144.898 54.3945 144.699 54.2148 144.512C54.043 144.316 53.8047 144.16 53.5 144.043C53.1953 143.926 52.8047 143.867 52.3281 143.867C51.7812 143.867 51.3164 144 50.9336 144.266C50.5508 144.531 50.2422 144.895 50.0078 145.355C49.7812 145.816 49.6133 146.352 49.5039 146.961C49.4023 147.562 49.3516 148.203 49.3516 148.883ZM53.5234 159.875V137H55.7031V159.875H53.5234ZM68.4883 153.688L72.0156 142.32H74.3359L69.25 156.957C69.1328 157.27 68.9766 157.605 68.7812 157.965C68.5938 158.332 68.3516 158.68 68.0547 159.008C67.7578 159.336 67.3984 159.602 66.9766 159.805C66.5625 160.016 66.0664 160.121 65.4883 160.121C65.3164 160.121 65.0977 160.098 64.832 160.051C64.5664 160.004 64.3789 159.965 64.2695 159.934L64.2578 158.176C64.3203 158.184 64.418 158.191 64.5508 158.199C64.6914 158.215 64.7891 158.223 64.8438 158.223C65.3359 158.223 65.7539 158.156 66.0977 158.023C66.4414 157.898 66.7305 157.684 66.9648 157.379C67.207 157.082 67.4141 156.672 67.5859 156.148L68.4883 153.688ZM65.8984 142.32L69.1914 152.164L69.7539 154.449L68.1953 155.246L63.5312 142.32H65.8984ZM84.8945 147.816V149.574H78.1914V147.816H84.8945ZM78.6484 142.32V155H76.4805V142.32H78.6484ZM86.6523 142.32V155H84.4727V142.32H86.6523ZM92.5 142.32V155H90.332V142.32H92.5ZM100.82 142.32L94.8086 149.586H91.7734L91.4453 147.688H93.9297L98.1836 142.32H100.82ZM98.4883 155L93.8242 149.258L95.2188 147.688L101.242 155H98.4883ZM103.316 155V142.32H105.484V153.219H111.32V142.32H113.5V155H103.316ZM115 153.219L114.789 158.762H112.855V155H111.203V153.219H115ZM119.699 151.566L125.547 142.32H127.727V155H125.547V145.754L119.699 155H117.543V142.32H119.699V151.566ZM133.551 151.566L139.398 142.32H141.578V155H139.398V145.754L133.551 155H131.395V142.32H133.551V151.566ZM138.215 137.727H139.973C139.973 138.336 139.832 138.879 139.551 139.355C139.27 139.824 138.867 140.191 138.344 140.457C137.82 140.723 137.199 140.855 136.48 140.855C135.395 140.855 134.535 140.566 133.902 139.988C133.277 139.402 132.965 138.648 132.965 137.727H134.723C134.723 138.188 134.855 138.594 135.121 138.945C135.387 139.297 135.84 139.473 136.48 139.473C137.105 139.473 137.551 139.297 137.816 138.945C138.082 138.594 138.215 138.188 138.215 137.727ZM25.5742 174.422V173.941C25.5742 173.27 25.7852 172.715 26.207 172.277C26.6367 171.84 27.2188 171.621 27.9531 171.621C28.6953 171.621 29.2812 171.84 29.7109 172.277C30.1406 172.715 30.3555 173.27 30.3555 173.941V174.422C30.3555 175.086 30.1406 175.637 29.7109 176.074C29.2891 176.504 28.707 176.719 27.9648 176.719C27.2305 176.719 26.6484 176.504 26.2188 176.074C25.7891 175.637 25.5742 175.086 25.5742 174.422ZM59.125 173.273V175.113H49.8906V173.273H59.125ZM50.2422 165.938V183H47.9805V165.938H50.2422ZM61.0938 165.938V183H58.8438V165.938H61.0938ZM70.0469 183.234C69.1641 183.234 68.3633 183.086 67.6445 182.789C66.9336 182.484 66.3203 182.059 65.8047 181.512C65.2969 180.965 64.9062 180.316 64.6328 179.566C64.3594 178.816 64.2227 177.996 64.2227 177.105V176.613C64.2227 175.582 64.375 174.664 64.6797 173.859C64.9844 173.047 65.3984 172.359 65.9219 171.797C66.4453 171.234 67.0391 170.809 67.7031 170.52C68.3672 170.23 69.0547 170.086 69.7656 170.086C70.6719 170.086 71.4531 170.242 72.1094 170.555C72.7734 170.867 73.3164 171.305 73.7383 171.867C74.1602 172.422 74.4727 173.078 74.6758 173.836C74.8789 174.586 74.9805 175.406 74.9805 176.297V177.27H65.5117V175.5H72.8125V175.336C72.7812 174.773 72.6641 174.227 72.4609 173.695C72.2656 173.164 71.9531 172.727 71.5234 172.383C71.0938 172.039 70.5078 171.867 69.7656 171.867C69.2734 171.867 68.8203 171.973 68.4062 172.184C67.9922 172.387 67.6367 172.691 67.3398 173.098C67.043 173.504 66.8125 174 66.6484 174.586C66.4844 175.172 66.4023 175.848 66.4023 176.613V177.105C66.4023 177.707 66.4844 178.273 66.6484 178.805C66.8203 179.328 67.0664 179.789 67.3867 180.188C67.7148 180.586 68.1094 180.898 68.5703 181.125C69.0391 181.352 69.5703 181.465 70.1641 181.465C70.9297 181.465 71.5781 181.309 72.1094 180.996C72.6406 180.684 73.1055 180.266 73.5039 179.742L74.8164 180.785C74.543 181.199 74.1953 181.594 73.7734 181.969C73.3516 182.344 72.832 182.648 72.2148 182.883C71.6055 183.117 70.8828 183.234 70.0469 183.234ZM86.1133 175.816V177.574H79.4102V175.816H86.1133ZM79.8672 170.32V183H77.6992V170.32H79.8672ZM87.8711 170.32V183H85.6914V170.32H87.8711ZM94.9258 181.688L98.4531 170.32H100.773L95.6875 184.957C95.5703 185.27 95.4141 185.605 95.2188 185.965C95.0312 186.332 94.7891 186.68 94.4922 187.008C94.1953 187.336 93.8359 187.602 93.4141 187.805C93 188.016 92.5039 188.121 91.9258 188.121C91.7539 188.121 91.5352 188.098 91.2695 188.051C91.0039 188.004 90.8164 187.965 90.707 187.934L90.6953 186.176C90.7578 186.184 90.8555 186.191 90.9883 186.199C91.1289 186.215 91.2266 186.223 91.2812 186.223C91.7734 186.223 92.1914 186.156 92.5352 186.023C92.8789 185.898 93.168 185.684 93.4023 185.379C93.6445 185.082 93.8516 184.672 94.0234 184.148L94.9258 181.688ZM92.3359 170.32L95.6289 180.164L96.1914 182.449L94.6328 183.246L89.9688 170.32H92.3359ZM106.574 177.48L101.77 170.32H104.383L107.664 175.57H110.195L109.879 177.48H106.574ZM107.758 177.258L104.078 183H101.336L106.387 175.688L107.758 177.258ZM111.309 170.32V183H109.141V170.32H111.309ZM118.703 170.32L113.898 177.48H110.594L110.254 175.57H112.797L116.078 170.32H118.703ZM116.383 183L112.691 177.258L114.086 175.688L119.125 183H116.383ZM129.73 175.816V177.574H123.027V175.816H129.73ZM123.484 170.32V183H121.316V170.32H123.484ZM131.488 170.32V183H129.309V170.32H131.488ZM136.762 174.68H140.57C141.594 174.68 142.457 174.859 143.16 175.219C143.863 175.57 144.395 176.059 144.754 176.684C145.121 177.301 145.305 178.004 145.305 178.793C145.305 179.379 145.203 179.93 145 180.445C144.797 180.953 144.492 181.398 144.086 181.781C143.688 182.164 143.191 182.465 142.598 182.684C142.012 182.895 141.336 183 140.57 183H135.18V170.32H137.348V181.219H140.57C141.195 181.219 141.695 181.105 142.07 180.879C142.445 180.652 142.715 180.359 142.879 180C143.043 179.641 143.125 179.266 143.125 178.875C143.125 178.492 143.043 178.117 142.879 177.75C142.715 177.383 142.445 177.078 142.07 176.836C141.695 176.586 141.195 176.461 140.57 176.461H136.762V174.68ZM149.816 170.32V183H147.648V170.32H149.816ZM158.875 183.234C157.992 183.234 157.191 183.086 156.473 182.789C155.762 182.484 155.148 182.059 154.633 181.512C154.125 180.965 153.734 180.316 153.461 179.566C153.188 178.816 153.051 177.996 153.051 177.105V176.613C153.051 175.582 153.203 174.664 153.508 173.859C153.812 173.047 154.227 172.359 154.75 171.797C155.273 171.234 155.867 170.809 156.531 170.52C157.195 170.23 157.883 170.086 158.594 170.086C159.5 170.086 160.281 170.242 160.938 170.555C161.602 170.867 162.145 171.305 162.566 171.867C162.988 172.422 163.301 173.078 163.504 173.836C163.707 174.586 163.809 175.406 163.809 176.297V177.27H154.34V175.5H161.641V175.336C161.609 174.773 161.492 174.227 161.289 173.695C161.094 173.164 160.781 172.727 160.352 172.383C159.922 172.039 159.336 171.867 158.594 171.867C158.102 171.867 157.648 171.973 157.234 172.184C156.82 172.387 156.465 172.691 156.168 173.098C155.871 173.504 155.641 174 155.477 174.586C155.312 175.172 155.23 175.848 155.23 176.613V177.105C155.23 177.707 155.312 178.273 155.477 178.805C155.648 179.328 155.895 179.789 156.215 180.188C156.543 180.586 156.938 180.898 157.398 181.125C157.867 181.352 158.398 181.465 158.992 181.465C159.758 181.465 160.406 181.309 160.938 180.996C161.469 180.684 161.934 180.266 162.332 179.742L163.645 180.785C163.371 181.199 163.023 181.594 162.602 181.969C162.18 182.344 161.66 182.648 161.043 182.883C160.434 183.117 159.711 183.234 158.875 183.234ZM177.367 181.453C177.883 181.453 178.359 181.348 178.797 181.137C179.234 180.926 179.594 180.637 179.875 180.27C180.156 179.895 180.316 179.469 180.355 178.992H182.418C182.379 179.742 182.125 180.441 181.656 181.09C181.195 181.73 180.59 182.25 179.84 182.648C179.09 183.039 178.266 183.234 177.367 183.234C176.414 183.234 175.582 183.066 174.871 182.73C174.168 182.395 173.582 181.934 173.113 181.348C172.652 180.762 172.305 180.09 172.07 179.332C171.844 178.566 171.73 177.758 171.73 176.906V176.414C171.73 175.562 171.844 174.758 172.07 174C172.305 173.234 172.652 172.559 173.113 171.973C173.582 171.387 174.168 170.926 174.871 170.59C175.582 170.254 176.414 170.086 177.367 170.086C178.359 170.086 179.227 170.289 179.969 170.695C180.711 171.094 181.293 171.641 181.715 172.336C182.145 173.023 182.379 173.805 182.418 174.68H180.355C180.316 174.156 180.168 173.684 179.91 173.262C179.66 172.84 179.316 172.504 178.879 172.254C178.449 171.996 177.945 171.867 177.367 171.867C176.703 171.867 176.145 172 175.691 172.266C175.246 172.523 174.891 172.875 174.625 173.32C174.367 173.758 174.18 174.246 174.062 174.785C173.953 175.316 173.898 175.859 173.898 176.414V176.906C173.898 177.461 173.953 178.008 174.062 178.547C174.172 179.086 174.355 179.574 174.613 180.012C174.879 180.449 175.234 180.801 175.68 181.066C176.133 181.324 176.695 181.453 177.367 181.453ZM190.023 170.32V183H187.844V170.32H190.023ZM194.277 170.32V172.078H183.672V170.32H194.277ZM203.699 180.832V174.305C203.699 173.805 203.598 173.371 203.395 173.004C203.199 172.629 202.902 172.34 202.504 172.137C202.105 171.934 201.613 171.832 201.027 171.832C200.48 171.832 200 171.926 199.586 172.113C199.18 172.301 198.859 172.547 198.625 172.852C198.398 173.156 198.285 173.484 198.285 173.836H196.117C196.117 173.383 196.234 172.934 196.469 172.488C196.703 172.043 197.039 171.641 197.477 171.281C197.922 170.914 198.453 170.625 199.07 170.414C199.695 170.195 200.391 170.086 201.156 170.086C202.078 170.086 202.891 170.242 203.594 170.555C204.305 170.867 204.859 171.34 205.258 171.973C205.664 172.598 205.867 173.383 205.867 174.328V180.234C205.867 180.656 205.902 181.105 205.973 181.582C206.051 182.059 206.164 182.469 206.312 182.812V183H204.051C203.941 182.75 203.855 182.418 203.793 182.004C203.73 181.582 203.699 181.191 203.699 180.832ZM204.074 175.312L204.098 176.836H201.906C201.289 176.836 200.738 176.887 200.254 176.988C199.77 177.082 199.363 177.227 199.035 177.422C198.707 177.617 198.457 177.863 198.285 178.16C198.113 178.449 198.027 178.789 198.027 179.18C198.027 179.578 198.117 179.941 198.297 180.27C198.477 180.598 198.746 180.859 199.105 181.055C199.473 181.242 199.922 181.336 200.453 181.336C201.117 181.336 201.703 181.195 202.211 180.914C202.719 180.633 203.121 180.289 203.418 179.883C203.723 179.477 203.887 179.082 203.91 178.699L204.836 179.742C204.781 180.07 204.633 180.434 204.391 180.832C204.148 181.23 203.824 181.613 203.418 181.98C203.02 182.34 202.543 182.641 201.988 182.883C201.441 183.117 200.824 183.234 200.137 183.234C199.277 183.234 198.523 183.066 197.875 182.73C197.234 182.395 196.734 181.945 196.375 181.383C196.023 180.812 195.848 180.176 195.848 179.473C195.848 178.793 195.98 178.195 196.246 177.68C196.512 177.156 196.895 176.723 197.395 176.379C197.895 176.027 198.496 175.762 199.199 175.582C199.902 175.402 200.688 175.312 201.555 175.312H204.074ZM214.258 170.32V183H212.078V170.32H214.258ZM218.512 170.32V172.078H207.906V170.32H218.512ZM222.988 179.566L228.836 170.32H231.016V183H228.836V173.754L222.988 183H220.832V170.32H222.988V179.566ZM239.57 181.453C240.086 181.453 240.562 181.348 241 181.137C241.438 180.926 241.797 180.637 242.078 180.27C242.359 179.895 242.52 179.469 242.559 178.992H244.621C244.582 179.742 244.328 180.441 243.859 181.09C243.398 181.73 242.793 182.25 242.043 182.648C241.293 183.039 240.469 183.234 239.57 183.234C238.617 183.234 237.785 183.066 237.074 182.73C236.371 182.395 235.785 181.934 235.316 181.348C234.855 180.762 234.508 180.09 234.273 179.332C234.047 178.566 233.934 177.758 233.934 176.906V176.414C233.934 175.562 234.047 174.758 234.273 174C234.508 173.234 234.855 172.559 235.316 171.973C235.785 171.387 236.371 170.926 237.074 170.59C237.785 170.254 238.617 170.086 239.57 170.086C240.562 170.086 241.43 170.289 242.172 170.695C242.914 171.094 243.496 171.641 243.918 172.336C244.348 173.023 244.582 173.805 244.621 174.68H242.559C242.52 174.156 242.371 173.684 242.113 173.262C241.863 172.84 241.52 172.504 241.082 172.254C240.652 171.996 240.148 171.867 239.57 171.867C238.906 171.867 238.348 172 237.895 172.266C237.449 172.523 237.094 172.875 236.828 173.32C236.57 173.758 236.383 174.246 236.266 174.785C236.156 175.316 236.102 175.859 236.102 176.414V176.906C236.102 177.461 236.156 178.008 236.266 178.547C236.375 179.086 236.559 179.574 236.816 180.012C237.082 180.449 237.438 180.801 237.883 181.066C238.336 181.324 238.898 181.453 239.57 181.453ZM252.227 170.32V183H250.047V170.32H252.227ZM256.48 170.32V172.078H245.875V170.32H256.48ZM260.957 179.566L266.805 170.32H268.984V183H266.805V173.754L260.957 183H258.801V170.32H260.957V179.566ZM274.82 170.32V183H272.652V170.32H274.82ZM283.141 170.32L277.129 177.586H274.094L273.766 175.688H276.25L280.504 170.32H283.141ZM280.809 183L276.145 177.258L277.539 175.688L283.562 183H280.809ZM287.793 179.566L293.641 170.32H295.82V183H293.641V173.754L287.793 183H285.637V170.32H287.793V179.566ZM301.27 180.422V182.168C301.27 182.879 301.09 183.629 300.73 184.418C300.371 185.215 299.867 185.879 299.219 186.41L297.988 185.555C298.238 185.211 298.449 184.859 298.621 184.5C298.793 184.148 298.922 183.781 299.008 183.398C299.102 183.023 299.148 182.625 299.148 182.203V180.422H301.27ZM52.3867 204.941H50.0547V203.605H52.2109C52.8125 203.605 53.2891 203.531 53.6406 203.383C53.9922 203.227 54.2422 203.012 54.3906 202.738C54.5391 202.465 54.6133 202.145 54.6133 201.777C54.6133 201.449 54.5273 201.141 54.3555 200.852C54.1914 200.555 53.9258 200.316 53.5586 200.137C53.1914 199.949 52.6992 199.855 52.082 199.855C51.582 199.855 51.1289 199.945 50.7227 200.125C50.3164 200.297 49.9922 200.535 49.75 200.84C49.5156 201.137 49.3984 201.473 49.3984 201.848H47.2305C47.2305 201.074 47.4492 200.41 47.8867 199.855C48.332 199.293 48.9219 198.859 49.6562 198.555C50.3984 198.25 51.207 198.098 52.082 198.098C52.8164 198.098 53.4727 198.18 54.0508 198.344C54.6367 198.5 55.1328 198.734 55.5391 199.047C55.9453 199.352 56.2539 199.734 56.4648 200.195C56.6836 200.648 56.793 201.176 56.793 201.777C56.793 202.207 56.6914 202.613 56.4883 202.996C56.2852 203.379 55.9922 203.719 55.6094 204.016C55.2266 204.305 54.7617 204.531 54.2148 204.695C53.6758 204.859 53.0664 204.941 52.3867 204.941ZM50.0547 204.121H52.3867C53.1445 204.121 53.8125 204.195 54.3906 204.344C54.9688 204.484 55.4531 204.695 55.8438 204.977C56.2344 205.258 56.5273 205.605 56.7227 206.02C56.9258 206.426 57.0273 206.895 57.0273 207.426C57.0273 208.02 56.9062 208.555 56.6641 209.031C56.4297 209.5 56.0938 209.898 55.6562 210.227C55.2188 210.555 54.6953 210.805 54.0859 210.977C53.4844 211.148 52.8164 211.234 52.082 211.234C51.2617 211.234 50.4648 211.094 49.6914 210.812C48.918 210.531 48.2812 210.098 47.7812 209.512C47.2812 208.918 47.0312 208.164 47.0312 207.25H49.1992C49.1992 207.633 49.3203 207.996 49.5625 208.34C49.8047 208.684 50.1406 208.961 50.5703 209.172C51.0078 209.383 51.5117 209.488 52.082 209.488C52.6914 209.488 53.1992 209.395 53.6055 209.207C54.0117 209.02 54.3164 208.77 54.5195 208.457C54.7305 208.145 54.8359 207.805 54.8359 207.438C54.8359 206.961 54.7422 206.578 54.5547 206.289C54.3672 206 54.0781 205.789 53.6875 205.656C53.3047 205.516 52.8125 205.445 52.2109 205.445H50.0547V204.121ZM67.3164 208.832V202.305C67.3164 201.805 67.2148 201.371 67.0117 201.004C66.8164 200.629 66.5195 200.34 66.1211 200.137C65.7227 199.934 65.2305 199.832 64.6445 199.832C64.0977 199.832 63.6172 199.926 63.2031 200.113C62.7969 200.301 62.4766 200.547 62.2422 200.852C62.0156 201.156 61.9023 201.484 61.9023 201.836H59.7344C59.7344 201.383 59.8516 200.934 60.0859 200.488C60.3203 200.043 60.6562 199.641 61.0938 199.281C61.5391 198.914 62.0703 198.625 62.6875 198.414C63.3125 198.195 64.0078 198.086 64.7734 198.086C65.6953 198.086 66.5078 198.242 67.2109 198.555C67.9219 198.867 68.4766 199.34 68.875 199.973C69.2812 200.598 69.4844 201.383 69.4844 202.328V208.234C69.4844 208.656 69.5195 209.105 69.5898 209.582C69.668 210.059 69.7812 210.469 69.9297 210.812V211H67.668C67.5586 210.75 67.4727 210.418 67.4102 210.004C67.3477 209.582 67.3164 209.191 67.3164 208.832ZM67.6914 203.312L67.7148 204.836H65.5234C64.9062 204.836 64.3555 204.887 63.8711 204.988C63.3867 205.082 62.9805 205.227 62.6523 205.422C62.3242 205.617 62.0742 205.863 61.9023 206.16C61.7305 206.449 61.6445 206.789 61.6445 207.18C61.6445 207.578 61.7344 207.941 61.9141 208.27C62.0938 208.598 62.3633 208.859 62.7227 209.055C63.0898 209.242 63.5391 209.336 64.0703 209.336C64.7344 209.336 65.3203 209.195 65.8281 208.914C66.3359 208.633 66.7383 208.289 67.0352 207.883C67.3398 207.477 67.5039 207.082 67.5273 206.699L68.4531 207.742C68.3984 208.07 68.25 208.434 68.0078 208.832C67.7656 209.23 67.4414 209.613 67.0352 209.98C66.6367 210.34 66.1602 210.641 65.6055 210.883C65.0586 211.117 64.4414 211.234 63.7539 211.234C62.8945 211.234 62.1406 211.066 61.4922 210.73C60.8516 210.395 60.3516 209.945 59.9922 209.383C59.6406 208.812 59.4648 208.176 59.4648 207.473C59.4648 206.793 59.5977 206.195 59.8633 205.68C60.1289 205.156 60.5117 204.723 61.0117 204.379C61.5117 204.027 62.1133 203.762 62.8164 203.582C63.5195 203.402 64.3047 203.312 65.1719 203.312H67.6914ZM81.4961 203.816V205.574H74.793V203.816H81.4961ZM75.25 198.32V211H73.082V198.32H75.25ZM83.2539 198.32V211H81.0742V198.32H83.2539ZM89.0898 207.566L94.9375 198.32H97.1172V211H94.9375V201.754L89.0898 211H86.9336V198.32H89.0898V207.566ZM107.887 208.117L112.199 198.32H114.285L108.637 211H107.137L101.512 198.32H103.598L107.887 208.117ZM102.965 198.32V211H100.797V198.32H102.965ZM112.738 211V198.32H114.918V211H112.738ZM125.887 208.832V202.305C125.887 201.805 125.785 201.371 125.582 201.004C125.387 200.629 125.09 200.34 124.691 200.137C124.293 199.934 123.801 199.832 123.215 199.832C122.668 199.832 122.188 199.926 121.773 200.113C121.367 200.301 121.047 200.547 120.812 200.852C120.586 201.156 120.473 201.484 120.473 201.836H118.305C118.305 201.383 118.422 200.934 118.656 200.488C118.891 200.043 119.227 199.641 119.664 199.281C120.109 198.914 120.641 198.625 121.258 198.414C121.883 198.195 122.578 198.086 123.344 198.086C124.266 198.086 125.078 198.242 125.781 198.555C126.492 198.867 127.047 199.34 127.445 199.973C127.852 200.598 128.055 201.383 128.055 202.328V208.234C128.055 208.656 128.09 209.105 128.16 209.582C128.238 210.059 128.352 210.469 128.5 210.812V211H126.238C126.129 210.75 126.043 210.418 125.98 210.004C125.918 209.582 125.887 209.191 125.887 208.832ZM126.262 203.312L126.285 204.836H124.094C123.477 204.836 122.926 204.887 122.441 204.988C121.957 205.082 121.551 205.227 121.223 205.422C120.895 205.617 120.645 205.863 120.473 206.16C120.301 206.449 120.215 206.789 120.215 207.18C120.215 207.578 120.305 207.941 120.484 208.27C120.664 208.598 120.934 208.859 121.293 209.055C121.66 209.242 122.109 209.336 122.641 209.336C123.305 209.336 123.891 209.195 124.398 208.914C124.906 208.633 125.309 208.289 125.605 207.883C125.91 207.477 126.074 207.082 126.098 206.699L127.023 207.742C126.969 208.07 126.82 208.434 126.578 208.832C126.336 209.23 126.012 209.613 125.605 209.98C125.207 210.34 124.73 210.641 124.176 210.883C123.629 211.117 123.012 211.234 122.324 211.234C121.465 211.234 120.711 211.066 120.062 210.73C119.422 210.395 118.922 209.945 118.562 209.383C118.211 208.812 118.035 208.176 118.035 207.473C118.035 206.793 118.168 206.195 118.434 205.68C118.699 205.156 119.082 204.723 119.582 204.379C120.082 204.027 120.684 203.762 121.387 203.582C122.09 203.402 122.875 203.312 123.742 203.312H126.262ZM138.684 203.699V205.469H131.945V203.699H138.684ZM133.832 198.32V211H131.664V198.32H133.832ZM136.832 204.801V204.531C136.832 203.617 136.965 202.77 137.23 201.988C137.496 201.199 137.879 200.516 138.379 199.938C138.887 199.352 139.492 198.898 140.195 198.578C140.906 198.25 141.703 198.086 142.586 198.086C143.484 198.086 144.289 198.25 145 198.578C145.711 198.898 146.316 199.352 146.816 199.938C147.324 200.516 147.711 201.199 147.977 201.988C148.242 202.77 148.375 203.617 148.375 204.531V204.801C148.375 205.715 148.242 206.562 147.977 207.344C147.711 208.125 147.328 208.809 146.828 209.395C146.328 209.973 145.723 210.426 145.012 210.754C144.301 211.074 143.5 211.234 142.609 211.234C141.719 211.234 140.918 211.074 140.207 210.754C139.496 210.426 138.887 209.973 138.379 209.395C137.879 208.809 137.496 208.125 137.23 207.344C136.965 206.562 136.832 205.715 136.832 204.801ZM139.012 204.531V204.801C139.012 205.434 139.086 206.031 139.234 206.594C139.383 207.148 139.605 207.641 139.902 208.07C140.207 208.5 140.582 208.84 141.027 209.09C141.48 209.332 142.008 209.453 142.609 209.453C143.211 209.453 143.734 209.332 144.18 209.09C144.633 208.84 145.008 208.5 145.305 208.07C145.602 207.641 145.824 207.148 145.973 206.594C146.129 206.031 146.207 205.434 146.207 204.801V204.531C146.207 203.906 146.129 203.316 145.973 202.762C145.824 202.199 145.598 201.703 145.293 201.273C144.996 200.836 144.621 200.492 144.168 200.242C143.715 199.992 143.188 199.867 142.586 199.867C141.992 199.867 141.473 199.992 141.027 200.242C140.582 200.492 140.207 200.836 139.902 201.273C139.605 201.703 139.383 202.199 139.234 202.762C139.086 203.316 139.012 203.906 139.012 204.531ZM168.684 209.219L168.473 214.762H166.539V211H164.887V209.219H168.684ZM151.117 198.32H153.285V209.219H157.926V198.32H160.105V209.219H164.734V198.32H166.902V211H151.117V198.32ZM173.277 207.566L179.125 198.32H181.305V211H179.125V201.754L173.277 211H171.121V198.32H173.277V207.566ZM190.047 211.234C189.164 211.234 188.363 211.086 187.645 210.789C186.934 210.484 186.32 210.059 185.805 209.512C185.297 208.965 184.906 208.316 184.633 207.566C184.359 206.816 184.223 205.996 184.223 205.105V204.613C184.223 203.582 184.375 202.664 184.68 201.859C184.984 201.047 185.398 200.359 185.922 199.797C186.445 199.234 187.039 198.809 187.703 198.52C188.367 198.23 189.055 198.086 189.766 198.086C190.672 198.086 191.453 198.242 192.109 198.555C192.773 198.867 193.316 199.305 193.738 199.867C194.16 200.422 194.473 201.078 194.676 201.836C194.879 202.586 194.98 203.406 194.98 204.297V205.27H185.512V203.5H192.812V203.336C192.781 202.773 192.664 202.227 192.461 201.695C192.266 201.164 191.953 200.727 191.523 200.383C191.094 200.039 190.508 199.867 189.766 199.867C189.273 199.867 188.82 199.973 188.406 200.184C187.992 200.387 187.637 200.691 187.34 201.098C187.043 201.504 186.812 202 186.648 202.586C186.484 203.172 186.402 203.848 186.402 204.613V205.105C186.402 205.707 186.484 206.273 186.648 206.805C186.82 207.328 187.066 207.789 187.387 208.188C187.715 208.586 188.109 208.898 188.57 209.125C189.039 209.352 189.57 209.465 190.164 209.465C190.93 209.465 191.578 209.309 192.109 208.996C192.641 208.684 193.105 208.266 193.504 207.742L194.816 208.785C194.543 209.199 194.195 209.594 193.773 209.969C193.352 210.344 192.832 210.648 192.215 210.883C191.605 211.117 190.883 211.234 190.047 211.234ZM210.754 208.117L215.066 198.32H217.152L211.504 211H210.004L204.379 198.32H206.465L210.754 208.117ZM205.832 198.32V211H203.664V198.32H205.832ZM215.605 211V198.32H217.785V211H215.605ZM226.539 211.234C225.656 211.234 224.855 211.086 224.137 210.789C223.426 210.484 222.812 210.059 222.297 209.512C221.789 208.965 221.398 208.316 221.125 207.566C220.852 206.816 220.715 205.996 220.715 205.105V204.613C220.715 203.582 220.867 202.664 221.172 201.859C221.477 201.047 221.891 200.359 222.414 199.797C222.938 199.234 223.531 198.809 224.195 198.52C224.859 198.23 225.547 198.086 226.258 198.086C227.164 198.086 227.945 198.242 228.602 198.555C229.266 198.867 229.809 199.305 230.23 199.867C230.652 200.422 230.965 201.078 231.168 201.836C231.371 202.586 231.473 203.406 231.473 204.297V205.27H222.004V203.5H229.305V203.336C229.273 202.773 229.156 202.227 228.953 201.695C228.758 201.164 228.445 200.727 228.016 200.383C227.586 200.039 227 199.867 226.258 199.867C225.766 199.867 225.312 199.973 224.898 200.184C224.484 200.387 224.129 200.691 223.832 201.098C223.535 201.504 223.305 202 223.141 202.586C222.977 203.172 222.895 203.848 222.895 204.613V205.105C222.895 205.707 222.977 206.273 223.141 206.805C223.312 207.328 223.559 207.789 223.879 208.188C224.207 208.586 224.602 208.898 225.062 209.125C225.531 209.352 226.062 209.465 226.656 209.465C227.422 209.465 228.07 209.309 228.602 208.996C229.133 208.684 229.598 208.266 229.996 207.742L231.309 208.785C231.035 209.199 230.688 209.594 230.266 209.969C229.844 210.344 229.324 210.648 228.707 210.883C228.098 211.117 227.375 211.234 226.539 211.234ZM239.078 209.453C239.594 209.453 240.07 209.348 240.508 209.137C240.945 208.926 241.305 208.637 241.586 208.27C241.867 207.895 242.027 207.469 242.066 206.992H244.129C244.09 207.742 243.836 208.441 243.367 209.09C242.906 209.73 242.301 210.25 241.551 210.648C240.801 211.039 239.977 211.234 239.078 211.234C238.125 211.234 237.293 211.066 236.582 210.73C235.879 210.395 235.293 209.934 234.824 209.348C234.363 208.762 234.016 208.09 233.781 207.332C233.555 206.566 233.441 205.758 233.441 204.906V204.414C233.441 203.562 233.555 202.758 233.781 202C234.016 201.234 234.363 200.559 234.824 199.973C235.293 199.387 235.879 198.926 236.582 198.59C237.293 198.254 238.125 198.086 239.078 198.086C240.07 198.086 240.938 198.289 241.68 198.695C242.422 199.094 243.004 199.641 243.426 200.336C243.855 201.023 244.09 201.805 244.129 202.68H242.066C242.027 202.156 241.879 201.684 241.621 201.262C241.371 200.84 241.027 200.504 240.59 200.254C240.16 199.996 239.656 199.867 239.078 199.867C238.414 199.867 237.855 200 237.402 200.266C236.957 200.523 236.602 200.875 236.336 201.32C236.078 201.758 235.891 202.246 235.773 202.785C235.664 203.316 235.609 203.859 235.609 204.414V204.906C235.609 205.461 235.664 206.008 235.773 206.547C235.883 207.086 236.066 207.574 236.324 208.012C236.59 208.449 236.945 208.801 237.391 209.066C237.844 209.324 238.406 209.453 239.078 209.453ZM251.734 198.32V211H249.555V198.32H251.734ZM255.988 198.32V200.078H245.383V198.32H255.988ZM257.055 204.801V204.531C257.055 203.617 257.188 202.77 257.453 201.988C257.719 201.199 258.102 200.516 258.602 199.938C259.102 199.352 259.707 198.898 260.418 198.578C261.129 198.25 261.926 198.086 262.809 198.086C263.699 198.086 264.5 198.25 265.211 198.578C265.93 198.898 266.539 199.352 267.039 199.938C267.547 200.516 267.934 201.199 268.199 201.988C268.465 202.77 268.598 203.617 268.598 204.531V204.801C268.598 205.715 268.465 206.562 268.199 207.344C267.934 208.125 267.547 208.809 267.039 209.395C266.539 209.973 265.934 210.426 265.223 210.754C264.52 211.074 263.723 211.234 262.832 211.234C261.941 211.234 261.141 211.074 260.43 210.754C259.719 210.426 259.109 209.973 258.602 209.395C258.102 208.809 257.719 208.125 257.453 207.344C257.188 206.562 257.055 205.715 257.055 204.801ZM259.223 204.531V204.801C259.223 205.434 259.297 206.031 259.445 206.594C259.594 207.148 259.816 207.641 260.113 208.07C260.418 208.5 260.797 208.84 261.25 209.09C261.703 209.332 262.23 209.453 262.832 209.453C263.426 209.453 263.945 209.332 264.391 209.09C264.844 208.84 265.219 208.5 265.516 208.07C265.812 207.641 266.035 207.148 266.184 206.594C266.34 206.031 266.418 205.434 266.418 204.801V204.531C266.418 203.906 266.34 203.316 266.184 202.762C266.035 202.199 265.809 201.703 265.504 201.273C265.207 200.836 264.832 200.492 264.379 200.242C263.934 199.992 263.41 199.867 262.809 199.867C262.215 199.867 261.691 199.992 261.238 200.242C260.793 200.492 260.418 200.836 260.113 201.273C259.816 201.703 259.594 202.199 259.445 202.762C259.297 203.316 259.223 203.906 259.223 204.531ZM25.5742 230.422V229.941C25.5742 229.27 25.7852 228.715 26.207 228.277C26.6367 227.84 27.2188 227.621 27.9531 227.621C28.6953 227.621 29.2812 227.84 29.7109 228.277C30.1406 228.715 30.3555 229.27 30.3555 229.941V230.422C30.3555 231.086 30.1406 231.637 29.7109 232.074C29.2891 232.504 28.707 232.719 27.9648 232.719C27.2305 232.719 26.6484 232.504 26.2188 232.074C25.7891 231.637 25.5742 231.086 25.5742 230.422ZM61.1172 229.93V231.008C61.1172 232.289 60.957 233.438 60.6367 234.453C60.3164 235.469 59.8555 236.332 59.2539 237.043C58.6523 237.754 57.9297 238.297 57.0859 238.672C56.25 239.047 55.3125 239.234 54.2734 239.234C53.2656 239.234 52.3398 239.047 51.4961 238.672C50.6602 238.297 49.9336 237.754 49.3164 237.043C48.707 236.332 48.2344 235.469 47.8984 234.453C47.5625 233.438 47.3945 232.289 47.3945 231.008V229.93C47.3945 228.648 47.5586 227.504 47.8867 226.496C48.2227 225.48 48.6953 224.617 49.3047 223.906C49.9141 223.188 50.6367 222.641 51.4727 222.266C52.3164 221.891 53.2422 221.703 54.25 221.703C55.2891 221.703 56.2266 221.891 57.0625 222.266C57.9062 222.641 58.6289 223.188 59.2305 223.906C59.8398 224.617 60.3047 225.48 60.625 226.496C60.9531 227.504 61.1172 228.648 61.1172 229.93ZM58.8789 231.008V229.906C58.8789 228.891 58.7734 227.992 58.5625 227.211C58.3594 226.43 58.0586 225.773 57.6602 225.242C57.2617 224.711 56.7734 224.309 56.1953 224.035C55.625 223.762 54.9766 223.625 54.25 223.625C53.5469 223.625 52.9102 223.762 52.3398 224.035C51.7773 224.309 51.293 224.711 50.8867 225.242C50.4883 225.773 50.1797 226.43 49.9609 227.211C49.7422 227.992 49.6328 228.891 49.6328 229.906V231.008C49.6328 232.031 49.7422 232.938 49.9609 233.727C50.1797 234.508 50.4922 235.168 50.8984 235.707C51.3125 236.238 51.8008 236.641 52.3633 236.914C52.9336 237.188 53.5703 237.324 54.2734 237.324C55.0078 237.324 55.6602 237.188 56.2305 236.914C56.8008 236.641 57.2812 236.238 57.6719 235.707C58.0703 235.168 58.3711 234.508 58.5742 233.727C58.7773 232.938 58.8789 232.031 58.8789 231.008ZM66.3438 228.758V243.875H64.1641V226.32H66.1562L66.3438 228.758ZM74.8867 232.555V232.801C74.8867 233.723 74.7773 234.578 74.5586 235.367C74.3398 236.148 74.0195 236.828 73.5977 237.406C73.1836 237.984 72.6719 238.434 72.0625 238.754C71.4531 239.074 70.7539 239.234 69.9648 239.234C69.1602 239.234 68.4492 239.102 67.832 238.836C67.2148 238.57 66.6914 238.184 66.2617 237.676C65.832 237.168 65.4883 236.559 65.2305 235.848C64.9805 235.137 64.8086 234.336 64.7148 233.445V232.133C64.8086 231.195 64.9844 230.355 65.2422 229.613C65.5 228.871 65.8398 228.238 66.2617 227.715C66.6914 227.184 67.2109 226.781 67.8203 226.508C68.4297 226.227 69.1328 226.086 69.9297 226.086C70.7266 226.086 71.4336 226.242 72.0508 226.555C72.668 226.859 73.1875 227.297 73.6094 227.867C74.0312 228.438 74.3477 229.121 74.5586 229.918C74.7773 230.707 74.8867 231.586 74.8867 232.555ZM72.707 232.801V232.555C72.707 231.922 72.6406 231.328 72.5078 230.773C72.375 230.211 72.168 229.719 71.8867 229.297C71.6133 228.867 71.2617 228.531 70.832 228.289C70.4023 228.039 69.8906 227.914 69.2969 227.914C68.75 227.914 68.2734 228.008 67.8672 228.195C67.4688 228.383 67.1289 228.637 66.8477 228.957C66.5664 229.27 66.3359 229.629 66.1562 230.035C65.9844 230.434 65.8555 230.848 65.7695 231.277V234.312C65.9258 234.859 66.1445 235.375 66.4258 235.859C66.707 236.336 67.082 236.723 67.5508 237.02C68.0195 237.309 68.6094 237.453 69.3203 237.453C69.9062 237.453 70.4102 237.332 70.832 237.09C71.2617 236.84 71.6133 236.5 71.8867 236.07C72.168 235.641 72.375 235.148 72.5078 234.594C72.6406 234.031 72.707 233.434 72.707 232.801ZM79.9961 235.566L85.8438 226.32H88.0234V239H85.8438V229.754L79.9961 239H77.8398V226.32H79.9961V235.566ZM96.7656 239.234C95.8828 239.234 95.082 239.086 94.3633 238.789C93.6523 238.484 93.0391 238.059 92.5234 237.512C92.0156 236.965 91.625 236.316 91.3516 235.566C91.0781 234.816 90.9414 233.996 90.9414 233.105V232.613C90.9414 231.582 91.0938 230.664 91.3984 229.859C91.7031 229.047 92.1172 228.359 92.6406 227.797C93.1641 227.234 93.7578 226.809 94.4219 226.52C95.0859 226.23 95.7734 226.086 96.4844 226.086C97.3906 226.086 98.1719 226.242 98.8281 226.555C99.4922 226.867 100.035 227.305 100.457 227.867C100.879 228.422 101.191 229.078 101.395 229.836C101.598 230.586 101.699 231.406 101.699 232.297V233.27H92.2305V231.5H99.5312V231.336C99.5 230.773 99.3828 230.227 99.1797 229.695C98.9844 229.164 98.6719 228.727 98.2422 228.383C97.8125 228.039 97.2266 227.867 96.4844 227.867C95.9922 227.867 95.5391 227.973 95.125 228.184C94.7109 228.387 94.3555 228.691 94.0586 229.098C93.7617 229.504 93.5312 230 93.3672 230.586C93.2031 231.172 93.1211 231.848 93.1211 232.613V233.105C93.1211 233.707 93.2031 234.273 93.3672 234.805C93.5391 235.328 93.7852 235.789 94.1055 236.188C94.4336 236.586 94.8281 236.898 95.2891 237.125C95.7578 237.352 96.2891 237.465 96.8828 237.465C97.6484 237.465 98.2969 237.309 98.8281 236.996C99.3594 236.684 99.8242 236.266 100.223 235.742L101.535 236.785C101.262 237.199 100.914 237.594 100.492 237.969C100.07 238.344 99.5508 238.648 98.9336 238.883C98.3242 239.117 97.6016 239.234 96.7656 239.234ZM112.832 231.816V233.574H106.129V231.816H112.832ZM106.586 226.32V239H104.418V226.32H106.586ZM114.59 226.32V239H112.41V226.32H114.59ZM123.25 226.32V239H121.07V226.32H123.25ZM127.504 226.32V228.078H116.898V226.32H127.504ZM131.98 235.566L137.828 226.32H140.008V239H137.828V229.754L131.98 239H129.824V226.32H131.98V235.566ZM145.656 228.758V243.875H143.477V226.32H145.469L145.656 228.758ZM154.199 232.555V232.801C154.199 233.723 154.09 234.578 153.871 235.367C153.652 236.148 153.332 236.828 152.91 237.406C152.496 237.984 151.984 238.434 151.375 238.754C150.766 239.074 150.066 239.234 149.277 239.234C148.473 239.234 147.762 239.102 147.145 238.836C146.527 238.57 146.004 238.184 145.574 237.676C145.145 237.168 144.801 236.559 144.543 235.848C144.293 235.137 144.121 234.336 144.027 233.445V232.133C144.121 231.195 144.297 230.355 144.555 229.613C144.812 228.871 145.152 228.238 145.574 227.715C146.004 227.184 146.523 226.781 147.133 226.508C147.742 226.227 148.445 226.086 149.242 226.086C150.039 226.086 150.746 226.242 151.363 226.555C151.98 226.859 152.5 227.297 152.922 227.867C153.344 228.438 153.66 229.121 153.871 229.918C154.09 230.707 154.199 231.586 154.199 232.555ZM152.02 232.801V232.555C152.02 231.922 151.953 231.328 151.82 230.773C151.688 230.211 151.48 229.719 151.199 229.297C150.926 228.867 150.574 228.531 150.145 228.289C149.715 228.039 149.203 227.914 148.609 227.914C148.062 227.914 147.586 228.008 147.18 228.195C146.781 228.383 146.441 228.637 146.16 228.957C145.879 229.27 145.648 229.629 145.469 230.035C145.297 230.434 145.168 230.848 145.082 231.277V234.312C145.238 234.859 145.457 235.375 145.738 235.859C146.02 236.336 146.395 236.723 146.863 237.02C147.332 237.309 147.922 237.453 148.633 237.453C149.219 237.453 149.723 237.332 150.145 237.09C150.574 236.84 150.926 236.5 151.199 236.07C151.48 235.641 151.688 235.148 151.82 234.594C151.953 234.031 152.02 233.434 152.02 232.801ZM171.52 231.816V233.574H164.816V231.816H171.52ZM165.273 226.32V239H163.105V226.32H165.273ZM173.277 226.32V239H171.098V226.32H173.277ZM184.246 236.832V230.305C184.246 229.805 184.145 229.371 183.941 229.004C183.746 228.629 183.449 228.34 183.051 228.137C182.652 227.934 182.16 227.832 181.574 227.832C181.027 227.832 180.547 227.926 180.133 228.113C179.727 228.301 179.406 228.547 179.172 228.852C178.945 229.156 178.832 229.484 178.832 229.836H176.664C176.664 229.383 176.781 228.934 177.016 228.488C177.25 228.043 177.586 227.641 178.023 227.281C178.469 226.914 179 226.625 179.617 226.414C180.242 226.195 180.938 226.086 181.703 226.086C182.625 226.086 183.438 226.242 184.141 226.555C184.852 226.867 185.406 227.34 185.805 227.973C186.211 228.598 186.414 229.383 186.414 230.328V236.234C186.414 236.656 186.449 237.105 186.52 237.582C186.598 238.059 186.711 238.469 186.859 238.812V239H184.598C184.488 238.75 184.402 238.418 184.34 238.004C184.277 237.582 184.246 237.191 184.246 236.832ZM184.621 231.312L184.645 232.836H182.453C181.836 232.836 181.285 232.887 180.801 232.988C180.316 233.082 179.91 233.227 179.582 233.422C179.254 233.617 179.004 233.863 178.832 234.16C178.66 234.449 178.574 234.789 178.574 235.18C178.574 235.578 178.664 235.941 178.844 236.27C179.023 236.598 179.293 236.859 179.652 237.055C180.02 237.242 180.469 237.336 181 237.336C181.664 237.336 182.25 237.195 182.758 236.914C183.266 236.633 183.668 236.289 183.965 235.883C184.27 235.477 184.434 235.082 184.457 234.699L185.383 235.742C185.328 236.07 185.18 236.434 184.938 236.832C184.695 237.23 184.371 237.613 183.965 237.98C183.566 238.34 183.09 238.641 182.535 238.883C181.988 239.117 181.371 239.234 180.684 239.234C179.824 239.234 179.07 239.066 178.422 238.73C177.781 238.395 177.281 237.945 176.922 237.383C176.57 236.812 176.395 236.176 176.395 235.473C176.395 234.793 176.527 234.195 176.793 233.68C177.059 233.156 177.441 232.723 177.941 232.379C178.441 232.027 179.043 231.762 179.746 231.582C180.449 231.402 181.234 231.312 182.102 231.312H184.621ZM198.133 226.32V239H195.965V226.32H198.133ZM206.453 226.32L200.441 233.586H197.406L197.078 231.688H199.562L203.816 226.32H206.453ZM204.121 239L199.457 233.258L200.852 231.688L206.875 239H204.121ZM207.93 232.801V232.531C207.93 231.617 208.062 230.77 208.328 229.988C208.594 229.199 208.977 228.516 209.477 227.938C209.977 227.352 210.582 226.898 211.293 226.578C212.004 226.25 212.801 226.086 213.684 226.086C214.574 226.086 215.375 226.25 216.086 226.578C216.805 226.898 217.414 227.352 217.914 227.938C218.422 228.516 218.809 229.199 219.074 229.988C219.34 230.77 219.473 231.617 219.473 232.531V232.801C219.473 233.715 219.34 234.562 219.074 235.344C218.809 236.125 218.422 236.809 217.914 237.395C217.414 237.973 216.809 238.426 216.098 238.754C215.395 239.074 214.598 239.234 213.707 239.234C212.816 239.234 212.016 239.074 211.305 238.754C210.594 238.426 209.984 237.973 209.477 237.395C208.977 236.809 208.594 236.125 208.328 235.344C208.062 234.562 207.93 233.715 207.93 232.801ZM210.098 232.531V232.801C210.098 233.434 210.172 234.031 210.32 234.594C210.469 235.148 210.691 235.641 210.988 236.07C211.293 236.5 211.672 236.84 212.125 237.09C212.578 237.332 213.105 237.453 213.707 237.453C214.301 237.453 214.82 237.332 215.266 237.09C215.719 236.84 216.094 236.5 216.391 236.07C216.688 235.641 216.91 235.148 217.059 234.594C217.215 234.031 217.293 233.434 217.293 232.801V232.531C217.293 231.906 217.215 231.316 217.059 230.762C216.91 230.199 216.684 229.703 216.379 229.273C216.082 228.836 215.707 228.492 215.254 228.242C214.809 227.992 214.285 227.867 213.684 227.867C213.09 227.867 212.566 227.992 212.113 228.242C211.668 228.492 211.293 228.836 210.988 229.273C210.691 229.703 210.469 230.199 210.32 230.762C210.172 231.316 210.098 231.906 210.098 232.531ZM229.48 236.117L233.793 226.32H235.879L230.23 239H228.73L223.105 226.32H225.191L229.48 236.117ZM224.559 226.32V239H222.391V226.32H224.559ZM234.332 239V226.32H236.512V239H234.332ZM247.48 236.832V230.305C247.48 229.805 247.379 229.371 247.176 229.004C246.98 228.629 246.684 228.34 246.285 228.137C245.887 227.934 245.395 227.832 244.809 227.832C244.262 227.832 243.781 227.926 243.367 228.113C242.961 228.301 242.641 228.547 242.406 228.852C242.18 229.156 242.066 229.484 242.066 229.836H239.898C239.898 229.383 240.016 228.934 240.25 228.488C240.484 228.043 240.82 227.641 241.258 227.281C241.703 226.914 242.234 226.625 242.852 226.414C243.477 226.195 244.172 226.086 244.938 226.086C245.859 226.086 246.672 226.242 247.375 226.555C248.086 226.867 248.641 227.34 249.039 227.973C249.445 228.598 249.648 229.383 249.648 230.328V236.234C249.648 236.656 249.684 237.105 249.754 237.582C249.832 238.059 249.945 238.469 250.094 238.812V239H247.832C247.723 238.75 247.637 238.418 247.574 238.004C247.512 237.582 247.48 237.191 247.48 236.832ZM247.855 231.312L247.879 232.836H245.688C245.07 232.836 244.52 232.887 244.035 232.988C243.551 233.082 243.145 233.227 242.816 233.422C242.488 233.617 242.238 233.863 242.066 234.16C241.895 234.449 241.809 234.789 241.809 235.18C241.809 235.578 241.898 235.941 242.078 236.27C242.258 236.598 242.527 236.859 242.887 237.055C243.254 237.242 243.703 237.336 244.234 237.336C244.898 237.336 245.484 237.195 245.992 236.914C246.5 236.633 246.902 236.289 247.199 235.883C247.504 235.477 247.668 235.082 247.691 234.699L248.617 235.742C248.562 236.07 248.414 236.434 248.172 236.832C247.93 237.23 247.605 237.613 247.199 237.98C246.801 238.34 246.324 238.641 245.77 238.883C245.223 239.117 244.605 239.234 243.918 239.234C243.059 239.234 242.305 239.066 241.656 238.73C241.016 238.395 240.516 237.945 240.156 237.383C239.805 236.812 239.629 236.176 239.629 235.473C239.629 234.793 239.762 234.195 240.027 233.68C240.293 233.156 240.676 232.723 241.176 232.379C241.676 232.027 242.277 231.762 242.98 231.582C243.684 231.402 244.469 231.312 245.336 231.312H247.855ZM261.66 231.816V233.574H254.957V231.816H261.66ZM255.414 226.32V239H253.246V226.32H255.414ZM263.418 226.32V239H261.238V226.32H263.418ZM269.195 226.32H271.363L271.176 231.066C271.129 232.27 270.992 233.309 270.766 234.184C270.539 235.059 270.25 235.805 269.898 236.422C269.547 237.031 269.152 237.543 268.715 237.957C268.285 238.371 267.84 238.719 267.379 239H266.301L266.359 237.23L266.805 237.219C267.062 236.914 267.312 236.602 267.555 236.281C267.797 235.953 268.02 235.566 268.223 235.121C268.426 234.668 268.594 234.117 268.727 233.469C268.867 232.812 268.957 232.012 268.996 231.066L269.195 226.32ZM269.734 226.32H277.363V239H275.195V228.324H269.734V226.32ZM265.809 237.219H278.992V242.738H276.824V239H267.977V242.738H265.797L265.809 237.219ZM289.996 231.816V233.574H283.293V231.816H289.996ZM283.75 226.32V239H281.582V226.32H283.75ZM291.754 226.32V239H289.574V226.32H291.754ZM294.672 232.801V232.531C294.672 231.617 294.805 230.77 295.07 229.988C295.336 229.199 295.719 228.516 296.219 227.938C296.719 227.352 297.324 226.898 298.035 226.578C298.746 226.25 299.543 226.086 300.426 226.086C301.316 226.086 302.117 226.25 302.828 226.578C303.547 226.898 304.156 227.352 304.656 227.938C305.164 228.516 305.551 229.199 305.816 229.988C306.082 230.77 306.215 231.617 306.215 232.531V232.801C306.215 233.715 306.082 234.562 305.816 235.344C305.551 236.125 305.164 236.809 304.656 237.395C304.156 237.973 303.551 238.426 302.84 238.754C302.137 239.074 301.34 239.234 300.449 239.234C299.559 239.234 298.758 239.074 298.047 238.754C297.336 238.426 296.727 237.973 296.219 237.395C295.719 236.809 295.336 236.125 295.07 235.344C294.805 234.562 294.672 233.715 294.672 232.801ZM296.84 232.531V232.801C296.84 233.434 296.914 234.031 297.062 234.594C297.211 235.148 297.434 235.641 297.73 236.07C298.035 236.5 298.414 236.84 298.867 237.09C299.32 237.332 299.848 237.453 300.449 237.453C301.043 237.453 301.562 237.332 302.008 237.09C302.461 236.84 302.836 236.5 303.133 236.07C303.43 235.641 303.652 235.148 303.801 234.594C303.957 234.031 304.035 233.434 304.035 232.801V232.531C304.035 231.906 303.957 231.316 303.801 230.762C303.652 230.199 303.426 229.703 303.121 229.273C302.824 228.836 302.449 228.492 301.996 228.242C301.551 227.992 301.027 227.867 300.426 227.867C299.832 227.867 299.309 227.992 298.855 228.242C298.41 228.492 298.035 228.836 297.73 229.273C297.434 229.703 297.211 230.199 297.062 230.762C296.914 231.316 296.84 231.906 296.84 232.531ZM314.195 239.234C313.312 239.234 312.512 239.086 311.793 238.789C311.082 238.484 310.469 238.059 309.953 237.512C309.445 236.965 309.055 236.316 308.781 235.566C308.508 234.816 308.371 233.996 308.371 233.105V232.613C308.371 231.582 308.523 230.664 308.828 229.859C309.133 229.047 309.547 228.359 310.07 227.797C310.594 227.234 311.188 226.809 311.852 226.52C312.516 226.23 313.203 226.086 313.914 226.086C314.82 226.086 315.602 226.242 316.258 226.555C316.922 226.867 317.465 227.305 317.887 227.867C318.309 228.422 318.621 229.078 318.824 229.836C319.027 230.586 319.129 231.406 319.129 232.297V233.27H309.66V231.5H316.961V231.336C316.93 230.773 316.812 230.227 316.609 229.695C316.414 229.164 316.102 228.727 315.672 228.383C315.242 228.039 314.656 227.867 313.914 227.867C313.422 227.867 312.969 227.973 312.555 228.184C312.141 228.387 311.785 228.691 311.488 229.098C311.191 229.504 310.961 230 310.797 230.586C310.633 231.172 310.551 231.848 310.551 232.613V233.105C310.551 233.707 310.633 234.273 310.797 234.805C310.969 235.328 311.215 235.789 311.535 236.188C311.863 236.586 312.258 236.898 312.719 237.125C313.188 237.352 313.719 237.465 314.312 237.465C315.078 237.465 315.727 237.309 316.258 236.996C316.789 236.684 317.254 236.266 317.652 235.742L318.965 236.785C318.691 237.199 318.344 237.594 317.922 237.969C317.5 238.344 316.98 238.648 316.363 238.883C315.754 239.117 315.031 239.234 314.195 239.234ZM56.1016 254.32V256.113H49.6914V254.32H56.1016ZM50.0078 254.32V267H47.8398V254.32H50.0078ZM58.0234 254.32V267H55.8438V254.32H58.0234ZM69.9766 254.32V256.113H63.8477V254.32H69.9766ZM71.8867 254.32V267H69.7188V254.32H71.8867ZM63.3203 254.32H65.5L65.1719 260.438C65.1172 261.383 65.0273 262.219 64.9023 262.945C64.7852 263.664 64.6211 264.281 64.4102 264.797C64.207 265.312 63.9492 265.734 63.6367 266.062C63.332 266.383 62.9648 266.621 62.5352 266.777C62.1055 266.926 61.6094 267 61.0469 267H60.3672V265.09L60.8359 265.055C61.1719 265.031 61.457 264.953 61.6914 264.82C61.9336 264.688 62.1367 264.492 62.3008 264.234C62.4648 263.969 62.5977 263.629 62.6992 263.215C62.8086 262.801 62.8906 262.309 62.9453 261.738C63.0078 261.168 63.0547 260.504 63.0859 259.746L63.3203 254.32ZM82.8555 264.832V258.305C82.8555 257.805 82.7539 257.371 82.5508 257.004C82.3555 256.629 82.0586 256.34 81.6602 256.137C81.2617 255.934 80.7695 255.832 80.1836 255.832C79.6367 255.832 79.1562 255.926 78.7422 256.113C78.3359 256.301 78.0156 256.547 77.7812 256.852C77.5547 257.156 77.4414 257.484 77.4414 257.836H75.2734C75.2734 257.383 75.3906 256.934 75.625 256.488C75.8594 256.043 76.1953 255.641 76.6328 255.281C77.0781 254.914 77.6094 254.625 78.2266 254.414C78.8516 254.195 79.5469 254.086 80.3125 254.086C81.2344 254.086 82.0469 254.242 82.75 254.555C83.4609 254.867 84.0156 255.34 84.4141 255.973C84.8203 256.598 85.0234 257.383 85.0234 258.328V264.234C85.0234 264.656 85.0586 265.105 85.1289 265.582C85.207 266.059 85.3203 266.469 85.4688 266.812V267H83.207C83.0977 266.75 83.0117 266.418 82.9492 266.004C82.8867 265.582 82.8555 265.191 82.8555 264.832ZM83.2305 259.312L83.2539 260.836H81.0625C80.4453 260.836 79.8945 260.887 79.4102 260.988C78.9258 261.082 78.5195 261.227 78.1914 261.422C77.8633 261.617 77.6133 261.863 77.4414 262.16C77.2695 262.449 77.1836 262.789 77.1836 263.18C77.1836 263.578 77.2734 263.941 77.4531 264.27C77.6328 264.598 77.9023 264.859 78.2617 265.055C78.6289 265.242 79.0781 265.336 79.6094 265.336C80.2734 265.336 80.8594 265.195 81.3672 264.914C81.875 264.633 82.2773 264.289 82.5742 263.883C82.8789 263.477 83.043 263.082 83.0664 262.699L83.9922 263.742C83.9375 264.07 83.7891 264.434 83.5469 264.832C83.3047 265.23 82.9805 265.613 82.5742 265.98C82.1758 266.34 81.6992 266.641 81.1445 266.883C80.5977 267.117 79.9805 267.234 79.293 267.234C78.4336 267.234 77.6797 267.066 77.0312 266.73C76.3906 266.395 75.8906 265.945 75.5312 265.383C75.1797 264.812 75.0039 264.176 75.0039 263.473C75.0039 262.793 75.1367 262.195 75.4023 261.68C75.668 261.156 76.0508 260.723 76.5508 260.379C77.0508 260.027 77.6523 259.762 78.3555 259.582C79.0586 259.402 79.8438 259.312 80.7109 259.312H83.2305ZM97.0352 259.816V261.574H90.332V259.816H97.0352ZM90.7891 254.32V267H88.6211V254.32H90.7891ZM98.793 254.32V267H96.6133V254.32H98.793ZM104.629 263.566L110.477 254.32H112.656V267H110.477V257.754L104.629 267H102.473V254.32H104.629V263.566ZM118.305 256.758V271.875H116.125V254.32H118.117L118.305 256.758ZM126.848 260.555V260.801C126.848 261.723 126.738 262.578 126.52 263.367C126.301 264.148 125.98 264.828 125.559 265.406C125.145 265.984 124.633 266.434 124.023 266.754C123.414 267.074 122.715 267.234 121.926 267.234C121.121 267.234 120.41 267.102 119.793 266.836C119.176 266.57 118.652 266.184 118.223 265.676C117.793 265.168 117.449 264.559 117.191 263.848C116.941 263.137 116.77 262.336 116.676 261.445V260.133C116.77 259.195 116.945 258.355 117.203 257.613C117.461 256.871 117.801 256.238 118.223 255.715C118.652 255.184 119.172 254.781 119.781 254.508C120.391 254.227 121.094 254.086 121.891 254.086C122.688 254.086 123.395 254.242 124.012 254.555C124.629 254.859 125.148 255.297 125.57 255.867C125.992 256.438 126.309 257.121 126.52 257.918C126.738 258.707 126.848 259.586 126.848 260.555ZM124.668 260.801V260.555C124.668 259.922 124.602 259.328 124.469 258.773C124.336 258.211 124.129 257.719 123.848 257.297C123.574 256.867 123.223 256.531 122.793 256.289C122.363 256.039 121.852 255.914 121.258 255.914C120.711 255.914 120.234 256.008 119.828 256.195C119.43 256.383 119.09 256.637 118.809 256.957C118.527 257.27 118.297 257.629 118.117 258.035C117.945 258.434 117.816 258.848 117.73 259.277V262.312C117.887 262.859 118.105 263.375 118.387 263.859C118.668 264.336 119.043 264.723 119.512 265.02C119.98 265.309 120.57 265.453 121.281 265.453C121.867 265.453 122.371 265.332 122.793 265.09C123.223 264.84 123.574 264.5 123.848 264.07C124.129 263.641 124.336 263.148 124.469 262.594C124.602 262.031 124.668 261.434 124.668 260.801ZM129.039 260.801V260.531C129.039 259.617 129.172 258.77 129.438 257.988C129.703 257.199 130.086 256.516 130.586 255.938C131.086 255.352 131.691 254.898 132.402 254.578C133.113 254.25 133.91 254.086 134.793 254.086C135.684 254.086 136.484 254.25 137.195 254.578C137.914 254.898 138.523 255.352 139.023 255.938C139.531 256.516 139.918 257.199 140.184 257.988C140.449 258.77 140.582 259.617 140.582 260.531V260.801C140.582 261.715 140.449 262.562 140.184 263.344C139.918 264.125 139.531 264.809 139.023 265.395C138.523 265.973 137.918 266.426 137.207 266.754C136.504 267.074 135.707 267.234 134.816 267.234C133.926 267.234 133.125 267.074 132.414 266.754C131.703 266.426 131.094 265.973 130.586 265.395C130.086 264.809 129.703 264.125 129.438 263.344C129.172 262.562 129.039 261.715 129.039 260.801ZM131.207 260.531V260.801C131.207 261.434 131.281 262.031 131.43 262.594C131.578 263.148 131.801 263.641 132.098 264.07C132.402 264.5 132.781 264.84 133.234 265.09C133.688 265.332 134.215 265.453 134.816 265.453C135.41 265.453 135.93 265.332 136.375 265.09C136.828 264.84 137.203 264.5 137.5 264.07C137.797 263.641 138.02 263.148 138.168 262.594C138.324 262.031 138.402 261.434 138.402 260.801V260.531C138.402 259.906 138.324 259.316 138.168 258.762C138.02 258.199 137.793 257.703 137.488 257.273C137.191 256.836 136.816 256.492 136.363 256.242C135.918 255.992 135.395 255.867 134.793 255.867C134.199 255.867 133.676 255.992 133.223 256.242C132.777 256.492 132.402 256.836 132.098 257.273C131.801 257.703 131.578 258.199 131.43 258.762C131.281 259.316 131.207 259.906 131.207 260.531ZM149.254 261.422H145.094L145.07 259.688H148.469C149.141 259.688 149.699 259.621 150.145 259.488C150.598 259.355 150.938 259.156 151.164 258.891C151.391 258.625 151.504 258.297 151.504 257.906C151.504 257.602 151.438 257.336 151.305 257.109C151.18 256.875 150.988 256.684 150.73 256.535C150.473 256.379 150.152 256.266 149.77 256.195C149.395 256.117 148.953 256.078 148.445 256.078H145.668V267H143.5V254.32H148.445C149.25 254.32 149.973 254.391 150.613 254.531C151.262 254.672 151.812 254.887 152.266 255.176C152.727 255.457 153.078 255.816 153.32 256.254C153.562 256.691 153.684 257.207 153.684 257.801C153.684 258.184 153.605 258.547 153.449 258.891C153.293 259.234 153.062 259.539 152.758 259.805C152.453 260.07 152.078 260.289 151.633 260.461C151.188 260.625 150.676 260.73 150.098 260.777L149.254 261.422ZM149.254 267H144.309L145.387 265.242H149.254C149.855 265.242 150.355 265.168 150.754 265.02C151.152 264.863 151.449 264.645 151.645 264.363C151.848 264.074 151.949 263.73 151.949 263.332C151.949 262.934 151.848 262.594 151.645 262.312C151.449 262.023 151.152 261.805 150.754 261.656C150.355 261.5 149.855 261.422 149.254 261.422H145.961L145.984 259.688H150.098L150.883 260.344C151.578 260.398 152.168 260.57 152.652 260.859C153.137 261.148 153.504 261.516 153.754 261.961C154.004 262.398 154.129 262.875 154.129 263.391C154.129 263.984 154.016 264.508 153.789 264.961C153.57 265.414 153.25 265.793 152.828 266.098C152.406 266.395 151.895 266.621 151.293 266.777C150.691 266.926 150.012 267 149.254 267ZM164.512 264.832V258.305C164.512 257.805 164.41 257.371 164.207 257.004C164.012 256.629 163.715 256.34 163.316 256.137C162.918 255.934 162.426 255.832 161.84 255.832C161.293 255.832 160.812 255.926 160.398 256.113C159.992 256.301 159.672 256.547 159.438 256.852C159.211 257.156 159.098 257.484 159.098 257.836H156.93C156.93 257.383 157.047 256.934 157.281 256.488C157.516 256.043 157.852 255.641 158.289 255.281C158.734 254.914 159.266 254.625 159.883 254.414C160.508 254.195 161.203 254.086 161.969 254.086C162.891 254.086 163.703 254.242 164.406 254.555C165.117 254.867 165.672 255.34 166.07 255.973C166.477 256.598 166.68 257.383 166.68 258.328V264.234C166.68 264.656 166.715 265.105 166.785 265.582C166.863 266.059 166.977 266.469 167.125 266.812V267H164.863C164.754 266.75 164.668 266.418 164.605 266.004C164.543 265.582 164.512 265.191 164.512 264.832ZM164.887 259.312L164.91 260.836H162.719C162.102 260.836 161.551 260.887 161.066 260.988C160.582 261.082 160.176 261.227 159.848 261.422C159.52 261.617 159.27 261.863 159.098 262.16C158.926 262.449 158.84 262.789 158.84 263.18C158.84 263.578 158.93 263.941 159.109 264.27C159.289 264.598 159.559 264.859 159.918 265.055C160.285 265.242 160.734 265.336 161.266 265.336C161.93 265.336 162.516 265.195 163.023 264.914C163.531 264.633 163.934 264.289 164.23 263.883C164.535 263.477 164.699 263.082 164.723 262.699L165.648 263.742C165.594 264.07 165.445 264.434 165.203 264.832C164.961 265.23 164.637 265.613 164.23 265.98C163.832 266.34 163.355 266.641 162.801 266.883C162.254 267.117 161.637 267.234 160.949 267.234C160.09 267.234 159.336 267.066 158.688 266.73C158.047 266.395 157.547 265.945 157.188 265.383C156.836 264.812 156.66 264.176 156.66 263.473C156.66 262.793 156.793 262.195 157.059 261.68C157.324 261.156 157.707 260.723 158.207 260.379C158.707 260.027 159.309 259.762 160.012 259.582C160.715 259.402 161.5 259.312 162.367 259.312H164.887ZM178.691 259.816V261.574H171.988V259.816H178.691ZM172.445 254.32V267H170.277V254.32H172.445ZM180.449 254.32V267H178.27V254.32H180.449ZM186.285 263.566L192.133 254.32H194.312V267H192.133V257.754L186.285 267H184.129V254.32H186.285V263.566ZM203.055 267.234C202.172 267.234 201.371 267.086 200.652 266.789C199.941 266.484 199.328 266.059 198.812 265.512C198.305 264.965 197.914 264.316 197.641 263.566C197.367 262.816 197.23 261.996 197.23 261.105V260.613C197.23 259.582 197.383 258.664 197.688 257.859C197.992 257.047 198.406 256.359 198.93 255.797C199.453 255.234 200.047 254.809 200.711 254.52C201.375 254.23 202.062 254.086 202.773 254.086C203.68 254.086 204.461 254.242 205.117 254.555C205.781 254.867 206.324 255.305 206.746 255.867C207.168 256.422 207.48 257.078 207.684 257.836C207.887 258.586 207.988 259.406 207.988 260.297V261.27H198.52V259.5H205.82V259.336C205.789 258.773 205.672 258.227 205.469 257.695C205.273 257.164 204.961 256.727 204.531 256.383C204.102 256.039 203.516 255.867 202.773 255.867C202.281 255.867 201.828 255.973 201.414 256.184C201 256.387 200.645 256.691 200.348 257.098C200.051 257.504 199.82 258 199.656 258.586C199.492 259.172 199.41 259.848 199.41 260.613V261.105C199.41 261.707 199.492 262.273 199.656 262.805C199.828 263.328 200.074 263.789 200.395 264.188C200.723 264.586 201.117 264.898 201.578 265.125C202.047 265.352 202.578 265.465 203.172 265.465C203.938 265.465 204.586 265.309 205.117 264.996C205.648 264.684 206.113 264.266 206.512 263.742L207.824 264.785C207.551 265.199 207.203 265.594 206.781 265.969C206.359 266.344 205.84 266.648 205.223 266.883C204.613 267.117 203.891 267.234 203.055 267.234Z" fill="black"/>
</g>
<defs>
<clipPath id="clip0_233_106">
<rect width="480" height="420" fill="white"/>
</clipPath>
</defs>
</svg>
