<svg width="50" height="50" viewBox="0 0 50 50" fill="none" xmlns="http://www.w3.org/2000/svg">
<path fill-rule="evenodd" clip-rule="evenodd" d="M41.2021 9.22922C41.7169 9.01253 42.2804 8.9378 42.8339 9.01279C43.3874 9.08779 43.9107 9.30978 44.3493 9.65564C44.788 10.0015 45.1259 10.4586 45.3279 10.9794C45.5299 11.5002 45.5886 12.0656 45.4979 12.6167L40.7729 41.2771C40.3146 44.0417 37.2812 45.6271 34.7458 44.25C32.625 43.098 29.475 41.323 26.6417 39.4709C25.225 38.5438 20.8854 35.5751 21.4188 33.4626C21.8771 31.6563 29.1687 24.8688 33.3354 20.8334C34.9708 19.248 34.225 18.3334 32.2938 19.7917C27.4979 23.4125 19.7979 28.9188 17.2521 30.4688C15.0063 31.8355 13.8354 32.0688 12.4354 31.8355C9.88125 31.4105 7.5125 30.7521 5.57917 29.9501C2.96667 28.8667 3.09375 25.275 5.57708 24.2292L41.2021 9.22922Z" fill="white"/>
</svg>
