<svg width="60" height="60" viewBox="0 0 60 60" fill="none" xmlns="http://www.w3.org/2000/svg">
<path d="M50 15C51.45 15 52.625 15.5 53.55 16.475C54.5 17.5 55 18.625 55 20V47.5C55 48.875 54.5 50 53.55 51.025C52.625 52 51.45 52.5 50 52.5H10C8.55 52.5 7.375 52 6.45 51.025C5.5 50 5 48.875 5 47.5V20C5 18.625 5.5 17.5 6.45 16.475C7.375 15.5 8.55 15 10 15H20V10C20 8.55 20.5 7.375 21.45 6.45C22.375 5.5 23.55 5 25 5H35C36.45 5 37.625 5.5 38.55 6.45C39.5 7.375 40 8.55 40 10V15H50ZM10 20V47.5H50V20H10ZM35 15V10H25V15H35Z" fill="white"/>
</svg>
